Aikya-Regular_b005.ufo
<glyph name="exclam" format="1">
  <advance width="278"/>
  <unicode hex="0021"/>
  <outline>
    <contour>
      <point x="115" y="165" type="line"/>
      <point x="160" y="165" type="line"/>
      <point x="173" y="550" type="line"/>
      <point x="98" y="550" type="line"/>
    </contour>
    <contour>
      <point x="91" y="39" type="curve" smooth="yes"/>
      <point x="91" y="12"/>
      <point x="111" y="-8"/>
      <point x="138" y="-8" type="curve" smooth="yes"/>
      <point x="166" y="-8"/>
      <point x="187" y="12"/>
      <point x="187" y="38" type="curve" smooth="yes"/>
      <point x="187" y="66"/>
      <point x="167" y="87"/>
      <point x="138" y="87" type="curve" smooth="yes"/>
      <point x="111" y="87"/>
      <point x="91" y="66"/>
    </contour>
  </outline>
</glyph>
<glyph name="quotedbl" format="1">
  <advance width="414"/>
  <unicode hex="0022"/>
  <outline>
    <contour>
      <point x="261" y="363" type="line"/>
      <point x="306" y="363" type="line"/>
      <point x="320" y="591" type="line"/>
      <point x="249" y="591" type="line"/>
    </contour>
    <contour>
      <point x="107" y="363" type="line"/>
      <point x="152" y="363" type="line"/>
      <point x="166" y="591" type="line"/>
      <point x="95" y="591" type="line"/>
    </contour>
  </outline>
</glyph>
<glyph name="numbersign" format="1">
  <advance width="551"/>
  <unicode hex="0023"/>
  <outline>
    <contour>
      <point x="128" y="0" type="line"/>
      <point x="185" y="0" type="line"/>
      <point x="198" y="131" type="line"/>
      <point x="326" y="131" type="line"/>
      <point x="315" y="0" type="line"/>
      <point x="372" y="0" type="line"/>
      <point x="383" y="131" type="line"/>
      <point x="478" y="131" type="line"/>
      <point x="478" y="174" type="line"/>
      <point x="388" y="174" type="line"/>
      <point x="402" y="329" type="line"/>
      <point x="494" y="329" type="line"/>
      <point x="494" y="372" type="line"/>
      <point x="406" y="372" type="line"/>
      <point x="417" y="496" type="line"/>
      <point x="361" y="496" type="line"/>
      <point x="349" y="372" type="line"/>
      <point x="222" y="372" type="line"/>
      <point x="233" y="496" type="line"/>
      <point x="176" y="496" type="line"/>
      <point x="165" y="372" type="line"/>
      <point x="74" y="372" type="line"/>
      <point x="74" y="329" type="line"/>
      <point x="161" y="329" type="line"/>
      <point x="147" y="174" type="line"/>
      <point x="61" y="174" type="line"/>
      <point x="61" y="131" type="line"/>
      <point x="141" y="131" type="line"/>
    </contour>
    <contour>
      <point x="203" y="174" type="line"/>
      <point x="218" y="329" type="line"/>
      <point x="345" y="329" type="line"/>
      <point x="329" y="174" type="line"/>
    </contour>
  </outline>
</glyph>
<glyph name="dollar" format="1">
  <advance width="496"/>
  <unicode hex="0024"/>
  <outline>
    <contour>
      <point x="426" y="140" type="curve" smooth="yes"/>
      <point x="426" y="227"/>
      <point x="362" y="260"/>
      <point x="267" y="312" type="curve"/>
      <point x="209" y="344"/>
      <point x="149" y="373"/>
      <point x="149" y="436" type="curve" smooth="yes"/>
      <point x="149" y="494"/>
      <point x="197" y="518"/>
      <point x="253" y="519" type="curve" smooth="yes"/>
      <point x="292" y="519"/>
      <point x="317" y="510"/>
      <point x="333" y="497" type="curve"/>
      <point x="350" y="410" type="line"/>
      <point x="392" y="410" type="line"/>
      <point x="396" y="528" type="line"/>
      <point x="377" y="536"/>
      <point x="335" y="553"/>
      <point x="277" y="556" type="curve"/>
      <point x="277" y="637" type="line"/>
      <point x="225" y="637" type="line"/>
      <point x="225" y="556" type="line"/>
      <point x="145" y="546"/>
      <point x="80" y="497"/>
      <point x="80" y="423" type="curve" smooth="yes"/>
      <point x="80" y="337"/>
      <point x="133" y="299"/>
      <point x="216" y="255" type="curve" smooth="yes"/>
      <point x="289" y="217"/>
      <point x="354" y="186"/>
      <point x="354" y="126" type="curve" smooth="yes"/>
      <point x="354" y="63"/>
      <point x="315" y="30"/>
      <point x="242" y="30" type="curve" smooth="yes"/>
      <point x="195" y="30"/>
      <point x="159" y="42"/>
      <point x="138" y="59" type="curve"/>
      <point x="123" y="151" type="line"/>
      <point x="79" y="151" type="line"/>
      <point x="74" y="25" type="line"/>
      <point x="93" y="16"/>
      <point x="151" y="-3"/>
      <point x="216" y="-7" type="curve"/>
      <point x="215" y="-93" type="line"/>
      <point x="265" y="-93" type="line"/>
      <point x="266" y="-7" type="line"/>
      <point x="369" y="1"/>
      <point x="426" y="61"/>
    </contour>
  </outline>
</glyph>
<glyph name="percent" format="1">
  <advance width="763"/>
  <unicode hex="0025"/>
  <outline>
    <contour>
      <point x="171" y="238" type="curve" smooth="yes"/>
      <point x="246" y="238"/>
      <point x="315" y="293"/>
      <point x="315" y="393" type="curve" smooth="yes"/>
      <point x="315" y="477"/>
      <point x="276" y="544"/>
      <point x="184" y="544" type="curve" smooth="yes"/>
      <point x="108" y="544"/>
      <point x="40" y="488"/>
      <point x="40" y="388" type="curve" smooth="yes"/>
      <point x="40" y="307"/>
      <point x="90" y="238"/>
    </contour>
    <contour>
      <point x="176" y="277" type="curve" smooth="yes"/>
      <point x="129" y="277"/>
      <point x="105" y="330"/>
      <point x="105" y="391" type="curve" smooth="yes"/>
      <point x="105" y="461"/>
      <point x="132" y="506"/>
      <point x="180" y="506" type="curve" smooth="yes"/>
      <point x="227" y="506"/>
      <point x="250" y="457"/>
      <point x="250" y="390" type="curve" smooth="yes"/>
      <point x="250" y="321"/>
      <point x="223" y="277"/>
    </contour>
    <contour>
      <point x="235" y="0" type="line"/>
      <point x="289" y="0" type="line"/>
      <point x="526" y="556" type="line"/>
      <point x="472" y="556" type="line"/>
    </contour>
    <contour>
      <point x="447" y="166" type="curve" smooth="yes"/>
      <point x="447" y="85"/>
      <point x="496" y="16"/>
      <point x="577" y="16" type="curve" smooth="yes"/>
      <point x="651" y="16"/>
      <point x="721" y="71"/>
      <point x="721" y="170" type="curve" smooth="yes"/>
      <point x="721" y="254"/>
      <point x="681" y="322"/>
      <point x="590" y="322" type="curve" smooth="yes"/>
      <point x="514" y="322"/>
      <point x="447" y="265"/>
    </contour>
    <contour>
      <point x="511" y="170" type="curve" smooth="yes"/>
      <point x="511" y="239"/>
      <point x="538" y="283"/>
      <point x="585" y="283" type="curve" smooth="yes"/>
      <point x="634" y="283"/>
      <point x="657" y="234"/>
      <point x="657" y="167" type="curve" smooth="yes"/>
      <point x="657" y="98"/>
      <point x="629" y="54"/>
      <point x="581" y="54" type="curve" smooth="yes"/>
      <point x="535" y="54"/>
      <point x="511" y="108"/>
    </contour>
  </outline>
</glyph>
<glyph name="ampersand" format="1">
  <advance width="560"/>
  <unicode hex="0026"/>
  <outline>
    <contour>
      <point x="371" y="262" type="line"/>
      <point x="432" y="254" type="line"/>
      <point x="435" y="210"/>
      <point x="428" y="151"/>
      <point x="397" y="110" type="curve"/>
      <point x="377" y="129" type="line" smooth="yes"/>
      <point x="341" y="165"/>
      <point x="275" y="239"/>
      <point x="240" y="281" type="curve"/>
      <point x="306" y="328"/>
      <point x="367" y="365"/>
      <point x="367" y="455" type="curve" smooth="yes"/>
      <point x="367" y="503"/>
      <point x="326" y="557"/>
      <point x="237" y="557" type="curve" smooth="yes"/>
      <point x="154" y="557"/>
      <point x="93" y="499"/>
      <point x="93" y="429" type="curve" smooth="yes"/>
      <point x="93" y="374"/>
      <point x="123" y="316"/>
      <point x="157" y="274" type="curve"/>
      <point x="106" y="244"/>
      <point x="46" y="202"/>
      <point x="46" y="134" type="curve" smooth="yes"/>
      <point x="46" y="43"/>
      <point x="124" y="-6"/>
      <point x="241" y="-6" type="curve" smooth="yes"/>
      <point x="280" y="-6"/>
      <point x="336" y="4"/>
      <point x="378" y="39" type="curve"/>
      <point x="412" y="9"/>
      <point x="437" y="-4"/>
      <point x="472" y="-4" type="curve" smooth="yes"/>
      <point x="483" y="-4"/>
      <point x="512" y="-2"/>
      <point x="522" y="3" type="curve"/>
      <point x="522" y="35" type="line"/>
      <point x="482" y="37"/>
      <point x="457" y="54"/>
      <point x="426" y="82" type="curve"/>
      <point x="462" y="120"/>
      <point x="486" y="184"/>
      <point x="485" y="254" type="curve"/>
      <point x="546" y="262" type="line"/>
      <point x="546" y="301" type="line"/>
      <point x="371" y="301" type="line"/>
    </contour>
    <contour>
      <point x="246" y="34" type="curve" smooth="yes"/>
      <point x="159" y="34"/>
      <point x="115" y="83"/>
      <point x="115" y="142" type="curve" smooth="yes"/>
      <point x="115" y="187"/>
      <point x="146" y="220"/>
      <point x="180" y="246" type="curve"/>
      <point x="225" y="194"/>
      <point x="296" y="111"/>
      <point x="346" y="66" type="curve"/>
      <point x="318" y="44"/>
      <point x="279" y="34"/>
    </contour>
    <contour>
      <point x="161" y="437" type="curve" smooth="yes"/>
      <point x="161" y="487"/>
      <point x="194" y="525"/>
      <point x="235" y="525" type="curve" smooth="yes"/>
      <point x="293" y="525"/>
      <point x="304" y="479"/>
      <point x="304" y="452" type="curve" smooth="yes"/>
      <point x="304" y="388"/>
      <point x="279" y="356"/>
      <point x="218" y="308" type="curve"/>
      <point x="194" y="336"/>
      <point x="161" y="379"/>
    </contour>
  </outline>
</glyph>
<glyph name="quotesingle" format="1">
  <advance width="260"/>
  <unicode hex="0027"/>
  <outline>
    <contour>
      <point x="107" y="363" type="line"/>
      <point x="152" y="363" type="line"/>
      <point x="166" y="591" type="line"/>
      <point x="95" y="591" type="line"/>
    </contour>
  </outline>
</glyph>
<glyph name="parenleft" format="1">
  <advance width="316"/>
  <unicode hex="0028"/>
  <outline>
    <contour>
      <point x="51" y="247" type="curve" smooth="yes"/>
      <point x="51" y="-1"/>
      <point x="200" y="-116"/>
      <point x="234" y="-136" type="curve"/>
      <point x="265" y="-114" type="line"/>
      <point x="231" y="-89"/>
      <point x="115" y="36"/>
      <point x="120" y="261" type="curve" smooth="yes"/>
      <point x="125" y="462"/>
      <point x="232" y="573"/>
      <point x="263" y="593" type="curve"/>
      <point x="234" y="613" type="line"/>
      <point x="194" y="591"/>
      <point x="51" y="462"/>
    </contour>
  </outline>
</glyph>
<glyph name="parenright" format="1">
  <advance width="316"/>
  <unicode hex="0029"/>
  <outline>
    <contour>
      <point x="265" y="231" type="curve" smooth="yes"/>
      <point x="265" y="479"/>
      <point x="116" y="594"/>
      <point x="83" y="614" type="curve"/>
      <point x="51" y="592" type="line"/>
      <point x="86" y="567"/>
      <point x="201" y="442"/>
      <point x="196" y="217" type="curve" smooth="yes"/>
      <point x="191" y="16"/>
      <point x="84" y="-95"/>
      <point x="53" y="-115" type="curve"/>
      <point x="83" y="-135" type="line"/>
      <point x="123" y="-113"/>
      <point x="265" y="16"/>
    </contour>
  </outline>
</glyph>
<glyph name="asterisk" format="1">
  <advance width="473"/>
  <unicode hex="002A"/>
  <outline>
    <contour>
      <point x="91" y="296" type="line"/>
      <point x="179" y="359" type="line"/>
      <point x="227" y="403" type="line"/>
      <point x="215" y="340" type="line"/>
      <point x="206" y="230" type="line"/>
      <point x="272" y="231" type="line"/>
      <point x="259" y="340" type="line"/>
      <point x="245" y="403" type="line"/>
      <point x="296" y="361" type="line"/>
      <point x="383" y="298" type="line"/>
      <point x="417" y="356" type="line"/>
      <point x="317" y="399" type="line"/>
      <point x="255" y="419" type="line"/>
      <point x="317" y="440" type="line"/>
      <point x="414" y="487" type="line"/>
      <point x="382" y="542" type="line"/>
      <point x="293" y="479" type="line"/>
      <point x="245" y="435" type="line"/>
      <point x="259" y="499" type="line"/>
      <point x="268" y="606" type="line"/>
      <point x="201" y="606" type="line"/>
      <point x="213" y="498" type="line"/>
      <point x="227" y="434" type="line"/>
      <point x="177" y="477" type="line"/>
      <point x="89" y="540" type="line"/>
      <point x="57" y="484" type="line"/>
      <point x="156" y="439" type="line"/>
      <point x="218" y="419" type="line"/>
      <point x="156" y="399" type="line"/>
      <point x="58" y="351" type="line"/>
    </contour>
  </outline>
</glyph>
<glyph name="plus" format="1">
  <advance width="490"/>
  <unicode hex="002B"/>
  <outline>
    <contour>
      <point x="78" y="194" type="line"/>
      <point x="156" y="194" type="line"/>
      <point x="220" y="197" type="line"/>
      <point x="218" y="135" type="line"/>
      <point x="218" y="47" type="line"/>
      <point x="272" y="47" type="line"/>
      <point x="272" y="135" type="line"/>
      <point x="269" y="197" type="line"/>
      <point x="324" y="194" type="line"/>
      <point x="411" y="194" type="line"/>
      <point x="411" y="248" type="line"/>
      <point x="324" y="248" type="line"/>
      <point x="269" y="244" type="line"/>
      <point x="272" y="308" type="line"/>
      <point x="272" y="390" type="line"/>
      <point x="218" y="390" type="line"/>
      <point x="218" y="308" type="line"/>
      <point x="220" y="244" type="line"/>
      <point x="156" y="248" type="line"/>
      <point x="78" y="248" type="line"/>
    </contour>
  </outline>
</glyph>
<glyph name="comma" format="1">
  <advance width="248"/>
  <unicode hex="002C"/>
  <outline>
    <contour>
      <point x="126" y="99" type="curve" smooth="yes"/>
      <point x="103" y="99"/>
      <point x="84" y="84"/>
      <point x="84" y="57" type="curve" smooth="yes"/>
      <point x="84" y="19"/>
      <point x="122" y="19"/>
      <point x="122" y="-36" type="curve" smooth="yes"/>
      <point x="122" y="-81"/>
      <point x="99" y="-108"/>
      <point x="84" y="-121" type="curve"/>
      <point x="84" y="-129" type="line"/>
      <point x="106" y="-146" type="line"/>
      <point x="107" y="-146" type="line"/>
      <point x="141" y="-126"/>
      <point x="180" y="-64"/>
      <point x="180" y="14" type="curve" smooth="yes"/>
      <point x="180" y="67"/>
      <point x="161" y="99"/>
    </contour>
  </outline>
</glyph>
<glyph name="hyphen" format="1">
  <advance width="466"/>
  <unicode hex="002D"/>
  <outline>
    <contour>
      <point x="83" y="198" type="line"/>
      <point x="383" y="198" type="line"/>
      <point x="383" y="248" type="line"/>
      <point x="83" y="248" type="line"/>
    </contour>
  </outline>
</glyph>
<glyph name="period" format="1">
  <advance width="194"/>
  <unicode hex="002E"/>
  <outline>
    <contour>
      <point x="49" y="39" type="curve" smooth="yes"/>
      <point x="49" y="12"/>
      <point x="69" y="-8"/>
      <point x="96" y="-8" type="curve" smooth="yes"/>
      <point x="124" y="-8"/>
      <point x="145" y="12"/>
      <point x="145" y="38" type="curve" smooth="yes"/>
      <point x="145" y="66"/>
      <point x="125" y="87"/>
      <point x="96" y="87" type="curve" smooth="yes"/>
      <point x="69" y="87"/>
      <point x="49" y="66"/>
    </contour>
  </outline>
</glyph>
<glyph name="slash" format="1">
  <advance width="319"/>
  <unicode hex="002F"/>
  <outline>
    <contour>
      <point x="27" y="-131" type="line"/>
      <point x="89" y="-131" type="line"/>
      <point x="292" y="579" type="line"/>
      <point x="231" y="579" type="line"/>
    </contour>
  </outline>
</glyph>
<glyph name="zero" format="1">
  <advance width="473"/>
  <unicode hex="0030"/>
  <outline>
    <contour>
      <point x="231" y="-7" type="curve" smooth="yes"/>
      <point x="343" y="-7"/>
      <point x="426" y="91"/>
      <point x="427" y="234" type="curve" smooth="yes"/>
      <point x="428" y="366"/>
      <point x="381" y="467"/>
      <point x="244" y="467" type="curve" smooth="yes"/>
      <point x="138" y="467"/>
      <point x="48" y="379"/>
      <point x="46" y="235" type="curve" smooth="yes"/>
      <point x="45" y="107"/>
      <point x="97" y="-7"/>
    </contour>
    <contour>
      <point x="236" y="30" type="curve" smooth="yes"/>
      <point x="153" y="30"/>
      <point x="123" y="127"/>
      <point x="123" y="239" type="curve" smooth="yes"/>
      <point x="123" y="357"/>
      <point x="157" y="430"/>
      <point x="238" y="430" type="curve" smooth="yes"/>
      <point x="323" y="430"/>
      <point x="350" y="346"/>
      <point x="350" y="229" type="curve" smooth="yes"/>
      <point x="350" y="107"/>
      <point x="319" y="30"/>
    </contour>
  </outline>
</glyph>
<glyph name="one" format="1">
  <advance width="322"/>
  <unicode hex="0031"/>
  <outline>
    <contour>
      <point x="43" y="0" type="line"/>
      <point x="306" y="0" type="line"/>
      <point x="306" y="35" type="line"/>
      <point x="213" y="42" type="line"/>
      <point x="213" y="461" type="line"/>
      <point x="171" y="469" type="line"/>
      <point x="170" y="469" type="line"/>
      <point x="136" y="439"/>
      <point x="80" y="410"/>
      <point x="29" y="399" type="curve"/>
      <point x="36" y="360" type="line"/>
      <point x="66" y="363"/>
      <point x="121" y="378"/>
      <point x="141" y="386" type="curve"/>
      <point x="141" y="42" type="line"/>
      <point x="43" y="35" type="line"/>
    </contour>
  </outline>
</glyph>
<glyph name="two" format="1">
  <advance width="441"/>
  <unicode hex="0032"/>
  <outline>
    <contour>
      <point x="45" y="0" type="line"/>
      <point x="397" y="0" type="line"/>
      <point x="416" y="112" type="line"/>
      <point x="379" y="120" type="line"/>
      <point x="354" y="57" type="line"/>
      <point x="122" y="41" type="line"/>
      <point x="251" y="116"/>
      <point x="369" y="228"/>
      <point x="369" y="334" type="curve" smooth="yes"/>
      <point x="369" y="402"/>
      <point x="322" y="468"/>
      <point x="214" y="468" type="curve" smooth="yes"/>
      <point x="134" y="468"/>
      <point x="67" y="422"/>
      <point x="38" y="388" type="curve"/>
      <point x="61" y="357" type="line"/>
      <point x="85" y="380"/>
      <point x="127" y="416"/>
      <point x="193" y="416" type="curve" smooth="yes"/>
      <point x="255" y="416"/>
      <point x="289" y="379"/>
      <point x="289" y="325" type="curve" smooth="yes"/>
      <point x="289" y="227"/>
      <point x="170" y="105"/>
      <point x="36" y="29" type="curve"/>
    </contour>
  </outline>
</glyph>
<glyph name="three" format="1">
  <advance width="413"/>
  <unicode hex="0033"/>
  <outline>
    <contour>
      <point x="45" y="-71" type="curve"/>
      <point x="45" y="-111" type="line"/>
      <point x="64" y="-116"/>
      <point x="93" y="-119"/>
      <point x="114" y="-119" type="curve" smooth="yes"/>
      <point x="274" y="-119"/>
      <point x="377" y="-39"/>
      <point x="377" y="71" type="curve" smooth="yes"/>
      <point x="376" y="143"/>
      <point x="312" y="201"/>
      <point x="210" y="192" type="curve"/>
      <point x="280" y="216"/>
      <point x="349" y="277"/>
      <point x="349" y="350" type="curve" smooth="yes"/>
      <point x="349" y="435"/>
      <point x="283" y="469"/>
      <point x="201" y="469" type="curve" smooth="yes"/>
      <point x="131" y="469"/>
      <point x="66" y="431"/>
      <point x="43" y="409" type="curve"/>
      <point x="62" y="378" type="line"/>
      <point x="90" y="399"/>
      <point x="134" y="419"/>
      <point x="181" y="419" type="curve" smooth="yes"/>
      <point x="229" y="419"/>
      <point x="272" y="398"/>
      <point x="271" y="337" type="curve" smooth="yes"/>
      <point x="271" y="285"/>
      <point x="226" y="239"/>
      <point x="166" y="213" type="curve" smooth="yes"/>
      <point x="147" y="206"/>
      <point x="127" y="200"/>
      <point x="108" y="196" type="curve"/>
      <point x="120" y="158" type="line"/>
      <point x="167" y="171" type="line"/>
      <point x="256" y="168"/>
      <point x="295" y="127"/>
      <point x="295" y="61" type="curve" smooth="yes"/>
      <point x="295" y="-14"/>
      <point x="225" y="-78"/>
      <point x="101" y="-78" type="curve" smooth="yes"/>
      <point x="85" y="-78"/>
      <point x="61" y="-76"/>
    </contour>
  </outline>
</glyph>
<glyph name="four" format="1">
  <advance width="474"/>
  <unicode hex="0034"/>
  <outline>
    <contour>
      <point x="46" y="0" type="line"/>
      <point x="292" y="0" type="line"/>
      <point x="292" y="-119" type="line"/>
      <point x="355" y="-119" type="line"/>
      <point x="355" y="0" type="line"/>
      <point x="460" y="0" type="line"/>
      <point x="460" y="58" type="line"/>
      <point x="355" y="53" type="line"/>
      <point x="355" y="199" type="line"/>
      <point x="294" y="194" type="line"/>
      <point x="292" y="49" type="line"/>
      <point x="93" y="39" type="line"/>
      <point x="122" y="84" type="line"/>
      <point x="326" y="474" type="line"/>
      <point x="272" y="503" type="line"/>
      <point x="252" y="503" type="line"/>
      <point x="195" y="371"/>
      <point x="95" y="157"/>
      <point x="28" y="33" type="curve"/>
    </contour>
  </outline>
</glyph>
<glyph name="five" format="1">
  <advance width="437"/>
  <unicode hex="0035"/>
  <outline>
    <contour>
      <point x="70" y="-81" type="curve"/>
      <point x="70" y="-114" type="line"/>
      <point x="87" y="-119"/>
      <point x="105" y="-119"/>
      <point x="122" y="-119" type="curve" smooth="yes"/>
      <point x="282" y="-119"/>
      <point x="386" y="-16"/>
      <point x="386" y="97" type="curve" smooth="yes"/>
      <point x="386" y="203"/>
      <point x="325" y="254"/>
      <point x="235" y="254" type="curve" smooth="yes"/>
      <point x="191" y="254"/>
      <point x="146" y="241"/>
      <point x="122" y="228" type="curve"/>
      <point x="157" y="403" type="line"/>
      <point x="351" y="403" type="line"/>
      <point x="364" y="476" type="line"/>
      <point x="319" y="476" type="line"/>
      <point x="312" y="462" type="line"/>
      <point x="105" y="462" type="line"/>
      <point x="68" y="198" type="line"/>
      <point x="87" y="184" type="line"/>
      <point x="116" y="197"/>
      <point x="161" y="208"/>
      <point x="194" y="208" type="curve" smooth="yes"/>
      <point x="261" y="208"/>
      <point x="306" y="175"/>
      <point x="306" y="86" type="curve" smooth="yes"/>
      <point x="306" y="-14"/>
      <point x="221" y="-83"/>
      <point x="114" y="-83" type="curve" smooth="yes"/>
      <point x="101" y="-83"/>
      <point x="84" y="-82"/>
    </contour>
  </outline>
</glyph>
<glyph name="six" format="1">
  <advance width="490"/>
  <unicode hex="0036"/>
  <outline>
    <contour>
      <point x="248" y="-8" type="curve" smooth="yes"/>
      <point x="368" y="-8"/>
      <point x="435" y="90"/>
      <point x="435" y="194" type="curve" smooth="yes"/>
      <point x="435" y="298"/>
      <point x="381" y="365"/>
      <point x="276" y="365" type="curve" smooth="yes"/>
      <point x="213" y="365"/>
      <point x="169" y="337"/>
      <point x="147" y="311" type="curve"/>
      <point x="175" y="417"/>
      <point x="256" y="513"/>
      <point x="378" y="552" type="curve"/>
      <point x="362" y="582" type="line"/>
      <point x="217" y="557"/>
      <point x="58" y="411"/>
      <point x="58" y="216" type="curve" smooth="yes"/>
      <point x="58" y="95"/>
      <point x="123" y="-8"/>
    </contour>
    <contour>
      <point x="257" y="321" type="curve" smooth="yes"/>
      <point x="316" y="321"/>
      <point x="359" y="281"/>
      <point x="359" y="178" type="curve" smooth="yes"/>
      <point x="359" y="107"/>
      <point x="326" y="28"/>
      <point x="252" y="28" type="curve" smooth="yes"/>
      <point x="159" y="28"/>
      <point x="134" y="130"/>
      <point x="136" y="235" type="curve"/>
      <point x="136" y="244"/>
      <point x="137" y="253"/>
      <point x="138" y="262" type="curve"/>
      <point x="151" y="285"/>
      <point x="195" y="321"/>
    </contour>
  </outline>
</glyph>
<glyph name="seven" format="1">
  <advance width="432"/>
  <unicode hex="0037"/>
  <outline>
    <contour>
      <point x="119" y="-106" type="curve"/>
      <point x="196" y="-126" type="line"/>
      <point x="399" y="444" type="line"/>
      <point x="385" y="462" type="line"/>
      <point x="51" y="462" type="line"/>
      <point x="35" y="320" type="line"/>
      <point x="81" y="312" type="line"/>
      <point x="110" y="407" type="line"/>
      <point x="333" y="410" type="line"/>
      <point x="267" y="246"/>
      <point x="194" y="56"/>
    </contour>
  </outline>
</glyph>
<glyph name="eight" format="1">
  <advance width="467"/>
  <unicode hex="0038"/>
  <outline>
    <contour>
      <point x="50" y="135" type="curve" smooth="yes"/>
      <point x="50" y="32"/>
      <point x="148" y="-7"/>
      <point x="233" y="-7" type="curve" smooth="yes"/>
      <point x="330" y="-7"/>
      <point x="421" y="50"/>
      <point x="421" y="142" type="curve" smooth="yes"/>
      <point x="421" y="216"/>
      <point x="362" y="258"/>
      <point x="297" y="294" type="curve"/>
      <point x="359" y="330"/>
      <point x="396" y="384"/>
      <point x="396" y="440" type="curve" smooth="yes"/>
      <point x="396" y="515"/>
      <point x="331" y="563"/>
      <point x="239" y="563" type="curve" smooth="yes"/>
      <point x="155" y="563"/>
      <point x="73" y="515"/>
      <point x="73" y="425" type="curve" smooth="yes"/>
      <point x="73" y="355"/>
      <point x="115" y="314"/>
      <point x="166" y="283" type="curve"/>
      <point x="87" y="247"/>
      <point x="50" y="192"/>
    </contour>
    <contour>
      <point x="348" y="127" type="curve" smooth="yes"/>
      <point x="348" y="68"/>
      <point x="293" y="29"/>
      <point x="239" y="29" type="curve" smooth="yes"/>
      <point x="163" y="29"/>
      <point x="117" y="76"/>
      <point x="117" y="149" type="curve" smooth="yes"/>
      <point x="117" y="199"/>
      <point x="152" y="241"/>
      <point x="197" y="265" type="curve"/>
      <point x="270" y="225"/>
      <point x="348" y="195"/>
    </contour>
    <contour>
      <point x="136" y="441" type="curve" smooth="yes"/>
      <point x="136" y="496"/>
      <point x="181" y="529"/>
      <point x="236" y="529" type="curve" smooth="yes"/>
      <point x="296" y="529"/>
      <point x="336" y="490"/>
      <point x="336" y="422" type="curve" smooth="yes"/>
      <point x="336" y="378"/>
      <point x="307" y="337"/>
      <point x="263" y="313" type="curve"/>
      <point x="197" y="347"/>
      <point x="136" y="382"/>
    </contour>
  </outline>
</glyph>
<glyph name="nine" format="1">
  <advance width="489"/>
  <unicode hex="0039"/>
  <outline>
    <contour>
      <point x="248" y="468" type="curve" smooth="yes"/>
      <point x="128" y="468"/>
      <point x="57" y="376"/>
      <point x="57" y="274" type="curve" smooth="yes"/>
      <point x="57" y="166"/>
      <point x="122" y="96"/>
      <point x="228" y="96" type="curve" smooth="yes"/>
      <point x="280" y="96"/>
      <point x="325" y="123"/>
      <point x="347" y="149" type="curve"/>
      <point x="323" y="41"/>
      <point x="252" y="-52"/>
      <point x="131" y="-92" type="curve"/>
      <point x="147" y="-123" type="line"/>
      <point x="293" y="-97"/>
      <point x="436" y="48"/>
      <point x="436" y="250" type="curve" smooth="yes"/>
      <point x="436" y="370"/>
      <point x="377" y="468"/>
    </contour>
    <contour>
      <point x="239" y="139" type="curve" smooth="yes"/>
      <point x="179" y="139"/>
      <point x="134" y="181"/>
      <point x="134" y="289" type="curve" smooth="yes"/>
      <point x="134" y="356"/>
      <point x="168" y="432"/>
      <point x="243" y="432" type="curve" smooth="yes"/>
      <point x="338" y="432"/>
      <point x="361" y="334"/>
      <point x="358" y="232" type="curve" smooth="yes"/>
      <point x="358" y="221"/>
      <point x="357" y="211"/>
      <point x="355" y="200" type="curve"/>
      <point x="343" y="176"/>
      <point x="299" y="139"/>
    </contour>
  </outline>
</glyph>
<glyph name="colon" format="1">
  <advance width="255"/>
  <unicode hex="003A"/>
  <outline>
    <contour>
      <point x="79" y="345" type="curve" smooth="yes"/>
      <point x="79" y="319"/>
      <point x="99" y="299"/>
      <point x="126" y="299" type="curve" smooth="yes"/>
      <point x="154" y="299"/>
      <point x="175" y="318"/>
      <point x="175" y="345" type="curve" smooth="yes"/>
      <point x="175" y="372"/>
      <point x="155" y="393"/>
      <point x="126" y="393" type="curve" smooth="yes"/>
      <point x="99" y="393"/>
      <point x="79" y="373"/>
    </contour>
    <contour>
      <point x="79" y="39" type="curve" smooth="yes"/>
      <point x="79" y="12"/>
      <point x="99" y="-8"/>
      <point x="126" y="-8" type="curve" smooth="yes"/>
      <point x="154" y="-8"/>
      <point x="175" y="12"/>
      <point x="175" y="38" type="curve" smooth="yes"/>
      <point x="175" y="66"/>
      <point x="155" y="87"/>
      <point x="126" y="87" type="curve" smooth="yes"/>
      <point x="99" y="87"/>
      <point x="79" y="66"/>
    </contour>
  </outline>
</glyph>
<glyph name="semicolon" format="1">
  <advance width="255"/>
  <unicode hex="003B"/>
  <outline>
    <contour>
      <point x="127" y="99" type="curve" smooth="yes"/>
      <point x="103" y="99"/>
      <point x="84" y="84"/>
      <point x="84" y="57" type="curve" smooth="yes"/>
      <point x="84" y="19"/>
      <point x="122" y="19"/>
      <point x="122" y="-36" type="curve" smooth="yes"/>
      <point x="122" y="-81"/>
      <point x="99" y="-108"/>
      <point x="84" y="-121" type="curve"/>
      <point x="84" y="-129" type="line"/>
      <point x="106" y="-146" type="line"/>
      <point x="107" y="-146" type="line"/>
      <point x="141" y="-126"/>
      <point x="181" y="-64"/>
      <point x="181" y="14" type="curve" smooth="yes"/>
      <point x="181" y="67"/>
      <point x="161" y="99"/>
    </contour>
    <contour>
      <point x="80" y="345" type="curve" smooth="yes"/>
      <point x="80" y="319"/>
      <point x="100" y="299"/>
      <point x="128" y="299" type="curve" smooth="yes"/>
      <point x="155" y="299"/>
      <point x="177" y="318"/>
      <point x="177" y="345" type="curve" smooth="yes"/>
      <point x="177" y="372"/>
      <point x="156" y="393"/>
      <point x="128" y="393" type="curve" smooth="yes"/>
      <point x="100" y="393"/>
      <point x="80" y="373"/>
    </contour>
  </outline>
</glyph>
<glyph name="less" format="1">
  <advance width="496"/>
  <unicode hex="003C"/>
  <outline>
    <contour>
      <point x="61" y="202" type="line"/>
      <point x="411" y="20" type="line"/>
      <point x="411" y="82" type="line"/>
      <point x="126" y="223" type="line"/>
      <point x="411" y="364" type="line"/>
      <point x="411" y="426" type="line"/>
      <point x="61" y="243" type="line"/>
    </contour>
  </outline>
</glyph>
<glyph name="equal" format="1">
  <advance width="484"/>
  <unicode hex="003D"/>
  <outline>
    <contour>
      <point x="75" y="95" type="line"/>
      <point x="408" y="95" type="line"/>
      <point x="408" y="147" type="line"/>
      <point x="75" y="147" type="line"/>
    </contour>
    <contour>
      <point x="75" y="299" type="line"/>
      <point x="408" y="299" type="line"/>
      <point x="408" y="350" type="line"/>
      <point x="75" y="350" type="line"/>
    </contour>
  </outline>
</glyph>
<glyph name="greater" format="1">
  <advance width="496"/>
  <unicode hex="003E"/>
  <outline>
    <contour>
      <point x="435" y="202" type="line"/>
      <point x="85" y="20" type="line"/>
      <point x="85" y="82" type="line"/>
      <point x="370" y="223" type="line"/>
      <point x="85" y="364" type="line"/>
      <point x="85" y="426" type="line"/>
      <point x="435" y="243" type="line"/>
    </contour>
  </outline>
</glyph>
<glyph name="question" format="1">
  <advance width="372"/>
  <unicode hex="003F"/>
  <outline>
    <contour>
      <point x="139" y="147" type="curve"/>
      <point x="180" y="158" type="line"/>
      <point x="171" y="188"/>
      <point x="165" y="217"/>
      <point x="165" y="229" type="curve" smooth="yes"/>
      <point x="165" y="290"/>
      <point x="331" y="289"/>
      <point x="331" y="398" type="curve" smooth="yes"/>
      <point x="331" y="462"/>
      <point x="281" y="551"/>
      <point x="173" y="551" type="curve" smooth="yes"/>
      <point x="132" y="551"/>
      <point x="91" y="538"/>
      <point x="63" y="522" type="curve"/>
      <point x="89" y="460" type="line"/>
      <point x="122" y="476"/>
      <point x="159" y="488"/>
      <point x="190" y="488" type="curve" smooth="yes"/>
      <point x="246" y="488"/>
      <point x="282" y="454"/>
      <point x="282" y="416" type="curve" smooth="yes"/>
      <point x="282" y="337"/>
      <point x="106" y="346"/>
      <point x="106" y="252" type="curve" smooth="yes"/>
      <point x="106" y="221"/>
      <point x="123" y="178"/>
    </contour>
    <contour>
      <point x="126" y="39" type="curve" smooth="yes"/>
      <point x="126" y="12"/>
      <point x="146" y="-8"/>
      <point x="173" y="-8" type="curve" smooth="yes"/>
      <point x="201" y="-8"/>
      <point x="222" y="12"/>
      <point x="222" y="38" type="curve" smooth="yes"/>
      <point x="222" y="66"/>
      <point x="202" y="87"/>
      <point x="173" y="87" type="curve" smooth="yes"/>
      <point x="146" y="87"/>
      <point x="126" y="66"/>
    </contour>
  </outline>
</glyph>
<glyph name="at" format="1">
  <advance width="797"/>
  <unicode hex="0040"/>
  <outline>
    <contour>
      <point x="70" y="132" type="curve" smooth="yes"/>
      <point x="70" y="-62"/>
      <point x="168" y="-186"/>
      <point x="345" y="-186" type="curve" smooth="yes"/>
      <point x="416" y="-186"/>
      <point x="483" y="-163"/>
      <point x="520" y="-133" type="curve"/>
      <point x="507" y="-104" type="line"/>
      <point x="478" y="-124"/>
      <point x="410" y="-140"/>
      <point x="357" y="-140" type="curve" smooth="yes"/>
      <point x="224" y="-140"/>
      <point x="123" y="-43"/>
      <point x="123" y="145" type="curve" smooth="yes"/>
      <point x="123" y="372"/>
      <point x="270" y="512"/>
      <point x="433" y="512" type="curve" smooth="yes"/>
      <point x="555" y="512"/>
      <point x="669" y="446"/>
      <point x="669" y="271" type="curve" smooth="yes"/>
      <point x="669" y="130"/>
      <point x="586" y="42"/>
      <point x="534" y="42" type="curve" smooth="yes"/>
      <point x="523" y="42"/>
      <point x="515" y="64"/>
      <point x="519" y="122" type="curve"/>
      <point x="524" y="194"/>
      <point x="547" y="312"/>
      <point x="557" y="361" type="curve"/>
      <point x="543" y="366"/>
      <point x="530" y="372"/>
      <point x="518" y="376" type="curve"/>
      <point x="509" y="377"/>
      <point x="504" y="367"/>
      <point x="501" y="358" type="curve"/>
      <point x="475" y="372"/>
      <point x="440" y="378"/>
      <point x="414" y="378" type="curve" smooth="yes"/>
      <point x="296" y="378"/>
      <point x="225" y="239"/>
      <point x="225" y="136" type="curve" smooth="yes"/>
      <point x="225" y="43"/>
      <point x="277" y="-12"/>
      <point x="326" y="-12" type="curve" smooth="yes"/>
      <point x="384" y="-12"/>
      <point x="439" y="74"/>
      <point x="471" y="160" type="curve"/>
      <point x="461" y="110"/>
      <point x="459" y="76"/>
      <point x="461" y="54" type="curve" smooth="yes"/>
      <point x="463" y="12"/>
      <point x="489" y="-11"/>
      <point x="515" y="-11" type="curve" smooth="yes"/>
      <point x="576" y="-11"/>
      <point x="717" y="90"/>
      <point x="717" y="287" type="curve" smooth="yes"/>
      <point x="717" y="468"/>
      <point x="608" y="558"/>
      <point x="457" y="558" type="curve" smooth="yes"/>
      <point x="255" y="558"/>
      <point x="70" y="388"/>
    </contour>
    <contour>
      <point x="288" y="153" type="curve" smooth="yes"/>
      <point x="288" y="241"/>
      <point x="327" y="332"/>
      <point x="398" y="332" type="curve" smooth="yes"/>
      <point x="422" y="332"/>
      <point x="469" y="319"/>
      <point x="483" y="304" type="curve"/>
      <point x="479" y="278"/>
      <point x="471" y="249"/>
      <point x="461" y="221" type="curve"/>
      <point x="430" y="130"/>
      <point x="377" y="49"/>
      <point x="341" y="49" type="curve" smooth="yes"/>
      <point x="302" y="49"/>
      <point x="288" y="108"/>
    </contour>
  </outline>
</glyph>
<glyph name="B" format="1">
  <advance width="504"/>
  <unicode hex="0042"/>
  <outline>
    <contour>
      <point x="35" y="0" type="line"/>
      <point x="131" y="0" type="line" smooth="yes"/>
      <point x="187" y="0"/>
      <point x="211" y="-4"/>
      <point x="250" y="-4" type="curve" smooth="yes"/>
      <point x="424" y="-4"/>
      <point x="476" y="77"/>
      <point x="476" y="164" type="curve" smooth="yes"/>
      <point x="476" y="244"/>
      <point x="419" y="296"/>
      <point x="326" y="293" type="curve"/>
      <point x="397" y="307"/>
      <point x="437" y="363"/>
      <point x="437" y="432" type="curve" smooth="yes"/>
      <point x="437" y="510"/>
      <point x="387" y="556"/>
      <point x="249" y="556" type="curve" smooth="yes"/>
      <point x="212" y="556"/>
      <point x="178" y="550"/>
      <point x="133" y="550" type="curve" smooth="yes"/>
      <point x="37" y="550" type="line"/>
      <point x="37" y="515" type="line"/>
      <point x="98" y="506" type="line"/>
      <point x="98" y="43" type="line"/>
      <point x="35" y="35" type="line"/>
    </contour>
    <contour>
      <point x="170" y="264" type="line"/>
      <point x="191" y="265"/>
      <point x="242" y="265"/>
      <point x="268" y="265" type="curve" smooth="yes"/>
      <point x="358" y="265"/>
      <point x="396" y="232"/>
      <point x="396" y="154" type="curve" smooth="yes"/>
      <point x="396" y="80"/>
      <point x="356" y="34"/>
      <point x="249" y="34" type="curve" smooth="yes"/>
      <point x="224" y="34"/>
      <point x="188" y="34"/>
      <point x="170" y="40" type="curve"/>
    </contour>
    <contour>
      <point x="170" y="515" type="line"/>
      <point x="184" y="515"/>
      <point x="210" y="519"/>
      <point x="242" y="519" type="curve" smooth="yes"/>
      <point x="334" y="519"/>
      <point x="363" y="485"/>
      <point x="363" y="418" type="curve" smooth="yes"/>
      <point x="363" y="346"/>
      <point x="326" y="307"/>
      <point x="255" y="307" type="curve" smooth="yes"/>
      <point x="236" y="307"/>
      <point x="191" y="306"/>
      <point x="170" y="308" type="curve"/>
    </contour>
  </outline>
</glyph>
<glyph name="C" format="1">
  <advance width="483"/>
  <unicode hex="0043"/>
  <outline>
    <contour>
      <point x="281" y="-8" type="curve" smooth="yes"/>
      <point x="370" y="-8"/>
      <point x="398" y="18"/>
      <point x="437" y="20" type="curve"/>
      <point x="455" y="123" type="line"/>
      <point x="412" y="129" type="line"/>
      <point x="381" y="58" type="line"/>
      <point x="364" y="43"/>
      <point x="340" y="30"/>
      <point x="283" y="30" type="curve" smooth="yes"/>
      <point x="163" y="30"/>
      <point x="109" y="150"/>
      <point x="109" y="284" type="curve" smooth="yes"/>
      <point x="109" y="435"/>
      <point x="182" y="518"/>
      <point x="278" y="518" type="curve" smooth="yes"/>
      <point x="332" y="518"/>
      <point x="367" y="507"/>
      <point x="379" y="495" type="curve"/>
      <point x="397" y="405" type="line"/>
      <point x="444" y="405" type="line"/>
      <point x="450" y="534" type="line"/>
      <point x="424" y="539"/>
      <point x="358" y="556"/>
      <point x="291" y="556" type="curve" smooth="yes"/>
      <point x="141" y="556"/>
      <point x="26" y="445"/>
      <point x="26" y="277" type="curve" smooth="yes"/>
      <point x="26" y="105"/>
      <point x="117" y="-8"/>
    </contour>
  </outline>
</glyph>
<glyph name="E" format="1">
  <advance width="482"/>
  <unicode hex="0045"/>
  <outline>
    <contour>
      <point x="35" y="0" type="line"/>
      <point x="443" y="0" type="line"/>
      <point x="464" y="128" type="line"/>
      <point x="424" y="140" type="line"/>
      <point x="384" y="48" type="line"/>
      <point x="170" y="41" type="line"/>
      <point x="170" y="263" type="line"/>
      <point x="298" y="261" type="line"/>
      <point x="308" y="198" type="line"/>
      <point x="348" y="198" type="line"/>
      <point x="348" y="365" type="line"/>
      <point x="308" y="365" type="line"/>
      <point x="298" y="305" type="line"/>
      <point x="170" y="303" type="line"/>
      <point x="170" y="513" type="line"/>
      <point x="359" y="509" type="line"/>
      <point x="380" y="437" type="line"/>
      <point x="420" y="437" type="line"/>
      <point x="409" y="550" type="line"/>
      <point x="37" y="550" type="line"/>
      <point x="37" y="515" type="line"/>
      <point x="98" y="506" type="line"/>
      <point x="98" y="43" type="line"/>
      <point x="35" y="35" type="line"/>
    </contour>
  </outline>
</glyph>
<glyph name="F" format="1">
  <advance width="458"/>
  <unicode hex="0046"/>
  <outline>
    <contour>
      <point x="38" y="0" type="line"/>
      <point x="286" y="0" type="line"/>
      <point x="286" y="35" type="line"/>
      <point x="170" y="43" type="line"/>
      <point x="170" y="257" type="line"/>
      <point x="309" y="255" type="line"/>
      <point x="322" y="191" type="line"/>
      <point x="360" y="191" type="line"/>
      <point x="360" y="360" type="line"/>
      <point x="322" y="360" type="line"/>
      <point x="309" y="299" type="line"/>
      <point x="170" y="297" type="line"/>
      <point x="170" y="513" type="line"/>
      <point x="367" y="509" type="line"/>
      <point x="388" y="426" type="line"/>
      <point x="434" y="426" type="line"/>
      <point x="427" y="550" type="line"/>
      <point x="34" y="550" type="line"/>
      <point x="34" y="515" type="line"/>
      <point x="98" y="506" type="line"/>
      <point x="98" y="43" type="line"/>
      <point x="38" y="35" type="line"/>
    </contour>
  </outline>
</glyph>
<glyph name="G" format="1">
  <advance width="548"/>
  <unicode hex="0047"/>
  <outline>
    <contour>
      <point x="290" y="-8" type="curve" smooth="yes"/>
      <point x="390" y="-8"/>
      <point x="450" y="28"/>
      <point x="490" y="30" type="curve"/>
      <point x="490" y="228" type="line"/>
      <point x="533" y="236" type="line"/>
      <point x="533" y="278" type="line"/>
      <point x="319" y="278" type="line"/>
      <point x="319" y="236" type="line"/>
      <point x="416" y="228" type="line"/>
      <point x="416" y="62" type="line"/>
      <point x="392" y="43"/>
      <point x="344" y="30"/>
      <point x="296" y="30" type="curve" smooth="yes"/>
      <point x="174" y="30"/>
      <point x="117" y="154"/>
      <point x="117" y="285" type="curve" smooth="yes"/>
      <point x="117" y="439"/>
      <point x="197" y="518"/>
      <point x="307" y="518" type="curve" smooth="yes"/>
      <point x="372" y="518"/>
      <point x="402" y="502"/>
      <point x="412" y="494" type="curve"/>
      <point x="429" y="407" type="line"/>
      <point x="477" y="407" type="line"/>
      <point x="484" y="533" type="line"/>
      <point x="459" y="539"/>
      <point x="390" y="556"/>
      <point x="313" y="556" type="curve" smooth="yes"/>
      <point x="155" y="556"/>
      <point x="34" y="452"/>
      <point x="34" y="267" type="curve" smooth="yes"/>
      <point x="34" y="110"/>
      <point x="128" y="-8"/>
    </contour>
  </outline>
</glyph>
<glyph name="H" format="1">
  <advance width="612"/>
  <unicode hex="0048"/>
  <outline>
    <contour>
      <point x="38" y="0" type="line"/>
      <point x="237" y="0" type="line"/>
      <point x="237" y="35" type="line"/>
      <point x="172" y="43" type="line"/>
      <point x="172" y="260" type="line"/>
      <point x="440" y="260" type="line"/>
      <point x="440" y="43" type="line"/>
      <point x="379" y="35" type="line"/>
      <point x="379" y="0" type="line"/>
      <point x="573" y="0" type="line"/>
      <point x="573" y="35" type="line"/>
      <point x="514" y="43" type="line"/>
      <point x="514" y="506" type="line"/>
      <point x="573" y="515" type="line"/>
      <point x="573" y="550" type="line"/>
      <point x="380" y="550" type="line"/>
      <point x="380" y="515" type="line"/>
      <point x="440" y="506" type="line"/>
      <point x="440" y="304" type="line"/>
      <point x="172" y="304" type="line"/>
      <point x="172" y="506" type="line"/>
      <point x="236" y="515" type="line"/>
      <point x="236" y="550" type="line"/>
      <point x="40" y="550" type="line"/>
      <point x="40" y="515" type="line"/>
      <point x="99" y="506" type="line"/>
      <point x="99" y="43" type="line"/>
      <point x="38" y="35" type="line"/>
    </contour>
  </outline>
</glyph>
<glyph name="I" format="1">
  <advance width="297"/>
  <unicode hex="0049"/>
  <outline>
    <contour>
      <point x="42" y="0" type="line"/>
      <point x="255" y="0" type="line"/>
      <point x="255" y="34" type="line"/>
      <point x="186" y="43" type="line"/>
      <point x="186" y="506" type="line"/>
      <point x="255" y="515" type="line"/>
      <point x="255" y="550" type="line"/>
      <point x="42" y="550" type="line"/>
      <point x="42" y="515" type="line"/>
      <point x="111" y="506" type="line"/>
      <point x="111" y="43" type="line"/>
      <point x="42" y="35" type="line"/>
    </contour>
  </outline>
</glyph>
<glyph name="J" format="1">
  <advance width="281"/>
  <unicode hex="004A"/>
  <outline>
    <contour>
      <point x="15" y="-131" type="line"/>
      <point x="86" y="-118"/>
      <point x="157" y="-69"/>
      <point x="174" y="16" type="curve"/>
      <point x="183" y="59"/>
      <point x="182" y="121"/>
      <point x="182" y="204" type="curve" smooth="yes"/>
      <point x="182" y="506" type="line"/>
      <point x="251" y="515" type="line"/>
      <point x="251" y="550" type="line"/>
      <point x="37" y="550" type="line"/>
      <point x="37" y="515" type="line"/>
      <point x="109" y="506" type="line"/>
      <point x="109" y="180" type="line" smooth="yes"/>
      <point x="109" y="75"/>
      <point x="106" y="35"/>
      <point x="94" y="-6" type="curve"/>
      <point x="78" y="-56"/>
      <point x="38" y="-90"/>
      <point x="-3" y="-101" type="curve"/>
    </contour>
  </outline>
</glyph>
<glyph name="K" format="1">
  <advance width="535"/>
  <unicode hex="004B"/>
  <outline>
    <contour>
      <point x="534" y="0" type="line"/>
      <point x="534" y="34" type="line"/>
      <point x="500" y="43" type="line"/>
      <point x="470" y="49"/>
      <point x="365" y="260"/>
      <point x="292" y="323" type="curve"/>
      <point x="455" y="506" type="line"/>
      <point x="510" y="515" type="line"/>
      <point x="510" y="550" type="line"/>
      <point x="332" y="550" type="line"/>
      <point x="332" y="515" type="line"/>
      <point x="394" y="506" type="line"/>
      <point x="173" y="244" type="line"/>
      <point x="173" y="506" type="line"/>
      <point x="234" y="515" type="line"/>
      <point x="234" y="550" type="line"/>
      <point x="38" y="550" type="line"/>
      <point x="38" y="515" type="line"/>
      <point x="99" y="506" type="line"/>
      <point x="99" y="43" type="line"/>
      <point x="37" y="35" type="line"/>
      <point x="37" y="0" type="line"/>
      <point x="240" y="0" type="line"/>
      <point x="240" y="34" type="line"/>
      <point x="173" y="43" type="line"/>
      <point x="173" y="187" type="line"/>
      <point x="249" y="274" type="line"/>
      <point x="314" y="204"/>
      <point x="398" y="0"/>
      <point x="434" y="0" type="curve" smooth="yes"/>
    </contour>
  </outline>
</glyph>
<glyph name="L" format="1">
  <advance width="468"/>
  <unicode hex="004C"/>
  <outline>
    <contour>
      <point x="37" y="0" type="line"/>
      <point x="428" y="0" type="line"/>
      <point x="455" y="162" type="line"/>
      <point x="412" y="169" type="line"/>
      <point x="370" y="48" type="line"/>
      <point x="173" y="43" type="line"/>
      <point x="173" y="506" type="line"/>
      <point x="246" y="515" type="line"/>
      <point x="246" y="550" type="line"/>
      <point x="39" y="550" type="line"/>
      <point x="39" y="515" type="line"/>
      <point x="99" y="506" type="line"/>
      <point x="99" y="43" type="line"/>
      <point x="37" y="35" type="line"/>
    </contour>
  </outline>
</glyph>
<glyph name="M" format="1">
  <advance width="737"/>
  <unicode hex="004D"/>
  <outline>
    <contour>
      <point x="1" y="0" type="line"/>
      <point x="193" y="0" type="line"/>
      <point x="193" y="35" type="line"/>
      <point x="120" y="43" type="line"/>
      <point x="151" y="376" type="line"/>
      <point x="165" y="521" type="line"/>
      <point x="209" y="381" type="line"/>
      <point x="344" y="26" type="line"/>
      <point x="382" y="26" type="line"/>
      <point x="500" y="419" type="line"/>
      <point x="528" y="521" type="line"/>
      <point x="546" y="376" type="line"/>
      <point x="597" y="43" type="line"/>
      <point x="529" y="35" type="line"/>
      <point x="529" y="0" type="line"/>
      <point x="737" y="0" type="line"/>
      <point x="737" y="35" type="line"/>
      <point x="672" y="43" type="line"/>
      <point x="595" y="506" type="line"/>
      <point x="679" y="515" type="line"/>
      <point x="679" y="550" type="line"/>
      <point x="493" y="550" type="line"/>
      <point x="392" y="212" type="line"/>
      <point x="371" y="119" type="line"/>
      <point x="346" y="212" type="line"/>
      <point x="227" y="550" type="line"/>
      <point x="41" y="550" type="line"/>
      <point x="41" y="515" type="line"/>
      <point x="121" y="506" type="line"/>
      <point x="65" y="43" type="line"/>
      <point x="1" y="35" type="line"/>
    </contour>
  </outline>
</glyph>
<glyph name="N" format="1">
  <advance width="591"/>
  <unicode hex="004E"/>
  <outline>
    <contour>
      <point x="38" y="0" type="line"/>
      <point x="215" y="0" type="line"/>
      <point x="215" y="35" type="line"/>
      <point x="146" y="43" type="line"/>
      <point x="146" y="472" type="line"/>
      <point x="204" y="373" type="line"/>
      <point x="461" y="0" type="line"/>
      <point x="512" y="0" type="line"/>
      <point x="512" y="506" type="line"/>
      <point x="572" y="515" type="line"/>
      <point x="572" y="550" type="line"/>
      <point x="399" y="550" type="line"/>
      <point x="399" y="515" type="line"/>
      <point x="463" y="506" type="line"/>
      <point x="463" y="106" type="line"/>
      <point x="422" y="182" type="line"/>
      <point x="170" y="550" type="line"/>
      <point x="38" y="550" type="line"/>
      <point x="38" y="515" type="line"/>
      <point x="98" y="506" type="line"/>
      <point x="98" y="43" type="line"/>
      <point x="38" y="35" type="line"/>
    </contour>
  </outline>
</glyph>
<glyph name="P" format="1">
  <advance width="479"/>
  <unicode hex="0050"/>
  <outline>
    <contour>
      <point x="37" y="0" type="line"/>
      <point x="274" y="0" type="line"/>
      <point x="274" y="35" type="line"/>
      <point x="173" y="43" type="line"/>
      <point x="173" y="209" type="line"/>
      <point x="179" y="208"/>
      <point x="218" y="206"/>
      <point x="245" y="206" type="curve" smooth="yes"/>
      <point x="367" y="206"/>
      <point x="459" y="277"/>
      <point x="459" y="398" type="curve" smooth="yes"/>
      <point x="459" y="498"/>
      <point x="412" y="556"/>
      <point x="263" y="556" type="curve" smooth="yes"/>
      <point x="201" y="556"/>
      <point x="181" y="550"/>
      <point x="135" y="550" type="curve" smooth="yes"/>
      <point x="41" y="550" type="line"/>
      <point x="41" y="515" type="line"/>
      <point x="99" y="506" type="line"/>
      <point x="99" y="43" type="line"/>
      <point x="37" y="35" type="line"/>
    </contour>
    <contour>
      <point x="172" y="249" type="curve"/>
      <point x="172" y="513" type="line"/>
      <point x="191" y="513"/>
      <point x="212" y="517"/>
      <point x="246" y="517" type="curve" smooth="yes"/>
      <point x="337" y="517"/>
      <point x="382" y="485"/>
      <point x="382" y="398" type="curve" smooth="yes"/>
      <point x="382" y="281"/>
      <point x="317" y="246"/>
      <point x="246" y="246" type="curve" smooth="yes"/>
      <point x="211" y="246"/>
      <point x="186" y="246"/>
    </contour>
  </outline>
</glyph>
<glyph name="Q" format="1">
  <advance width="538"/>
  <unicode hex="0051"/>
  <outline>
    <contour>
      <point x="264" y="-8" type="curve" smooth="yes"/>
      <point x="281" y="-8"/>
      <point x="298" y="-6"/>
      <point x="313" y="-2" type="curve"/>
      <point x="406" y="-22"/>
      <point x="476" y="-148"/>
      <point x="600" y="-148" type="curve" smooth="yes"/>
      <point x="604" y="-148" type="line" smooth="yes"/>
      <point x="638" y="-148"/>
      <point x="661" y="-129"/>
      <point x="669" y="-122" type="curve"/>
      <point x="660" y="-90" type="line"/>
      <point x="655" y="-91"/>
      <point x="649" y="-92"/>
      <point x="640" y="-92" type="curve" smooth="yes"/>
      <point x="639" y="-92" type="line" smooth="yes"/>
      <point x="549" y="-92"/>
      <point x="466" y="5"/>
      <point x="363" y="14" type="curve"/>
      <point x="451" y="56"/>
      <point x="511" y="150"/>
      <point x="511" y="281" type="curve" smooth="yes"/>
      <point x="511" y="448"/>
      <point x="430" y="556"/>
      <point x="276" y="556" type="curve" smooth="yes"/>
      <point x="136" y="556"/>
      <point x="28" y="446"/>
      <point x="28" y="271" type="curve" smooth="yes"/>
      <point x="28" y="104"/>
      <point x="110" y="-11"/>
    </contour>
    <contour>
      <point x="270" y="518" type="curve" smooth="yes"/>
      <point x="372" y="518"/>
      <point x="429" y="426"/>
      <point x="429" y="281" type="curve" smooth="yes"/>
      <point x="429" y="114"/>
      <point x="365" y="30"/>
      <point x="268" y="30" type="curve" smooth="yes"/>
      <point x="167" y="30"/>
      <point x="109" y="127"/>
      <point x="109" y="272" type="curve" smooth="yes"/>
      <point x="109" y="438"/>
      <point x="174" y="518"/>
    </contour>
  </outline>
</glyph>
<glyph name="T" format="1">
  <advance width="508"/>
  <unicode hex="0054"/>
  <outline>
    <contour>
      <point x="119" y="0" type="line"/>
      <point x="396" y="0" type="line"/>
      <point x="396" y="35" type="line"/>
      <point x="291" y="43" type="line"/>
      <point x="291" y="513" type="line"/>
      <point x="423" y="509" type="line"/>
      <point x="446" y="356" type="line"/>
      <point x="491" y="356" type="line"/>
      <point x="482" y="550" type="line"/>
      <point x="25" y="550" type="line"/>
      <point x="13" y="356" type="line"/>
      <point x="59" y="356" type="line"/>
      <point x="85" y="509" type="line"/>
      <point x="216" y="513" type="line"/>
      <point x="216" y="43" type="line"/>
      <point x="119" y="35" type="line"/>
    </contour>
  </outline>
</glyph>
<glyph name="V" format="1">
  <advance width="494"/>
  <unicode hex="0056"/>
  <outline>
    <contour>
      <point x="226" y="-6" type="line"/>
      <point x="285" y="-6" type="line"/>
      <point x="459" y="506" type="line"/>
      <point x="507" y="515" type="line"/>
      <point x="507" y="550" type="line"/>
      <point x="345" y="550" type="line"/>
      <point x="345" y="515" type="line"/>
      <point x="403" y="506" type="line"/>
      <point x="292" y="157" type="line"/>
      <point x="267" y="62" type="line"/>
      <point x="239" y="155" type="line"/>
      <point x="114" y="506" type="line"/>
      <point x="180" y="515" type="line"/>
      <point x="180" y="550" type="line"/>
      <point x="-11" y="550" type="line"/>
      <point x="-11" y="515" type="line"/>
      <point x="34" y="506" type="line"/>
    </contour>
  </outline>
</glyph>
<glyph name="X" format="1">
  <advance width="526"/>
  <unicode hex="0058"/>
  <outline>
    <contour>
      <point x="5" y="0" type="line"/>
      <point x="202" y="0" type="line"/>
      <point x="202" y="35" type="line"/>
      <point x="128" y="43" type="line"/>
      <point x="250" y="248" type="line"/>
      <point x="379" y="43" type="line"/>
      <point x="310" y="35" type="line"/>
      <point x="310" y="0" type="line"/>
      <point x="525" y="0" type="line"/>
      <point x="525" y="35" type="line"/>
      <point x="468" y="43" type="line"/>
      <point x="301" y="288" type="line"/>
      <point x="454" y="506" type="line"/>
      <point x="512" y="515" type="line"/>
      <point x="512" y="550" type="line"/>
      <point x="331" y="550" type="line"/>
      <point x="331" y="515" type="line"/>
      <point x="397" y="506" type="line"/>
      <point x="279" y="315" type="line"/>
      <point x="161" y="506" type="line"/>
      <point x="233" y="515" type="line"/>
      <point x="233" y="550" type="line"/>
      <point x="17" y="550" type="line"/>
      <point x="17" y="515" type="line"/>
      <point x="73" y="506" type="line"/>
      <point x="227" y="277" type="line"/>
      <point x="69" y="43" type="line"/>
      <point x="5" y="35" type="line"/>
    </contour>
  </outline>
</glyph>
<glyph name="Y" format="1">
  <advance width="477"/>
  <unicode hex="0059"/>
  <outline>
    <contour>
      <point x="124" y="0" type="line"/>
      <point x="364" y="0" type="line"/>
      <point x="364" y="35" type="line"/>
      <point x="281" y="43" type="line"/>
      <point x="281" y="214" type="line"/>
      <point x="438" y="506" type="line"/>
      <point x="485" y="515" type="line"/>
      <point x="485" y="550" type="line"/>
      <point x="320" y="550" type="line"/>
      <point x="320" y="515" type="line"/>
      <point x="380" y="506" type="line"/>
      <point x="279" y="304" type="line"/>
      <point x="252" y="246" type="line"/>
      <point x="227" y="304" type="line"/>
      <point x="120" y="506" type="line"/>
      <point x="180" y="515" type="line"/>
      <point x="180" y="550" type="line"/>
      <point x="-8" y="550" type="line"/>
      <point x="-8" y="515" type="line"/>
      <point x="37" y="506" type="line"/>
      <point x="205" y="214" type="line"/>
      <point x="205" y="43" type="line"/>
      <point x="124" y="35" type="line"/>
    </contour>
  </outline>
</glyph>
<glyph name="bracketleft" format="1">
  <advance width="316"/>
  <unicode hex="005B"/>
  <outline>
    <contour>
      <point x="71" y="-30" type="line"/>
      <point x="71" y="-91"/>
      <point x="90" y="-101"/>
      <point x="138" y="-101" type="curve" smooth="yes"/>
      <point x="178" y="-101"/>
      <point x="217" y="-96"/>
      <point x="248" y="-88" type="curve"/>
      <point x="248" y="-58" type="line"/>
      <point x="135" y="-58" type="line"/>
      <point x="135" y="553" type="line"/>
      <point x="248" y="553" type="line"/>
      <point x="248" y="582" type="line"/>
      <point x="219" y="589"/>
      <point x="180" y="596"/>
      <point x="138" y="596" type="curve" smooth="yes"/>
      <point x="90" y="596"/>
      <point x="71" y="585"/>
      <point x="71" y="524" type="curve" smooth="yes"/>
    </contour>
  </outline>
</glyph>
<glyph name="backslash" format="1">
  <advance width="319"/>
  <unicode hex="005C"/>
  <outline>
    <contour>
      <point x="288" y="-131" type="line"/>
      <point x="227" y="-131" type="line"/>
      <point x="24" y="579" type="line"/>
      <point x="84" y="579" type="line"/>
    </contour>
  </outline>
</glyph>
<glyph name="bracketright" format="1">
  <advance width="316"/>
  <unicode hex="005D"/>
  <outline>
    <contour>
      <point x="245" y="-30" type="line"/>
      <point x="245" y="-91"/>
      <point x="226" y="-101"/>
      <point x="178" y="-101" type="curve" smooth="yes"/>
      <point x="138" y="-101"/>
      <point x="99" y="-96"/>
      <point x="68" y="-88" type="curve"/>
      <point x="68" y="-58" type="line"/>
      <point x="181" y="-58" type="line"/>
      <point x="181" y="553" type="line"/>
      <point x="68" y="553" type="line"/>
      <point x="68" y="582" type="line"/>
      <point x="97" y="589"/>
      <point x="136" y="596"/>
      <point x="178" y="596" type="curve" smooth="yes"/>
      <point x="226" y="596"/>
      <point x="245" y="585"/>
      <point x="245" y="524" type="curve" smooth="yes"/>
    </contour>
  </outline>
</glyph>
<glyph name="asciicircum" format="1">
  <advance width="493"/>
  <unicode hex="005E"/>
  <outline>
    <contour>
      <point x="65" y="99" type="line"/>
      <point x="123" y="99" type="line"/>
      <point x="246" y="479" type="line"/>
      <point x="370" y="99" type="line"/>
      <point x="427" y="99" type="line"/>
      <point x="278" y="554" type="line"/>
      <point x="214" y="554" type="line"/>
    </contour>
  </outline>
</glyph>
<glyph name="grave" format="1">
  <advance width="247"/>
  <unicode hex="0060"/>
  <outline>
    <contour>
      <point x="140" y="485" type="curve"/>
      <point x="141" y="485" type="line"/>
      <point x="166" y="508" type="line"/>
      <point x="49" y="653" type="line"/>
      <point x="48" y="653" type="line"/>
      <point x="-3" y="608" type="line"/>
      <point x="17" y="577"/>
      <point x="110" y="497"/>
    </contour>
  </outline>
</glyph>
<glyph name="a" format="1">
  <advance width="414"/>
  <unicode hex="0061"/>
  <outline>
    <contour>
      <point x="35" y="110" type="curve" smooth="yes"/>
      <point x="35" y="28"/>
      <point x="93" y="-8"/>
      <point x="158" y="-8" type="curve" smooth="yes"/>
      <point x="220" y="-8"/>
      <point x="268" y="33"/>
      <point x="286" y="50" type="curve"/>
      <point x="286" y="26" type="line" smooth="yes"/>
      <point x="286" y="-3"/>
      <point x="296" y="-7"/>
      <point x="320" y="-7" type="curve" smooth="yes"/>
      <point x="344" y="-7"/>
      <point x="378" y="0"/>
      <point x="395" y="4" type="curve"/>
      <point x="395" y="35" type="line"/>
      <point x="350" y="35" type="line"/>
      <point x="350" y="275" type="line" smooth="yes"/>
      <point x="350" y="380"/>
      <point x="315" y="419"/>
      <point x="211" y="419" type="curve" smooth="yes"/>
      <point x="140" y="419"/>
      <point x="62" y="377"/>
      <point x="47" y="364" type="curve"/>
      <point x="66" y="328" type="line"/>
      <point x="90" y="341"/>
      <point x="138" y="366"/>
      <point x="195" y="366" type="curve" smooth="yes"/>
      <point x="263" y="366"/>
      <point x="281" y="338"/>
      <point x="281" y="270" type="curve" smooth="yes"/>
      <point x="281" y="248" type="line"/>
      <point x="154" y="246"/>
      <point x="35" y="211"/>
    </contour>
    <contour>
      <point x="188" y="41" type="curve" smooth="yes"/>
      <point x="145" y="41"/>
      <point x="113" y="62"/>
      <point x="113" y="119" type="curve" smooth="yes"/>
      <point x="113" y="171"/>
      <point x="165" y="210"/>
      <point x="281" y="210" type="curve"/>
      <point x="281" y="81" type="line"/>
      <point x="254" y="60"/>
      <point x="214" y="41"/>
    </contour>
  </outline>
</glyph>
<glyph name="b" format="1">
  <advance width="447"/>
  <unicode hex="0062"/>
  <outline>
    <contour>
      <point x="59" y="20" type="line"/>
      <point x="69" y="11"/>
      <point x="130" y="-8"/>
      <point x="202" y="-8" type="curve" smooth="yes"/>
      <point x="334" y="-8"/>
      <point x="415" y="93"/>
      <point x="415" y="221" type="curve" smooth="yes"/>
      <point x="415" y="363"/>
      <point x="337" y="422"/>
      <point x="254" y="422" type="curve" smooth="yes"/>
      <point x="198" y="422"/>
      <point x="156" y="397"/>
      <point x="131" y="372" type="curve"/>
      <point x="131" y="595" type="line"/>
      <point x="115" y="607" type="line"/>
      <point x="113" y="607" type="line"/>
      <point x="-2" y="593" type="line"/>
      <point x="-2" y="563" type="line"/>
      <point x="59" y="556" type="line"/>
    </contour>
    <contour>
      <point x="225" y="372" type="curve" smooth="yes"/>
      <point x="288" y="372"/>
      <point x="340" y="324"/>
      <point x="338" y="209" type="curve" smooth="yes"/>
      <point x="336" y="88"/>
      <point x="282" y="32"/>
      <point x="207" y="32" type="curve" smooth="yes"/>
      <point x="172" y="32"/>
      <point x="138" y="40"/>
      <point x="131" y="56" type="curve"/>
      <point x="131" y="329" type="line"/>
      <point x="147" y="346"/>
      <point x="182" y="372"/>
    </contour>
  </outline>
</glyph>
<glyph name="c" format="1">
  <advance width="378"/>
  <unicode hex="0063"/>
  <outline>
    <contour>
      <point x="25" y="201" type="curve" smooth="yes"/>
      <point x="26" y="83"/>
      <point x="88" y="-8"/>
      <point x="211" y="-8" type="curve" smooth="yes"/>
      <point x="266" y="-8"/>
      <point x="322" y="19"/>
      <point x="348" y="45" type="curve"/>
      <point x="334" y="74" type="line"/>
      <point x="312" y="58"/>
      <point x="272" y="41"/>
      <point x="227" y="41" type="curve" smooth="yes"/>
      <point x="156" y="41"/>
      <point x="101" y="99"/>
      <point x="102" y="225" type="curve" smooth="yes"/>
      <point x="103" y="327"/>
      <point x="148" y="384"/>
      <point x="218" y="384" type="curve" smooth="yes"/>
      <point x="246" y="384"/>
      <point x="273" y="379"/>
      <point x="277" y="362" type="curve" smooth="yes"/>
      <point x="293" y="290" type="line"/>
      <point x="337" y="290" type="line"/>
      <point x="341" y="400" type="line"/>
      <point x="321" y="407"/>
      <point x="280" y="422"/>
      <point x="233" y="422" type="curve" smooth="yes"/>
      <point x="96" y="422"/>
      <point x="25" y="321"/>
    </contour>
  </outline>
</glyph>
<glyph name="d" format="1">
  <advance width="459"/>
  <unicode hex="0064"/>
  <outline>
    <contour>
      <point x="194" y="-8" type="curve" smooth="yes"/>
      <point x="252" y="-8"/>
      <point x="297" y="21"/>
      <point x="322" y="50" type="curve"/>
      <point x="322" y="27" type="line" smooth="yes"/>
      <point x="322" y="-4"/>
      <point x="334" y="-7"/>
      <point x="357" y="-7" type="curve" smooth="yes"/>
      <point x="386" y="-7"/>
      <point x="413" y="0"/>
      <point x="432" y="4" type="curve"/>
      <point x="432" y="36" type="line"/>
      <point x="389" y="36" type="line"/>
      <point x="389" y="595" type="line"/>
      <point x="373" y="607" type="line"/>
      <point x="371" y="607" type="line"/>
      <point x="242" y="594" type="line"/>
      <point x="242" y="563" type="line"/>
      <point x="318" y="555" type="line"/>
      <point x="318" y="414" type="line"/>
      <point x="296" y="419"/>
      <point x="271" y="422"/>
      <point x="245" y="422" type="curve" smooth="yes"/>
      <point x="112" y="422"/>
      <point x="32" y="321"/>
      <point x="32" y="196" type="curve" smooth="yes"/>
      <point x="32" y="55"/>
      <point x="109" y="-8"/>
    </contour>
    <contour>
      <point x="223" y="43" type="curve" smooth="yes"/>
      <point x="161" y="43"/>
      <point x="108" y="89"/>
      <point x="109" y="207" type="curve"/>
      <point x="111" y="332"/>
      <point x="167" y="382"/>
      <point x="240" y="382" type="curve" smooth="yes"/>
      <point x="275" y="382"/>
      <point x="310" y="371"/>
      <point x="318" y="359" type="curve"/>
      <point x="318" y="87" type="line"/>
      <point x="302" y="67"/>
      <point x="265" y="43"/>
    </contour>
  </outline>
</glyph>
<glyph name="e" format="1">
  <advance width="402"/>
  <unicode hex="0065"/>
  <outline>
    <contour>
      <point x="215" y="-8" type="curve" smooth="yes"/>
      <point x="274" y="-8"/>
      <point x="335" y="18"/>
      <point x="363" y="45" type="curve"/>
      <point x="349" y="77" type="line"/>
      <point x="327" y="58"/>
      <point x="279" y="40"/>
      <point x="237" y="40" type="curve" smooth="yes"/>
      <point x="154" y="40"/>
      <point x="110" y="109"/>
      <point x="108" y="207" type="curve"/>
      <point x="366" y="207" type="line"/>
      <point x="370" y="225"/>
      <point x="371" y="245"/>
      <point x="371" y="275" type="curve"/>
      <point x="367" y="370"/>
      <point x="315" y="422"/>
      <point x="224" y="422" type="curve" smooth="yes"/>
      <point x="114" y="422"/>
      <point x="33" y="336"/>
      <point x="33" y="207" type="curve" smooth="yes"/>
      <point x="33" y="81"/>
      <point x="93" y="-8"/>
    </contour>
    <contour>
      <point x="211" y="381" type="curve" smooth="yes"/>
      <point x="272" y="381"/>
      <point x="295" y="338"/>
      <point x="296" y="278" type="curve" smooth="yes"/>
      <point x="296" y="267"/>
      <point x="295" y="255"/>
      <point x="294" y="245" type="curve"/>
      <point x="108" y="245" type="line"/>
      <point x="114" y="348"/>
      <point x="155" y="381"/>
    </contour>
  </outline>
</glyph>
<glyph name="f" format="1">
  <advance width="296"/>
  <unicode hex="0066"/>
  <outline>
    <contour>
      <point x="32" y="0" type="line"/>
      <point x="248" y="0" type="line"/>
      <point x="248" y="35" type="line"/>
      <point x="166" y="41" type="line"/>
      <point x="166" y="364" type="line"/>
      <point x="270" y="364" type="line"/>
      <point x="270" y="410" type="line"/>
      <point x="166" y="410" type="line"/>
      <point x="166" y="469" type="line" smooth="yes"/>
      <point x="166" y="531"/>
      <point x="187" y="552"/>
      <point x="236" y="552" type="curve" smooth="yes"/>
      <point x="269" y="552"/>
      <point x="297" y="542"/>
      <point x="304" y="536" type="curve"/>
      <point x="304" y="606" type="line"/>
      <point x="295" y="608"/>
      <point x="284" y="612"/>
      <point x="261" y="612" type="curve" smooth="yes"/>
      <point x="177" y="612"/>
      <point x="95" y="539"/>
      <point x="95" y="446" type="curve" smooth="yes"/>
      <point x="95" y="410" type="line"/>
      <point x="23" y="396" type="line"/>
      <point x="23" y="364" type="line"/>
      <point x="95" y="364" type="line"/>
      <point x="95" y="42" type="line"/>
      <point x="32" y="35" type="line"/>
    </contour>
  </outline>
</glyph>
<glyph name="g" format="1">
  <advance width="447"/>
  <unicode hex="0067"/>
  <outline>
    <contour>
      <point x="376" y="295" type="curve" smooth="yes"/>
      <point x="376" y="321"/>
      <point x="369" y="343"/>
      <point x="358" y="360" type="curve"/>
      <point x="439" y="360" type="line"/>
      <point x="439" y="422" type="line"/>
      <point x="416" y="422" type="line" smooth="yes"/>
      <point x="376" y="422"/>
      <point x="343" y="401"/>
      <point x="332" y="391" type="curve"/>
      <point x="304" y="412"/>
      <point x="264" y="422"/>
      <point x="217" y="422" type="curve"/>
      <point x="131" y="422"/>
      <point x="48" y="371"/>
      <point x="48" y="281" type="curve" smooth="yes"/>
      <point x="48" y="226"/>
      <point x="75" y="185"/>
      <point x="123" y="163" type="curve"/>
      <point x="91" y="147"/>
      <point x="66" y="113"/>
      <point x="66" y="76" type="curve" smooth="yes"/>
      <point x="66" y="46"/>
      <point x="79" y="27"/>
      <point x="101" y="15" type="curve"/>
      <point x="67" y="-3"/>
      <point x="32" y="-41"/>
      <point x="32" y="-88" type="curve" smooth="yes"/>
      <point x="32" y="-153"/>
      <point x="79" y="-200"/>
      <point x="211" y="-200" type="curve"/>
      <point x="212" y="-200" type="line"/>
      <point x="331" y="-200"/>
      <point x="431" y="-131"/>
      <point x="431" y="-48" type="curve" smooth="yes"/>
      <point x="431" y="18"/>
      <point x="389" y="57"/>
      <point x="292" y="57" type="curve" smooth="yes"/>
      <point x="208" y="57" type="line" smooth="yes"/>
      <point x="149" y="57"/>
      <point x="126" y="67"/>
      <point x="126" y="104" type="curve" smooth="yes"/>
      <point x="126" y="121"/>
      <point x="136" y="140"/>
      <point x="151" y="153" type="curve"/>
      <point x="168" y="149"/>
      <point x="188" y="146"/>
      <point x="208" y="146" type="curve"/>
      <point x="303" y="146"/>
      <point x="376" y="206"/>
    </contour>
    <contour>
      <point x="185" y="-1" type="curve"/>
      <point x="272" y="-1" type="line" smooth="yes"/>
      <point x="347" y="-1"/>
      <point x="362" y="-24"/>
      <point x="362" y="-66" type="curve" smooth="yes"/>
      <point x="362" y="-125"/>
      <point x="289" y="-158"/>
      <point x="217" y="-158" type="curve" smooth="yes"/>
      <point x="217" y="-158" type="line" smooth="yes"/>
      <point x="130" y="-158"/>
      <point x="103" y="-126"/>
      <point x="103" y="-73" type="curve" smooth="yes"/>
      <point x="103" y="-40"/>
      <point x="117" y="-15"/>
      <point x="134" y="3" type="curve"/>
      <point x="149" y="0"/>
      <point x="166" y="-1"/>
    </contour>
    <contour>
      <point x="302" y="286" type="curve" smooth="yes"/>
      <point x="302" y="222"/>
      <point x="276" y="186"/>
      <point x="215" y="186" type="curve"/>
      <point x="148" y="186"/>
      <point x="122" y="230"/>
      <point x="122" y="289" type="curve" smooth="yes"/>
      <point x="122" y="360"/>
      <point x="160" y="384"/>
      <point x="212" y="384" type="curve"/>
      <point x="271" y="384"/>
      <point x="302" y="354"/>
    </contour>
  </outline>
</glyph>
<glyph name="h" format="1">
  <advance width="487"/>
  <unicode hex="0068"/>
  <outline>
    <contour>
      <point x="30" y="0" type="line"/>
      <point x="198" y="0" type="line"/>
      <point x="198" y="35" type="line"/>
      <point x="147" y="42" type="line"/>
      <point x="147" y="325" type="line"/>
      <point x="175" y="348"/>
      <point x="221" y="370"/>
      <point x="261" y="370" type="curve" smooth="yes"/>
      <point x="330" y="370"/>
      <point x="340" y="332"/>
      <point x="340" y="249" type="curve" smooth="yes"/>
      <point x="340" y="42" type="line"/>
      <point x="291" y="35" type="line"/>
      <point x="291" y="0" type="line"/>
      <point x="465" y="0" type="line"/>
      <point x="465" y="35" type="line"/>
      <point x="412" y="42" type="line"/>
      <point x="412" y="249" type="line" smooth="yes"/>
      <point x="412" y="369"/>
      <point x="387" y="421"/>
      <point x="293" y="421" type="curve" smooth="yes"/>
      <point x="231" y="421"/>
      <point x="169" y="382"/>
      <point x="143" y="360" type="curve"/>
      <point x="146" y="423" type="line"/>
      <point x="146" y="596" type="line"/>
      <point x="130" y="607" type="line"/>
      <point x="128" y="607" type="line"/>
      <point x="11" y="593" type="line"/>
      <point x="11" y="563" type="line"/>
      <point x="75" y="555" type="line"/>
      <point x="75" y="41" type="line"/>
      <point x="30" y="35" type="line"/>
    </contour>
  </outline>
</glyph>
<glyph name="i" format="1">
  <advance width="244"/>
  <unicode hex="0069"/>
  <outline>
    <contour>
      <point x="30" y="0" type="line"/>
      <point x="225" y="0" type="line"/>
      <point x="225" y="35" type="line"/>
      <point x="164" y="41" type="line"/>
      <point x="164" y="408" type="line"/>
      <point x="147" y="420" type="line"/>
      <point x="146" y="420" type="line"/>
      <point x="37" y="407" type="line"/>
      <point x="37" y="370" type="line"/>
      <point x="92" y="356" type="line"/>
      <point x="92" y="42" type="line"/>
      <point x="30" y="35" type="line"/>
    </contour>
    <contour>
      <point x="117" y="493" type="curve"/>
      <point x="152" y="493"/>
      <point x="168" y="517"/>
      <point x="168" y="546" type="curve" smooth="yes"/>
      <point x="168" y="569"/>
      <point x="152" y="592"/>
      <point x="124" y="592" type="curve"/>
      <point x="92" y="592"/>
      <point x="75" y="566"/>
      <point x="75" y="539" type="curve" smooth="yes"/>
      <point x="75" y="514"/>
      <point x="92" y="493"/>
    </contour>
  </outline>
</glyph>
<glyph name="j" format="1">
  <advance width="224"/>
  <unicode hex="006A"/>
  <outline>
    <contour>
      <point x="89" y="21" type="line"/>
      <point x="89" y="-59"/>
      <point x="77" y="-121"/>
      <point x="34" y="-135" type="curve" smooth="yes"/>
      <point x="17" y="-142"/>
      <point x="0" y="-144"/>
      <point x="-7" y="-144" type="curve"/>
      <point x="-3" y="-177" type="line"/>
      <point x="1" y="-180"/>
      <point x="31" y="-181"/>
      <point x="39" y="-180" type="curve" smooth="yes"/>
      <point x="107" y="-174"/>
      <point x="160" y="-118"/>
      <point x="160" y="5" type="curve" smooth="yes"/>
      <point x="160" y="408" type="line"/>
      <point x="144" y="420" type="line"/>
      <point x="143" y="420" type="line"/>
      <point x="32" y="407" type="line"/>
      <point x="32" y="368" type="line"/>
      <point x="88" y="353" type="line"/>
    </contour>
    <contour>
      <point x="118" y="493" type="curve"/>
      <point x="153" y="493"/>
      <point x="169" y="517"/>
      <point x="169" y="546" type="curve" smooth="yes"/>
      <point x="169" y="569"/>
      <point x="153" y="592"/>
      <point x="125" y="592" type="curve"/>
      <point x="93" y="592"/>
      <point x="76" y="566"/>
      <point x="76" y="539" type="curve" smooth="yes"/>
      <point x="76" y="514"/>
      <point x="93" y="493"/>
    </contour>
  </outline>
</glyph>
<glyph name="k" format="1">
  <advance width="440"/>
  <unicode hex="006B"/>
  <outline>
    <contour>
      <point x="27" y="0" type="line"/>
      <point x="200" y="0" type="line"/>
      <point x="200" y="35" type="line"/>
      <point x="146" y="42" type="line"/>
      <point x="146" y="102" type="line"/>
      <point x="144" y="140" type="line"/>
      <point x="222" y="217" type="line"/>
      <point x="330" y="42" type="line"/>
      <point x="283" y="35" type="line"/>
      <point x="283" y="0" type="line"/>
      <point x="459" y="0" type="line"/>
      <point x="459" y="35" type="line"/>
      <point x="412" y="41" type="line"/>
      <point x="270" y="258" type="line"/>
      <point x="382" y="367" type="line"/>
      <point x="440" y="378" type="line"/>
      <point x="440" y="411" type="line"/>
      <point x="262" y="411" type="line"/>
      <point x="262" y="378" type="line"/>
      <point x="319" y="368" type="line"/>
      <point x="144" y="188" type="line"/>
      <point x="146" y="233" type="line"/>
      <point x="146" y="596" type="line"/>
      <point x="130" y="607" type="line"/>
      <point x="129" y="607" type="line"/>
      <point x="16" y="593" type="line"/>
      <point x="16" y="563" type="line"/>
      <point x="75" y="555" type="line"/>
      <point x="75" y="42" type="line"/>
      <point x="27" y="35" type="line"/>
    </contour>
  </outline>
</glyph>
<glyph name="l" format="1">
  <advance width="246"/>
  <unicode hex="006C"/>
  <outline>
    <contour>
      <point x="28" y="0" type="line"/>
      <point x="226" y="0" type="line"/>
      <point x="226" y="35" type="line"/>
      <point x="161" y="41" type="line"/>
      <point x="161" y="596" type="line"/>
      <point x="145" y="607" type="line"/>
      <point x="144" y="607" type="line"/>
      <point x="28" y="593" type="line"/>
      <point x="28" y="563" type="line"/>
      <point x="89" y="555" type="line"/>
      <point x="89" y="42" type="line"/>
      <point x="28" y="35" type="line"/>
    </contour>
  </outline>
</glyph>
<glyph name="m" format="1">
  <advance width="735"/>
  <unicode hex="006D"/>
  <outline>
    <contour>
      <point x="34" y="0" type="line"/>
      <point x="202" y="0" type="line"/>
      <point x="202" y="35" type="line"/>
      <point x="152" y="42" type="line"/>
      <point x="152" y="325" type="line"/>
      <point x="179" y="347"/>
      <point x="225" y="370"/>
      <point x="264" y="370" type="curve" smooth="yes"/>
      <point x="331" y="370"/>
      <point x="341" y="331"/>
      <point x="341" y="249" type="curve" smooth="yes"/>
      <point x="341" y="42" type="line"/>
      <point x="291" y="35" type="line"/>
      <point x="291" y="0" type="line"/>
      <point x="466" y="0" type="line"/>
      <point x="466" y="35" type="line"/>
      <point x="413" y="42" type="line"/>
      <point x="413" y="249" type="line" smooth="yes"/>
      <point x="413" y="282"/>
      <point x="411" y="310"/>
      <point x="406" y="334" type="curve"/>
      <point x="430" y="351"/>
      <point x="471" y="371"/>
      <point x="507" y="371" type="curve" smooth="yes"/>
      <point x="577" y="371"/>
      <point x="590" y="330"/>
      <point x="590" y="248" type="curve" smooth="yes"/>
      <point x="590" y="42" type="line"/>
      <point x="543" y="35" type="line"/>
      <point x="543" y="0" type="line"/>
      <point x="716" y="0" type="line"/>
      <point x="716" y="35" type="line"/>
      <point x="662" y="41" type="line"/>
      <point x="662" y="250" type="line" smooth="yes"/>
      <point x="662" y="368"/>
      <point x="636" y="421"/>
      <point x="543" y="421" type="curve" smooth="yes"/>
      <point x="489" y="421"/>
      <point x="424" y="389"/>
      <point x="396" y="366" type="curve"/>
      <point x="379" y="404"/>
      <point x="349" y="421"/>
      <point x="295" y="421" type="curve" smooth="yes"/>
      <point x="245" y="421"/>
      <point x="176" y="387"/>
      <point x="144" y="358" type="curve"/>
      <point x="144" y="377" type="line"/>
      <point x="144" y="408" type="line"/>
      <point x="129" y="420" type="line"/>
      <point x="127" y="420" type="line"/>
      <point x="25" y="407" type="line"/>
      <point x="25" y="370" type="line"/>
      <point x="80" y="356" type="line"/>
      <point x="80" y="41" type="line"/>
      <point x="34" y="35" type="line"/>
    </contour>
  </outline>
</glyph>
<glyph name="n" format="1">
  <advance width="490"/>
  <unicode hex="006E"/>
  <outline>
    <contour>
      <point x="32" y="0" type="line"/>
      <point x="203" y="0" type="line"/>
      <point x="203" y="35" type="line"/>
      <point x="152" y="42" type="line"/>
      <point x="152" y="324" type="line"/>
      <point x="179" y="346"/>
      <point x="226" y="370"/>
      <point x="266" y="370" type="curve" smooth="yes"/>
      <point x="333" y="370"/>
      <point x="344" y="331"/>
      <point x="344" y="249" type="curve" smooth="yes"/>
      <point x="344" y="41" type="line"/>
      <point x="296" y="35" type="line"/>
      <point x="296" y="0" type="line"/>
      <point x="470" y="0" type="line"/>
      <point x="470" y="35" type="line"/>
      <point x="416" y="41" type="line"/>
      <point x="416" y="249" type="line" smooth="yes"/>
      <point x="416" y="368"/>
      <point x="393" y="421"/>
      <point x="298" y="421" type="curve" smooth="yes"/>
      <point x="242" y="421"/>
      <point x="176" y="386"/>
      <point x="144" y="358" type="curve"/>
      <point x="144" y="377" type="line"/>
      <point x="144" y="408" type="line"/>
      <point x="129" y="420" type="line"/>
      <point x="127" y="420" type="line"/>
      <point x="25" y="407" type="line"/>
      <point x="25" y="370" type="line"/>
      <point x="80" y="356" type="line"/>
      <point x="80" y="41" type="line"/>
      <point x="32" y="35" type="line"/>
    </contour>
  </outline>
</glyph>
<glyph name="o" format="1">
  <advance width="443"/>
  <unicode hex="006F"/>
  <outline>
    <contour>
      <point x="221" y="33" type="curve" smooth="yes"/>
      <point x="142" y="33"/>
      <point x="111" y="111"/>
      <point x="111" y="213" type="curve" smooth="yes"/>
      <point x="111" y="325"/>
      <point x="151" y="381"/>
      <point x="222" y="381" type="curve" smooth="yes"/>
      <point x="301" y="381"/>
      <point x="331" y="301"/>
      <point x="331" y="201" type="curve" smooth="yes"/>
      <point x="331" y="90"/>
      <point x="291" y="33"/>
    </contour>
    <contour>
      <point x="31" y="207" type="curve" smooth="yes"/>
      <point x="31" y="88"/>
      <point x="86" y="-8"/>
      <point x="217" y="-8" type="curve" smooth="yes"/>
      <point x="315" y="-8"/>
      <point x="411" y="69"/>
      <point x="411" y="207" type="curve" smooth="yes"/>
      <point x="411" y="326"/>
      <point x="356" y="422"/>
      <point x="225" y="422" type="curve" smooth="yes"/>
      <point x="127" y="422"/>
      <point x="31" y="344"/>
    </contour>
  </outline>
</glyph>
<glyph name="p" format="1">
  <advance width="464"/>
  <unicode hex="0070"/>
  <outline>
    <contour>
      <point x="432" y="221" type="curve" smooth="yes"/>
      <point x="432" y="363"/>
      <point x="354" y="422"/>
      <point x="270" y="422" type="curve" smooth="yes"/>
      <point x="210" y="422"/>
      <point x="165" y="391"/>
      <point x="140" y="364" type="curve"/>
      <point x="140" y="408" type="line"/>
      <point x="126" y="420" type="line"/>
      <point x="124" y="420" type="line"/>
      <point x="22" y="407" type="line"/>
      <point x="22" y="370" type="line"/>
      <point x="77" y="356" type="line"/>
      <point x="77" y="-136" type="line"/>
      <point x="23" y="-144" type="line"/>
      <point x="23" y="-179" type="line"/>
      <point x="226" y="-179" type="line"/>
      <point x="226" y="-144" type="line"/>
      <point x="148" y="-136" type="line"/>
      <point x="148" y="-59" type="line"/>
      <point x="147" y="3" type="line"/>
      <point x="165" y="-4"/>
      <point x="197" y="-8"/>
      <point x="221" y="-8" type="curve" smooth="yes"/>
      <point x="351" y="-8"/>
      <point x="432" y="94"/>
    </contour>
    <contour>
      <point x="242" y="373" type="curve" smooth="yes"/>
      <point x="304" y="373"/>
      <point x="356" y="325"/>
      <point x="356" y="209" type="curve"/>
      <point x="354" y="84"/>
      <point x="297" y="30"/>
      <point x="224" y="30" type="curve" smooth="yes"/>
      <point x="187" y="30"/>
      <point x="155" y="42"/>
      <point x="148" y="53" type="curve"/>
      <point x="148" y="333" type="line"/>
      <point x="164" y="351"/>
      <point x="199" y="373"/>
    </contour>
  </outline>
</glyph>
<glyph name="q" format="1">
  <advance width="450"/>
  <unicode hex="0071"/>
  <outline>
    <contour>
      <point x="195" y="-8" type="curve" smooth="yes"/>
      <point x="251" y="-8"/>
      <point x="293" y="19"/>
      <point x="319" y="45" type="curve"/>
      <point x="317" y="-17" type="line"/>
      <point x="317" y="-138" type="line"/>
      <point x="235" y="-146" type="line"/>
      <point x="235" y="-179" type="line"/>
      <point x="440" y="-179" type="line"/>
      <point x="440" y="-146" type="line"/>
      <point x="388" y="-138" type="line"/>
      <point x="388" y="408" type="line"/>
      <point x="375" y="420" type="line"/>
      <point x="374" y="420" type="line"/>
      <point x="336" y="410" type="line"/>
      <point x="312" y="416"/>
      <point x="279" y="422"/>
      <point x="245" y="422" type="curve" smooth="yes"/>
      <point x="112" y="422"/>
      <point x="32" y="323"/>
      <point x="32" y="198" type="curve" smooth="yes"/>
      <point x="32" y="55"/>
      <point x="111" y="-8"/>
    </contour>
    <contour>
      <point x="223" y="40" type="curve" smooth="yes"/>
      <point x="160" y="40"/>
      <point x="108" y="93"/>
      <point x="109" y="208" type="curve" smooth="yes"/>
      <point x="111" y="334"/>
      <point x="167" y="386"/>
      <point x="239" y="386" type="curve" smooth="yes"/>
      <point x="276" y="386"/>
      <point x="311" y="374"/>
      <point x="317" y="362" type="curve"/>
      <point x="317" y="80" type="line"/>
      <point x="302" y="64"/>
      <point x="268" y="40"/>
    </contour>
  </outline>
</glyph>
<glyph name="r" format="1">
  <advance width="337"/>
  <unicode hex="0072"/>
  <outline>
    <contour>
      <point x="35" y="0" type="line"/>
      <point x="259" y="0" type="line"/>
      <point x="259" y="34" type="line"/>
      <point x="164" y="40" type="line"/>
      <point x="164" y="312" type="line"/>
      <point x="185" y="327"/>
      <point x="223" y="351"/>
      <point x="281" y="351" type="curve" smooth="yes"/>
      <point x="300" y="351"/>
      <point x="315" y="346"/>
      <point x="320" y="342" type="curve"/>
      <point x="320" y="418" type="line"/>
      <point x="315" y="421"/>
      <point x="307" y="422"/>
      <point x="297" y="422" type="curve" smooth="yes"/>
      <point x="218" y="422"/>
      <point x="164" y="351"/>
      <point x="155" y="337" type="curve"/>
      <point x="154" y="337" type="line"/>
      <point x="154" y="383" type="line"/>
      <point x="154" y="408" type="line"/>
      <point x="139" y="420" type="line"/>
      <point x="138" y="420" type="line"/>
      <point x="38" y="407" type="line"/>
      <point x="38" y="370" type="line"/>
      <point x="93" y="356" type="line"/>
      <point x="93" y="40" type="line"/>
      <point x="35" y="34" type="line"/>
    </contour>
  </outline>
</glyph>
<glyph name="s" format="1">
  <advance width="372"/>
  <unicode hex="0073"/>
  <outline>
    <contour>
      <point x="42" y="23" type="line"/>
      <point x="67" y="11"/>
      <point x="128" y="-8"/>
      <point x="180" y="-8" type="curve" smooth="yes"/>
      <point x="276" y="-8"/>
      <point x="337" y="38"/>
      <point x="337" y="111" type="curve" smooth="yes"/>
      <point x="337" y="186"/>
      <point x="274" y="213"/>
      <point x="209" y="239" type="curve" smooth="yes"/>
      <point x="161" y="261"/>
      <point x="112" y="275"/>
      <point x="112" y="327" type="curve" smooth="yes"/>
      <point x="112" y="362"/>
      <point x="144" y="384"/>
      <point x="190" y="383" type="curve" smooth="yes"/>
      <point x="222" y="383"/>
      <point x="250" y="373"/>
      <point x="256" y="361" type="curve"/>
      <point x="271" y="307" type="line"/>
      <point x="313" y="307" type="line"/>
      <point x="313" y="397" type="line"/>
      <point x="295" y="403"/>
      <point x="255" y="420"/>
      <point x="194" y="420" type="curve" smooth="yes"/>
      <point x="112" y="420"/>
      <point x="46" y="378"/>
      <point x="46" y="313" type="curve" smooth="yes"/>
      <point x="46" y="245"/>
      <point x="83" y="210"/>
      <point x="158" y="182" type="curve" smooth="yes"/>
      <point x="230" y="154"/>
      <point x="270" y="134"/>
      <point x="270" y="92" type="curve" smooth="yes"/>
      <point x="270" y="55"/>
      <point x="247" y="30"/>
      <point x="185" y="30" type="curve" smooth="yes"/>
      <point x="147" y="30"/>
      <point x="110" y="45"/>
      <point x="100" y="60" type="curve"/>
      <point x="88" y="117" type="line"/>
      <point x="42" y="117" type="line"/>
    </contour>
  </outline>
</glyph>
<glyph name="u" format="1">
  <advance width="468"/>
  <unicode hex="0075"/>
  <outline>
    <contour>
      <point x="372" y="-7" type="curve" smooth="yes"/>
      <point x="401" y="-7"/>
      <point x="423" y="0"/>
      <point x="439" y="4" type="curve"/>
      <point x="440" y="37" type="line"/>
      <point x="395" y="37" type="line"/>
      <point x="395" y="411" type="line"/>
      <point x="378" y="420" type="line"/>
      <point x="270" y="410" type="line"/>
      <point x="270" y="379" type="line"/>
      <point x="324" y="367" type="line"/>
      <point x="324" y="84" type="line"/>
      <point x="303" y="66"/>
      <point x="265" y="41"/>
      <point x="219" y="41" type="curve" smooth="yes"/>
      <point x="156" y="41"/>
      <point x="142" y="74"/>
      <point x="142" y="158" type="curve" smooth="yes"/>
      <point x="142" y="411" type="line"/>
      <point x="127" y="420" type="line"/>
      <point x="28" y="410" type="line"/>
      <point x="28" y="379" type="line"/>
      <point x="70" y="367" type="line"/>
      <point x="70" y="152" type="line"/>
      <point x="70" y="39"/>
      <point x="105" y="-8"/>
      <point x="196" y="-8" type="curve" smooth="yes"/>
      <point x="250" y="-8"/>
      <point x="304" y="26"/>
      <point x="332" y="52" type="curve"/>
      <point x="332" y="27" type="line"/>
      <point x="332" y="1"/>
      <point x="346" y="-7"/>
    </contour>
  </outline>
</glyph>
<glyph name="v" format="1">
  <advance width="420"/>
  <unicode hex="0076"/>
  <outline>
    <contour>
      <point x="183" y="-6" type="line"/>
      <point x="242" y="-6" type="line"/>
      <point x="385" y="368" type="line"/>
      <point x="423" y="378" type="line"/>
      <point x="423" y="411" type="line"/>
      <point x="276" y="411" type="line"/>
      <point x="276" y="378" type="line"/>
      <point x="327" y="368" type="line"/>
      <point x="251" y="150" type="line"/>
      <point x="223" y="54" type="line"/>
      <point x="190" y="153" type="line"/>
      <point x="114" y="368" type="line"/>
      <point x="168" y="378" type="line"/>
      <point x="168" y="411" type="line"/>
      <point x="0" y="411" type="line"/>
      <point x="0" y="378" type="line"/>
      <point x="34" y="368" type="line"/>
    </contour>
  </outline>
</glyph>
<glyph name="w" format="1">
  <advance width="624"/>
  <unicode hex="0077"/>
  <outline>
    <contour>
      <point x="153" y="-6" type="line"/>
      <point x="219" y="-6" type="line"/>
      <point x="295" y="262" type="line"/>
      <point x="312" y="353" type="line"/>
      <point x="331" y="262" type="line"/>
      <point x="410" y="-6" type="line"/>
      <point x="477" y="-6" type="line"/>
      <point x="592" y="368" type="line"/>
      <point x="631" y="378" type="line"/>
      <point x="631" y="411" type="line"/>
      <point x="482" y="411" type="line"/>
      <point x="482" y="378" type="line"/>
      <point x="539" y="368" type="line"/>
      <point x="477" y="146" type="line"/>
      <point x="453" y="49" type="line"/>
      <point x="431" y="147" type="line"/>
      <point x="357" y="411" type="line"/>
      <point x="288" y="411" type="line"/>
      <point x="215" y="147" type="line"/>
      <point x="193" y="50" type="line"/>
      <point x="170" y="146" type="line"/>
      <point x="108" y="369" type="line"/>
      <point x="166" y="378" type="line"/>
      <point x="166" y="411" type="line"/>
      <point x="-3" y="411" type="line"/>
      <point x="-3" y="378" type="line"/>
      <point x="35" y="369" type="line"/>
    </contour>
  </outline>
</glyph>
<glyph name="x" format="1">
  <advance width="439"/>
  <unicode hex="0078"/>
  <outline>
    <contour>
      <point x="5" y="0" type="line"/>
      <point x="177" y="0" type="line"/>
      <point x="177" y="34" type="line"/>
      <point x="114" y="42" type="line"/>
      <point x="188" y="145" type="line"/>
      <point x="208" y="177" type="line"/>
      <point x="231" y="145" type="line"/>
      <point x="300" y="42" type="line"/>
      <point x="250" y="34" type="line"/>
      <point x="250" y="0" type="line"/>
      <point x="435" y="0" type="line"/>
      <point x="435" y="34" type="line"/>
      <point x="391" y="41" type="line"/>
      <point x="260" y="214" type="line"/>
      <point x="384" y="369" type="line"/>
      <point x="428" y="378" type="line"/>
      <point x="428" y="411" type="line"/>
      <point x="273" y="411" type="line"/>
      <point x="273" y="378" type="line"/>
      <point x="328" y="369" type="line"/>
      <point x="255" y="270" type="line"/>
      <point x="235" y="239" type="line"/>
      <point x="214" y="271" type="line"/>
      <point x="145" y="369" type="line"/>
      <point x="198" y="378" type="line"/>
      <point x="198" y="411" type="line"/>
      <point x="16" y="411" type="line"/>
      <point x="16" y="378" type="line"/>
      <point x="58" y="369" type="line"/>
      <point x="183" y="206" type="line"/>
      <point x="55" y="42" type="line"/>
      <point x="5" y="34" type="line"/>
    </contour>
  </outline>
</glyph>
<glyph name="y" format="1">
  <advance width="425"/>
  <unicode hex="0079"/>
  <outline>
    <contour>
      <point x="92" y="-184" type="curve" smooth="yes"/>
      <point x="177" y="-184"/>
      <point x="211" y="-125"/>
      <point x="256" y="-12" type="curve"/>
      <point x="268" y="15"/>
      <point x="304" y="123"/>
      <point x="384" y="369" type="curve"/>
      <point x="422" y="378" type="line"/>
      <point x="422" y="411" type="line"/>
      <point x="275" y="411" type="line"/>
      <point x="275" y="378" type="line"/>
      <point x="325" y="369" type="line"/>
      <point x="259" y="148" type="line"/>
      <point x="225" y="35" type="line"/>
      <point x="190" y="147" type="line"/>
      <point x="115" y="369" type="line"/>
      <point x="173" y="378" type="line"/>
      <point x="173" y="411" type="line"/>
      <point x="-1" y="411" type="line"/>
      <point x="-1" y="378" type="line"/>
      <point x="34" y="368" type="line"/>
      <point x="174" y="0" type="line"/>
      <point x="209" y="0" type="line"/>
      <point x="172" y="-105"/>
      <point x="134" y="-123"/>
      <point x="92" y="-123" type="curve" smooth="yes"/>
      <point x="78" y="-123"/>
      <point x="58" y="-121"/>
      <point x="52" y="-117" type="curve"/>
      <point x="52" y="-179" type="line"/>
      <point x="59" y="-182"/>
      <point x="78" y="-184"/>
    </contour>
  </outline>
</glyph>
<glyph name="z" format="1">
  <advance width="410"/>
  <unicode hex="007A"/>
  <outline>
    <contour>
      <point x="22" y="31" type="line"/>
      <point x="36" y="0" type="line"/>
      <point x="368" y="0" type="line"/>
      <point x="379" y="124" type="line"/>
      <point x="338" y="128" type="line"/>
      <point x="312" y="47" type="line"/>
      <point x="106" y="40" type="line"/>
      <point x="153" y="85" type="line"/>
      <point x="376" y="382" type="line"/>
      <point x="362" y="411" type="line"/>
      <point x="50" y="411" type="line"/>
      <point x="50" y="295" type="line"/>
      <point x="95" y="295" type="line"/>
      <point x="106" y="365" type="line"/>
      <point x="295" y="371" type="line"/>
      <point x="248" y="325" type="line"/>
    </contour>
  </outline>
</glyph>
<glyph name="braceleft" format="1">
  <advance width="373"/>
  <unicode hex="007B"/>
  <outline>
    <contour>
      <point x="108" y="-8" type="curve" smooth="yes"/>
      <point x="108" y="-68"/>
      <point x="134" y="-102"/>
      <point x="222" y="-102" type="curve" smooth="yes"/>
      <point x="257" y="-102"/>
      <point x="287" y="-96"/>
      <point x="315" y="-88" type="curve"/>
      <point x="315" y="-56" type="line"/>
      <point x="252" y="-57" type="line" smooth="yes"/>
      <point x="207" y="-57"/>
      <point x="179" y="-47"/>
      <point x="179" y="4" type="curve" smooth="yes"/>
      <point x="179" y="51"/>
      <point x="216" y="115"/>
      <point x="216" y="169" type="curve" smooth="yes"/>
      <point x="216" y="217"/>
      <point x="179" y="242"/>
      <point x="128" y="249" type="curve"/>
      <point x="179" y="256"/>
      <point x="216" y="278"/>
      <point x="216" y="327" type="curve" smooth="yes"/>
      <point x="216" y="380"/>
      <point x="179" y="445"/>
      <point x="179" y="491" type="curve" smooth="yes"/>
      <point x="179" y="541"/>
      <point x="208" y="553"/>
      <point x="252" y="553" type="curve" smooth="yes"/>
      <point x="315" y="551" type="line"/>
      <point x="315" y="584" type="line"/>
      <point x="287" y="591"/>
      <point x="257" y="597"/>
      <point x="222" y="597" type="curve" smooth="yes"/>
      <point x="135" y="597"/>
      <point x="108" y="564"/>
      <point x="108" y="503" type="curve" smooth="yes"/>
      <point x="108" y="435"/>
      <point x="157" y="387"/>
      <point x="157" y="329" type="curve" smooth="yes"/>
      <point x="157" y="294"/>
      <point x="148" y="277"/>
      <point x="60" y="278" type="curve"/>
      <point x="60" y="224" type="line"/>
      <point x="148" y="225"/>
      <point x="157" y="201"/>
      <point x="157" y="166" type="curve" smooth="yes"/>
      <point x="157" y="108"/>
      <point x="108" y="61"/>
    </contour>
  </outline>
</glyph>
<glyph name="bar" format="1">
  <advance width="313"/>
  <unicode hex="007C"/>
  <outline>
    <contour>
      <point x="127" y="-67" type="line"/>
      <point x="186" y="-67" type="line"/>
      <point x="186" y="644" type="line"/>
      <point x="127" y="644" type="line"/>
    </contour>
  </outline>
</glyph>
<glyph name="braceright" format="1">
  <advance width="373"/>
  <unicode hex="007D"/>
  <outline>
    <contour>
      <point x="265" y="-8" type="curve" smooth="yes"/>
      <point x="265" y="-68"/>
      <point x="239" y="-102"/>
      <point x="152" y="-102" type="curve" smooth="yes"/>
      <point x="116" y="-102"/>
      <point x="86" y="-96"/>
      <point x="58" y="-88" type="curve"/>
      <point x="58" y="-56" type="line"/>
      <point x="121" y="-57" type="line" smooth="yes"/>
      <point x="166" y="-57"/>
      <point x="195" y="-47"/>
      <point x="195" y="4" type="curve" smooth="yes"/>
      <point x="195" y="51"/>
      <point x="157" y="115"/>
      <point x="157" y="169" type="curve" smooth="yes"/>
      <point x="157" y="217"/>
      <point x="195" y="242"/>
      <point x="245" y="249" type="curve"/>
      <point x="195" y="256"/>
      <point x="157" y="278"/>
      <point x="157" y="327" type="curve" smooth="yes"/>
      <point x="157" y="380"/>
      <point x="195" y="445"/>
      <point x="195" y="491" type="curve" smooth="yes"/>
      <point x="195" y="541"/>
      <point x="166" y="553"/>
      <point x="121" y="553" type="curve" smooth="yes"/>
      <point x="58" y="551" type="line"/>
      <point x="58" y="584" type="line"/>
      <point x="86" y="591"/>
      <point x="116" y="597"/>
      <point x="152" y="597" type="curve" smooth="yes"/>
      <point x="239" y="597"/>
      <point x="265" y="564"/>
      <point x="265" y="503" type="curve" smooth="yes"/>
      <point x="265" y="435"/>
      <point x="217" y="387"/>
      <point x="217" y="329" type="curve" smooth="yes"/>
      <point x="217" y="294"/>
      <point x="226" y="277"/>
      <point x="313" y="278" type="curve"/>
      <point x="313" y="224" type="line"/>
      <point x="226" y="225"/>
      <point x="217" y="201"/>
      <point x="217" y="166" type="curve" smooth="yes"/>
      <point x="217" y="108"/>
      <point x="265" y="61"/>
    </contour>
  </outline>
</glyph>
<glyph name="asciitilde" format="1">
  <advance width="511"/>
  <unicode hex="007E"/>
  <outline>
    <contour>
      <point x="107" y="182" type="line"/>
      <point x="123" y="203"/>
      <point x="149" y="225"/>
      <point x="184" y="225" type="curve" smooth="yes"/>
      <point x="233" y="225"/>
      <point x="255" y="164"/>
      <point x="319" y="164" type="curve" smooth="yes"/>
      <point x="370" y="164"/>
      <point x="412" y="197"/>
      <point x="431" y="230" type="curve"/>
      <point x="404" y="261" type="line"/>
      <point x="388" y="241"/>
      <point x="363" y="218"/>
      <point x="328" y="218" type="curve" smooth="yes"/>
      <point x="281" y="218"/>
      <point x="257" y="280"/>
      <point x="193" y="280" type="curve" smooth="yes"/>
      <point x="140" y="280"/>
      <point x="97" y="245"/>
      <point x="79" y="213" type="curve"/>
    </contour>
  </outline>
</glyph>
<glyph name="exclamdown" format="1">
  <advance width="263"/>
  <unicode hex="00A1"/>
  <outline>
    <contour>
      <point x="138" y="347" type="line"/>
      <point x="93" y="347" type="line"/>
      <point x="80" y="-38" type="line"/>
      <point x="155" y="-38" type="line"/>
    </contour>
    <contour>
      <point x="163" y="473" type="curve" smooth="yes"/>
      <point x="163" y="500"/>
      <point x="143" y="520"/>
      <point x="115" y="520" type="curve" smooth="yes"/>
      <point x="88" y="520"/>
      <point x="66" y="500"/>
      <point x="66" y="474" type="curve" smooth="yes"/>
      <point x="66" y="446"/>
      <point x="87" y="425"/>
      <point x="115" y="425" type="curve" smooth="yes"/>
      <point x="143" y="425"/>
      <point x="163" y="446"/>
    </contour>
  </outline>
</glyph>
<glyph name="cent" format="1">
  <advance width="431"/>
  <unicode hex="00A2"/>
  <outline>
    <contour>
      <point x="43" y="201" type="curve"/>
      <point x="43" y="94"/>
      <point x="94" y="10"/>
      <point x="194" y="-6" type="curve"/>
      <point x="190" y="-88" type="line"/>
      <point x="235" y="-88" type="line"/>
      <point x="240" y="-8" type="line"/>
      <point x="291" y="-4"/>
      <point x="341" y="21"/>
      <point x="365" y="45" type="curve"/>
      <point x="351" y="74" type="line"/>
      <point x="329" y="58"/>
      <point x="289" y="41"/>
      <point x="244" y="41" type="curve" smooth="yes"/>
      <point x="173" y="41"/>
      <point x="119" y="99"/>
      <point x="119" y="225" type="curve" smooth="yes"/>
      <point x="119" y="327"/>
      <point x="166" y="384"/>
      <point x="235" y="384" type="curve" smooth="yes"/>
      <point x="263" y="384"/>
      <point x="290" y="379"/>
      <point x="294" y="362" type="curve"/>
      <point x="310" y="290" type="line"/>
      <point x="354" y="290" type="line"/>
      <point x="358" y="400" type="line"/>
      <point x="341" y="406"/>
      <point x="309" y="418"/>
      <point x="272" y="421" type="curve"/>
      <point x="276" y="497" type="line"/>
      <point x="229" y="497" type="line"/>
      <point x="225" y="421" type="line"/>
      <point x="104" y="410"/>
      <point x="42" y="313"/>
    </contour>
  </outline>
</glyph>
<glyph name="sterling" format="1">
  <advance width="545"/>
  <unicode hex="00A3"/>
  <outline>
    <contour>
      <point x="71" y="279" type="line"/>
      <point x="145" y="279" type="line"/>
      <point x="145" y="191" type="line" smooth="yes"/>
      <point x="145" y="152"/>
      <point x="136" y="99"/>
      <point x="125" y="83" type="curve"/>
      <point x="79" y="85"/>
      <point x="38" y="57"/>
      <point x="38" y="29" type="curve" smooth="yes"/>
      <point x="38" y="7"/>
      <point x="59" y="0"/>
      <point x="74" y="0" type="curve" smooth="yes"/>
      <point x="102" y="0"/>
      <point x="125" y="20"/>
      <point x="144" y="42" type="curve"/>
      <point x="214" y="41"/>
      <point x="271" y="-5"/>
      <point x="359" y="-5" type="curve" smooth="yes"/>
      <point x="444" y="-5"/>
      <point x="503" y="58"/>
      <point x="503" y="127" type="curve" smooth="yes"/>
      <point x="503" y="158"/>
      <point x="496" y="177"/>
      <point x="489" y="186" type="curve"/>
      <point x="414" y="186" type="line"/>
      <point x="423" y="176"/>
      <point x="432" y="146"/>
      <point x="432" y="118" type="curve" smooth="yes"/>
      <point x="432" y="69"/>
      <point x="414" y="46"/>
      <point x="354" y="46" type="curve" smooth="yes"/>
      <point x="293" y="46"/>
      <point x="234" y="69"/>
      <point x="174" y="74" type="curve"/>
      <point x="199" y="102"/>
      <point x="220" y="139"/>
      <point x="220" y="201" type="curve" smooth="yes"/>
      <point x="220" y="279" type="line"/>
      <point x="333" y="279" type="line"/>
      <point x="333" y="318" type="line"/>
      <point x="220" y="318" type="line"/>
      <point x="220" y="385" type="line" smooth="yes"/>
      <point x="220" y="493"/>
      <point x="266" y="512"/>
      <point x="305" y="512" type="curve" smooth="yes"/>
      <point x="358" y="512"/>
      <point x="397" y="481"/>
      <point x="404" y="468" type="curve"/>
      <point x="441" y="521" type="line"/>
      <point x="414" y="544"/>
      <point x="372" y="556"/>
      <point x="325" y="556" type="curve" smooth="yes"/>
      <point x="228" y="556"/>
      <point x="145" y="483"/>
      <point x="145" y="370" type="curve" smooth="yes"/>
      <point x="145" y="318" type="line"/>
      <point x="71" y="318" type="line"/>
    </contour>
  </outline>
</glyph>
<glyph name="currency" format="1">
  <advance width="559"/>
  <unicode hex="00A4"/>
  <outline>
    <contour>
      <point x="75" y="106" type="line"/>
      <point x="114" y="66" type="line"/>
      <point x="192" y="143" type="line"/>
      <point x="216" y="128"/>
      <point x="246" y="118"/>
      <point x="279" y="118" type="curve" smooth="yes"/>
      <point x="311" y="118"/>
      <point x="341" y="129"/>
      <point x="366" y="145" type="curve"/>
      <point x="444" y="67" type="line"/>
      <point x="483" y="107" type="line"/>
      <point x="406" y="184" type="line"/>
      <point x="426" y="212"/>
      <point x="439" y="246"/>
      <point x="439" y="283" type="curve" smooth="yes"/>
      <point x="439" y="319"/>
      <point x="427" y="352"/>
      <point x="409" y="377" type="curve"/>
      <point x="484" y="454" type="line"/>
      <point x="445" y="493" type="line"/>
      <point x="366" y="415" type="line"/>
      <point x="341" y="431"/>
      <point x="311" y="441"/>
      <point x="279" y="441" type="curve" smooth="yes"/>
      <point x="246" y="441"/>
      <point x="217" y="431"/>
      <point x="192" y="414" type="curve"/>
      <point x="114" y="493" type="line"/>
      <point x="75" y="453" type="line"/>
      <point x="152" y="375" type="line"/>
      <point x="133" y="346"/>
      <point x="123" y="313"/>
      <point x="123" y="276" type="curve" smooth="yes"/>
      <point x="123" y="240"/>
      <point x="133" y="208"/>
      <point x="151" y="182" type="curve"/>
    </contour>
    <contour>
      <point x="279" y="171" type="curve" smooth="yes"/>
      <point x="223" y="171"/>
      <point x="177" y="218"/>
      <point x="177" y="277" type="curve" smooth="yes"/>
      <point x="177" y="336"/>
      <point x="211" y="388"/>
      <point x="277" y="388" type="curve" smooth="yes"/>
      <point x="333" y="388"/>
      <point x="381" y="338"/>
      <point x="381" y="279" type="curve" smooth="yes"/>
      <point x="381" y="219"/>
      <point x="348" y="171"/>
    </contour>
  </outline>
</glyph>
<glyph name="yen" format="1">
  <advance width="574"/>
  <unicode hex="00A5"/>
  <outline>
    <contour>
      <point x="91" y="266" type="line"/>
      <point x="258" y="266" type="line"/>
      <point x="258" y="169" type="line"/>
      <point x="91" y="169" type="line"/>
      <point x="91" y="131" type="line"/>
      <point x="258" y="131" type="line"/>
      <point x="258" y="40" type="line"/>
      <point x="175" y="32" type="line"/>
      <point x="175" y="0" type="line"/>
      <point x="409" y="0" type="line"/>
      <point x="409" y="32" type="line"/>
      <point x="324" y="40" type="line"/>
      <point x="324" y="131" type="line"/>
      <point x="491" y="131" type="line"/>
      <point x="491" y="169" type="line"/>
      <point x="324" y="169" type="line"/>
      <point x="324" y="266" type="line"/>
      <point x="491" y="266" type="line"/>
      <point x="491" y="304" type="line"/>
      <point x="343" y="304" type="line"/>
      <point x="474" y="510" type="line"/>
      <point x="527" y="519" type="line"/>
      <point x="527" y="550" type="line"/>
      <point x="359" y="550" type="line"/>
      <point x="359" y="519" type="line"/>
      <point x="416" y="511" type="line"/>
      <point x="328" y="352" type="line"/>
      <point x="300" y="307" type="line"/>
      <point x="279" y="351" type="line"/>
      <point x="182" y="511" type="line"/>
      <point x="237" y="519" type="line"/>
      <point x="237" y="550" type="line"/>
      <point x="47" y="550" type="line"/>
      <point x="47" y="519" type="line"/>
      <point x="95" y="510" type="line"/>
      <point x="233" y="304" type="line"/>
      <point x="91" y="304" type="line"/>
    </contour>
  </outline>
</glyph>
<glyph name="brokenbar" format="1">
  <advance width="313"/>
  <unicode hex="00A6"/>
  <outline>
    <contour>
      <point x="127" y="-67" type="line"/>
      <point x="186" y="-67" type="line"/>
      <point x="186" y="232" type="line"/>
      <point x="127" y="232" type="line"/>
    </contour>
    <contour>
      <point x="127" y="344" type="line"/>
      <point x="186" y="344" type="line"/>
      <point x="186" y="644" type="line"/>
      <point x="127" y="644" type="line"/>
    </contour>
  </outline>
</glyph>
<glyph name="section" format="1">
  <advance width="496"/>
  <unicode hex="00A7"/>
  <outline>
    <contour>
      <point x="69" y="-39" type="line"/>
      <point x="92" y="-41"/>
      <point x="154" y="-73"/>
      <point x="238" y="-73" type="curve" smooth="yes"/>
      <point x="368" y="-73"/>
      <point x="423" y="-9"/>
      <point x="423" y="52" type="curve" smooth="yes"/>
      <point x="423" y="86"/>
      <point x="404" y="113"/>
      <point x="379" y="135" type="curve"/>
      <point x="410" y="162"/>
      <point x="431" y="195"/>
      <point x="431" y="238" type="curve" smooth="yes"/>
      <point x="431" y="328"/>
      <point x="330" y="371"/>
      <point x="272" y="396" type="curve"/>
      <point x="204" y="424"/>
      <point x="148" y="442"/>
      <point x="148" y="503" type="curve" smooth="yes"/>
      <point x="148" y="545"/>
      <point x="185" y="568"/>
      <point x="254" y="568" type="curve" smooth="yes"/>
      <point x="297" y="568"/>
      <point x="329" y="556"/>
      <point x="335" y="549" type="curve"/>
      <point x="353" y="465" type="line"/>
      <point x="395" y="465" type="line"/>
      <point x="399" y="582" type="line"/>
      <point x="377" y="586"/>
      <point x="325" y="609"/>
      <point x="257" y="609" type="curve" smooth="yes"/>
      <point x="149" y="609"/>
      <point x="81" y="561"/>
      <point x="81" y="489" type="curve" smooth="yes"/>
      <point x="81" y="452"/>
      <point x="98" y="425"/>
      <point x="121" y="402" type="curve"/>
      <point x="87" y="377"/>
      <point x="68" y="349"/>
      <point x="68" y="306" type="curve" smooth="yes"/>
      <point x="68" y="215"/>
      <point x="144" y="170"/>
      <point x="220" y="140" type="curve"/>
      <point x="293" y="113"/>
      <point x="357" y="89"/>
      <point x="357" y="35" type="curve" smooth="yes"/>
      <point x="357" y="-3"/>
      <point x="321" y="-33"/>
      <point x="241" y="-33" type="curve" smooth="yes"/>
      <point x="194" y="-33"/>
      <point x="150" y="-18"/>
      <point x="134" y="-2" type="curve"/>
      <point x="122" y="88" type="line"/>
      <point x="77" y="88" type="line"/>
    </contour>
    <contour>
      <point x="258" y="199" type="curve" smooth="yes"/>
      <point x="181" y="230"/>
      <point x="126" y="260"/>
      <point x="126" y="322" type="curve" smooth="yes"/>
      <point x="126" y="346"/>
      <point x="135" y="362"/>
      <point x="153" y="378" type="curve"/>
      <point x="181" y="359"/>
      <point x="211" y="347"/>
      <point x="237" y="336" type="curve" smooth="yes"/>
      <point x="313" y="306"/>
      <point x="367" y="277"/>
      <point x="367" y="219" type="curve" smooth="yes"/>
      <point x="367" y="194"/>
      <point x="358" y="175"/>
      <point x="342" y="159" type="curve"/>
      <point x="313" y="176"/>
      <point x="282" y="188"/>
    </contour>
  </outline>
</glyph>
<glyph name="dieresis" format="1">
  <advance width="370"/>
  <unicode hex="00A8"/>
  <outline>
    <contour>
      <point x="98" y="493" type="curve"/>
      <point x="132" y="493"/>
      <point x="148" y="518"/>
      <point x="148" y="546" type="curve" smooth="yes"/>
      <point x="148" y="569"/>
      <point x="133" y="592"/>
      <point x="105" y="592" type="curve"/>
      <point x="72" y="592"/>
      <point x="57" y="566"/>
      <point x="57" y="539" type="curve" smooth="yes"/>
      <point x="57" y="514"/>
      <point x="72" y="493"/>
    </contour>
    <contour>
      <point x="263" y="493" type="curve"/>
      <point x="298" y="493"/>
      <point x="314" y="518"/>
      <point x="314" y="546" type="curve" smooth="yes"/>
      <point x="314" y="569"/>
      <point x="299" y="592"/>
      <point x="271" y="592" type="curve"/>
      <point x="239" y="592"/>
      <point x="223" y="566"/>
      <point x="223" y="539" type="curve" smooth="yes"/>
      <point x="223" y="515"/>
      <point x="239" y="493"/>
    </contour>
  </outline>
</glyph>
<glyph name="copyright" format="1">
  <advance width="770"/>
  <unicode hex="00A9"/>
  <outline>
    <contour>
      <point x="70" y="363" type="curve" smooth="yes"/>
      <point x="70" y="187"/>
      <point x="209" y="45"/>
      <point x="385" y="45" type="curve" smooth="yes"/>
      <point x="561" y="45"/>
      <point x="700" y="187"/>
      <point x="700" y="363" type="curve" smooth="yes"/>
      <point x="700" y="539"/>
      <point x="561" y="679"/>
      <point x="385" y="679" type="curve" smooth="yes"/>
      <point x="209" y="679"/>
      <point x="70" y="539"/>
    </contour>
    <contour>
      <point x="114" y="363" type="curve" smooth="yes"/>
      <point x="114" y="514"/>
      <point x="232" y="642"/>
      <point x="385" y="642" type="curve" smooth="yes"/>
      <point x="538" y="642"/>
      <point x="656" y="515"/>
      <point x="656" y="363" type="curve" smooth="yes"/>
      <point x="656" y="210"/>
      <point x="538" y="83"/>
      <point x="385" y="83" type="curve" smooth="yes"/>
      <point x="232" y="83"/>
      <point x="114" y="210"/>
    </contour>
    <contour>
      <point x="387" y="187" type="curve" smooth="yes"/>
      <point x="439" y="187"/>
      <point x="485" y="216"/>
      <point x="505" y="241" type="curve"/>
      <point x="489" y="269" type="line"/>
      <point x="469" y="250"/>
      <point x="441" y="237"/>
      <point x="408" y="237" type="curve" smooth="yes"/>
      <point x="337" y="237"/>
      <point x="287" y="290"/>
      <point x="287" y="372" type="curve" smooth="yes"/>
      <point x="287" y="450"/>
      <point x="324" y="500"/>
      <point x="386" y="500" type="curve" smooth="yes"/>
      <point x="423" y="500"/>
      <point x="438" y="495"/>
      <point x="448" y="487" type="curve"/>
      <point x="463" y="439" type="line"/>
      <point x="501" y="439" type="line"/>
      <point x="502" y="520" type="line"/>
      <point x="488" y="534"/>
      <point x="440" y="542"/>
      <point x="408" y="542" type="curve" smooth="yes"/>
      <point x="303" y="542"/>
      <point x="225" y="461"/>
      <point x="225" y="359" type="curve" smooth="yes"/>
      <point x="225" y="259"/>
      <point x="280" y="187"/>
    </contour>
  </outline>
</glyph>
<glyph name="ordfeminine" format="1">
  <advance width="375"/>
  <unicode hex="00AA"/>
  <outline>
    <contour>
      <point x="146" y="242" type="curve" smooth="yes"/>
      <point x="198" y="242"/>
      <point x="236" y="270"/>
      <point x="257" y="292" type="curve"/>
      <point x="257" y="268" type="line" smooth="yes"/>
      <point x="257" y="244"/>
      <point x="273" y="243"/>
      <point x="295" y="243" type="curve" smooth="yes"/>
      <point x="318" y="243"/>
      <point x="343" y="248"/>
      <point x="359" y="252" type="curve"/>
      <point x="359" y="281" type="line"/>
      <point x="318" y="281" type="line"/>
      <point x="318" y="462" type="line" smooth="yes"/>
      <point x="318" y="551"/>
      <point x="276" y="582"/>
      <point x="192" y="582" type="curve" smooth="yes"/>
      <point x="146" y="582"/>
      <point x="79" y="559"/>
      <point x="51" y="541" type="curve"/>
      <point x="71" y="507" type="line"/>
      <point x="96" y="519"/>
      <point x="138" y="535"/>
      <point x="179" y="535" type="curve" smooth="yes"/>
      <point x="236" y="535"/>
      <point x="254" y="518"/>
      <point x="254" y="453" type="curve" smooth="yes"/>
      <point x="254" y="444" type="line"/>
      <point x="120" y="440"/>
      <point x="44" y="408"/>
      <point x="44" y="335" type="curve" smooth="yes"/>
      <point x="44" y="280"/>
      <point x="85" y="242"/>
    </contour>
    <contour>
      <point x="174" y="285" type="curve" smooth="yes"/>
      <point x="135" y="285"/>
      <point x="113" y="308"/>
      <point x="113" y="340" type="curve" smooth="yes"/>
      <point x="113" y="387"/>
      <point x="150" y="408"/>
      <point x="254" y="411" type="curve"/>
      <point x="254" y="320" type="line"/>
      <point x="254" y="321" type="line"/>
      <point x="244" y="308"/>
      <point x="205" y="285"/>
    </contour>
  </outline>
</glyph>
<glyph name="guillemotleft" format="1">
  <advance width="690"/>
  <unicode hex="00AB"/>
  <outline>
    <contour>
      <point x="354" y="196" type="line"/>
      <point x="592" y="40" type="line"/>
      <point x="616" y="77" type="line"/>
      <point x="436" y="222" type="line"/>
      <point x="614" y="371" type="line"/>
      <point x="592" y="407" type="line"/>
      <point x="354" y="247" type="line"/>
    </contour>
    <contour>
      <point x="86" y="196" type="line"/>
      <point x="325" y="40" type="line"/>
      <point x="348" y="77" type="line"/>
      <point x="169" y="222" type="line"/>
      <point x="346" y="371" type="line"/>
      <point x="325" y="407" type="line"/>
      <point x="86" y="247" type="line"/>
    </contour>
  </outline>
</glyph>
<glyph name="logicalnot" format="1">
  <advance width="510"/>
  <unicode hex="00AC"/>
  <outline>
    <contour>
      <point x="76" y="206" type="line"/>
      <point x="378" y="206" type="line"/>
      <point x="378" y="58" type="line"/>
      <point x="434" y="58" type="line"/>
      <point x="434" y="252" type="line"/>
      <point x="76" y="252" type="line"/>
    </contour>
  </outline>
</glyph>
<glyph name="uni00AD" format="1">
  <advance width="487"/>
  <unicode hex="00AD"/>
  <outline>
    <contour>
      <point x="83" y="198" type="line"/>
      <point x="403" y="198" type="line"/>
      <point x="403" y="248" type="line"/>
      <point x="83" y="248" type="line"/>
    </contour>
  </outline>
</glyph>
<glyph name="registered" format="1">
  <advance width="770"/>
  <unicode hex="00AE"/>
  <outline>
    <contour>
      <point x="70" y="363" type="curve" smooth="yes"/>
      <point x="70" y="187"/>
      <point x="209" y="45"/>
      <point x="385" y="45" type="curve" smooth="yes"/>
      <point x="561" y="45"/>
      <point x="700" y="187"/>
      <point x="700" y="363" type="curve" smooth="yes"/>
      <point x="700" y="539"/>
      <point x="561" y="679"/>
      <point x="385" y="679" type="curve" smooth="yes"/>
      <point x="209" y="679"/>
      <point x="70" y="539"/>
    </contour>
    <contour>
      <point x="114" y="363" type="curve" smooth="yes"/>
      <point x="114" y="514"/>
      <point x="232" y="642"/>
      <point x="385" y="642" type="curve" smooth="yes"/>
      <point x="538" y="642"/>
      <point x="656" y="515"/>
      <point x="656" y="363" type="curve" smooth="yes"/>
      <point x="656" y="210"/>
      <point x="538" y="83"/>
      <point x="385" y="83" type="curve" smooth="yes"/>
      <point x="232" y="83"/>
      <point x="114" y="210"/>
    </contour>
    <contour>
      <point x="242" y="187" type="line"/>
      <point x="370" y="187" type="line"/>
      <point x="370" y="217" type="line"/>
      <point x="332" y="223" type="line"/>
      <point x="332" y="330" type="line"/>
      <point x="391" y="330" type="line"/>
      <point x="461" y="302"/>
      <point x="430" y="187"/>
      <point x="496" y="187" type="curve" smooth="yes"/>
      <point x="550" y="187" type="line"/>
      <point x="550" y="221" type="line"/>
      <point x="488" y="225"/>
      <point x="512" y="309"/>
      <point x="444" y="341" type="curve"/>
      <point x="494" y="353"/>
      <point x="524" y="391"/>
      <point x="524" y="447" type="curve" smooth="yes"/>
      <point x="524" y="503"/>
      <point x="479" y="538"/>
      <point x="391" y="538" type="curve"/>
      <point x="351" y="537"/>
      <point x="336" y="536"/>
      <point x="299" y="536" type="curve"/>
      <point x="242" y="536" type="line"/>
      <point x="242" y="503" type="line"/>
      <point x="276" y="496" type="line"/>
      <point x="276" y="225" type="line"/>
      <point x="242" y="217" type="line"/>
    </contour>
    <contour>
      <point x="332" y="371" type="curve"/>
      <point x="332" y="498" type="line"/>
      <point x="352" y="502"/>
      <point x="366" y="502"/>
      <point x="381" y="502" type="curve" smooth="yes"/>
      <point x="434" y="502"/>
      <point x="461" y="485"/>
      <point x="461" y="438" type="curve" smooth="yes"/>
      <point x="461" y="399"/>
      <point x="430" y="368"/>
      <point x="392" y="368" type="curve" smooth="yes"/>
      <point x="376" y="368"/>
      <point x="344" y="368"/>
    </contour>
  </outline>
</glyph>
<glyph name="macron" format="1">
  <advance width="247"/>
  <unicode hex="00AF"/>
  <outline>
    <contour>
      <point x="23" y="517" type="line"/>
      <point x="222" y="517" type="line"/>
      <point x="222" y="567" type="line"/>
      <point x="23" y="567" type="line"/>
    </contour>
  </outline>
</glyph>
<glyph name="degree" format="1">
  <advance width="339"/>
  <unicode hex="00B0"/>
  <outline>
    <contour>
      <point x="169" y="342" type="curve" smooth="yes"/>
      <point x="239" y="342"/>
      <point x="296" y="395"/>
      <point x="296" y="467" type="curve" smooth="yes"/>
      <point x="296" y="536"/>
      <point x="243" y="593"/>
      <point x="169" y="593" type="curve" smooth="yes"/>
      <point x="101" y="593"/>
      <point x="43" y="540"/>
      <point x="43" y="467" type="curve" smooth="yes"/>
      <point x="43" y="399"/>
      <point x="101" y="342"/>
    </contour>
    <contour>
      <point x="170" y="388" type="curve" smooth="yes"/>
      <point x="127" y="388"/>
      <point x="92" y="424"/>
      <point x="92" y="467" type="curve" smooth="yes"/>
      <point x="92" y="513"/>
      <point x="125" y="547"/>
      <point x="169" y="547" type="curve" smooth="yes"/>
      <point x="213" y="547"/>
      <point x="247" y="511"/>
      <point x="247" y="467" type="curve" smooth="yes"/>
      <point x="247" y="421"/>
      <point x="215" y="388"/>
    </contour>
  </outline>
</glyph>
<glyph name="plusminus" format="1">
  <advance width="490"/>
  <unicode hex="00B1"/>
  <outline>
    <contour>
      <point x="78" y="220" type="line"/>
      <point x="156" y="220" type="line"/>
      <point x="219" y="222" type="line"/>
      <point x="218" y="160" type="line"/>
      <point x="218" y="78" type="line"/>
      <point x="272" y="78" type="line"/>
      <point x="272" y="160" type="line"/>
      <point x="269" y="222" type="line"/>
      <point x="324" y="220" type="line"/>
      <point x="411" y="220" type="line"/>
      <point x="411" y="274" type="line"/>
      <point x="324" y="274" type="line"/>
      <point x="269" y="270" type="line"/>
      <point x="272" y="333" type="line"/>
      <point x="272" y="415" type="line"/>
      <point x="218" y="415" type="line"/>
      <point x="218" y="333" type="line"/>
      <point x="219" y="270" type="line"/>
      <point x="156" y="274" type="line"/>
      <point x="78" y="274" type="line"/>
    </contour>
    <contour>
      <point x="83" y="0" type="line"/>
      <point x="405" y="0" type="line"/>
      <point x="405" y="51" type="line"/>
      <point x="83" y="51" type="line"/>
    </contour>
  </outline>
</glyph>
<glyph name="twosuperior" format="1">
  <advance width="368"/>
  <unicode hex="00B2"/>
  <outline>
    <contour>
      <point x="61" y="198" type="line"/>
      <point x="315" y="198" type="line"/>
      <point x="334" y="295" type="line"/>
      <point x="299" y="303" type="line"/>
      <point x="272" y="247" type="line"/>
      <point x="112" y="236" type="line"/>
      <point x="207" y="295"/>
      <point x="303" y="389"/>
      <point x="303" y="464" type="curve" smooth="yes"/>
      <point x="303" y="524"/>
      <point x="261" y="572"/>
      <point x="180" y="572" type="curve" smooth="yes"/>
      <point x="115" y="572"/>
      <point x="62" y="534"/>
      <point x="45" y="510" type="curve"/>
      <point x="67" y="485" type="line"/>
      <point x="83" y="502"/>
      <point x="122" y="527"/>
      <point x="167" y="527" type="curve" smooth="yes"/>
      <point x="214" y="527"/>
      <point x="239" y="496"/>
      <point x="239" y="454" type="curve" smooth="yes"/>
      <point x="239" y="366"/>
      <point x="100" y="263"/>
      <point x="48" y="230" type="curve"/>
    </contour>
  </outline>
</glyph>
<glyph name="threesuperior" format="1">
  <advance width="360"/>
  <unicode hex="00B3"/>
  <outline>
    <contour>
      <point x="57" y="212" type="line"/>
      <point x="88" y="198"/>
      <point x="129" y="191"/>
      <point x="159" y="191" type="curve" smooth="yes"/>
      <point x="271" y="191"/>
      <point x="329" y="241"/>
      <point x="329" y="306" type="curve" smooth="yes"/>
      <point x="329" y="345"/>
      <point x="296" y="394"/>
      <point x="212" y="388" type="curve"/>
      <point x="275" y="414"/>
      <point x="295" y="451"/>
      <point x="295" y="489" type="curve" smooth="yes"/>
      <point x="295" y="536"/>
      <point x="251" y="572"/>
      <point x="181" y="572" type="curve" smooth="yes"/>
      <point x="124" y="572"/>
      <point x="74" y="556"/>
      <point x="51" y="532" type="curve"/>
      <point x="70" y="500" type="line"/>
      <point x="91" y="517"/>
      <point x="129" y="528"/>
      <point x="164" y="528" type="curve" smooth="yes"/>
      <point x="210" y="528"/>
      <point x="230" y="509"/>
      <point x="230" y="478" type="curve" smooth="yes"/>
      <point x="230" y="444"/>
      <point x="201" y="421"/>
      <point x="170" y="406" type="curve"/>
      <point x="150" y="397"/>
      <point x="130" y="390"/>
      <point x="119" y="388" type="curve"/>
      <point x="130" y="353" type="line"/>
      <point x="174" y="368" type="line"/>
      <point x="230" y="371"/>
      <point x="262" y="340"/>
      <point x="262" y="306" type="curve" smooth="yes"/>
      <point x="262" y="256"/>
      <point x="222" y="232"/>
      <point x="145" y="232" type="curve" smooth="yes"/>
      <point x="114" y="232"/>
      <point x="82" y="241"/>
      <point x="57" y="250" type="curve"/>
    </contour>
  </outline>
</glyph>
<glyph name="acute" format="1">
  <advance width="247"/>
  <unicode hex="00B4"/>
  <outline>
    <contour>
      <point x="103" y="485" type="line"/>
      <point x="104" y="485" type="line"/>
      <point x="137" y="500"/>
      <point x="228" y="577"/>
      <point x="248" y="608" type="curve"/>
      <point x="197" y="653" type="line"/>
      <point x="196" y="653" type="line"/>
      <point x="79" y="508" type="line"/>
    </contour>
  </outline>
</glyph>
<glyph name="uni00B5" format="1">
  <advance width="506"/>
  <unicode hex="00B5"/>
  <outline>
    <contour>
      <point x="92" y="-135" type="line"/>
      <point x="158" y="-135" type="line"/>
      <point x="158" y="31" type="line"/>
      <point x="178" y="7"/>
      <point x="215" y="-7"/>
      <point x="251" y="-7" type="curve" smooth="yes"/>
      <point x="299" y="-7"/>
      <point x="339" y="21"/>
      <point x="356" y="56" type="curve"/>
      <point x="356" y="21" type="line" smooth="yes"/>
      <point x="356" y="1"/>
      <point x="368" y="-10"/>
      <point x="391" y="-10" type="curve" smooth="yes"/>
      <point x="416" y="-10"/>
      <point x="448" y="-4"/>
      <point x="462" y="3" type="curve"/>
      <point x="462" y="36" type="line"/>
      <point x="418" y="36" type="line"/>
      <point x="418" y="410" type="line"/>
      <point x="407" y="419" type="line"/>
      <point x="295" y="410" type="line"/>
      <point x="295" y="383" type="line"/>
      <point x="347" y="367" type="line"/>
      <point x="347" y="96" type="line"/>
      <point x="337" y="77"/>
      <point x="308" y="42"/>
      <point x="254" y="42" type="curve" smooth="yes"/>
      <point x="190" y="42"/>
      <point x="163" y="94"/>
      <point x="163" y="121" type="curve" smooth="yes"/>
      <point x="163" y="410" type="line"/>
      <point x="149" y="419" type="line"/>
      <point x="47" y="409" type="line"/>
      <point x="47" y="383" type="line"/>
      <point x="92" y="367" type="line"/>
    </contour>
  </outline>
</glyph>
<glyph name="paragraph" format="1">
  <advance width="531"/>
  <unicode hex="00B6"/>
  <outline>
    <contour>
      <point x="120" y="0" type="line"/>
      <point x="257" y="0" type="line"/>
      <point x="257" y="571" type="line"/>
      <point x="261" y="571"/>
      <point x="267" y="572"/>
      <point x="271" y="572" type="curve" smooth="yes"/>
      <point x="303" y="572"/>
      <point x="337" y="568"/>
      <point x="355" y="567" type="curve"/>
      <point x="355" y="0" type="line"/>
      <point x="473" y="0" type="line"/>
      <point x="473" y="34" type="line"/>
      <point x="419" y="42" type="line"/>
      <point x="419" y="568" type="line"/>
      <point x="482" y="576" type="line"/>
      <point x="482" y="612" type="line"/>
      <point x="415" y="612" type="line"/>
      <point x="329" y="612"/>
      <point x="307" y="619"/>
      <point x="233" y="619" type="curve" smooth="yes"/>
      <point x="104" y="619"/>
      <point x="35" y="550"/>
      <point x="35" y="458" type="curve" smooth="yes"/>
      <point x="35" y="354"/>
      <point x="87" y="294"/>
      <point x="193" y="294" type="curve"/>
      <point x="193" y="42" type="line"/>
      <point x="120" y="34" type="line"/>
    </contour>
  </outline>
</glyph>
<glyph name="periodcentered" format="1">
  <advance width="255"/>
  <unicode hex="00B7"/>
  <outline>
    <contour>
      <point x="79" y="244" type="curve" smooth="yes"/>
      <point x="79" y="218"/>
      <point x="100" y="198"/>
      <point x="127" y="198" type="curve" smooth="yes"/>
      <point x="154" y="198"/>
      <point x="176" y="217"/>
      <point x="176" y="244" type="curve" smooth="yes"/>
      <point x="176" y="271"/>
      <point x="155" y="292"/>
      <point x="127" y="292" type="curve" smooth="yes"/>
      <point x="100" y="292"/>
      <point x="79" y="272"/>
    </contour>
  </outline>
</glyph>
<glyph name="cedilla" format="1">
  <advance width="222"/>
  <unicode hex="00B8"/>
  <outline>
    <contour>
      <point x="67" y="0" type="line"/>
      <point x="74" y="-10"/>
      <point x="91" y="-42"/>
      <point x="91" y="-72" type="curve" smooth="yes"/>
      <point x="91" y="-117"/>
      <point x="72" y="-124"/>
      <point x="37" y="-124" type="curve"/>
      <point x="29" y="-124"/>
      <point x="14" y="-122"/>
      <point x="4" y="-119" type="curve"/>
      <point x="3" y="-167" type="line"/>
      <point x="16" y="-173"/>
      <point x="39" y="-177"/>
      <point x="56" y="-177" type="curve" smooth="yes"/>
      <point x="113" y="-177"/>
      <point x="147" y="-159"/>
      <point x="149" y="-106" type="curve" smooth="yes"/>
      <point x="151" y="-59"/>
      <point x="117" y="-14"/>
      <point x="102" y="0" type="curve"/>
      <point x="88" y="4" type="line"/>
    </contour>
  </outline>
</glyph>
<glyph name="onesuperior" format="1">
  <advance width="357"/>
  <unicode hex="00B9"/>
  <outline>
    <contour>
      <point x="70" y="199" type="line"/>
      <point x="307" y="199" type="line"/>
      <point x="307" y="232" type="line"/>
      <point x="225" y="240" type="line"/>
      <point x="225" y="565" type="line"/>
      <point x="189" y="572" type="line"/>
      <point x="187" y="572" type="line"/>
      <point x="146" y="541"/>
      <point x="100" y="525"/>
      <point x="61" y="513" type="curve"/>
      <point x="70" y="476" type="line"/>
      <point x="99" y="482"/>
      <point x="134" y="489"/>
      <point x="164" y="502" type="curve"/>
      <point x="164" y="240" type="line"/>
      <point x="70" y="232" type="line"/>
    </contour>
  </outline>
</glyph>
<glyph name="ordmasculine" format="1">
  <advance width="379"/>
  <unicode hex="00BA"/>
  <outline>
    <contour>
      <point x="190" y="245" type="curve" smooth="yes"/>
      <point x="258" y="245"/>
      <point x="342" y="292"/>
      <point x="343" y="412" type="curve" smooth="yes"/>
      <point x="345" y="521"/>
      <point x="287" y="581"/>
      <point x="194" y="581" type="curve" smooth="yes"/>
      <point x="122" y="581"/>
      <point x="38" y="531"/>
      <point x="37" y="416" type="curve" smooth="yes"/>
      <point x="35" y="299"/>
      <point x="105" y="244"/>
    </contour>
    <contour>
      <point x="189" y="279" type="curve" smooth="yes"/>
      <point x="145" y="279"/>
      <point x="107" y="329"/>
      <point x="107" y="419" type="curve" smooth="yes"/>
      <point x="107" y="509"/>
      <point x="143" y="545"/>
      <point x="191" y="546" type="curve" smooth="yes"/>
      <point x="242" y="546"/>
      <point x="273" y="496"/>
      <point x="273" y="408" type="curve" smooth="yes"/>
      <point x="273" y="302"/>
      <point x="240" y="280"/>
    </contour>
  </outline>
</glyph>
<glyph name="guillemotright" format="1">
  <advance width="689"/>
  <unicode hex="00BB"/>
  <outline>
    <contour>
      <point x="604" y="196" type="line"/>
      <point x="366" y="40" type="line"/>
      <point x="342" y="77" type="line"/>
      <point x="522" y="222" type="line"/>
      <point x="344" y="371" type="line"/>
      <point x="366" y="407" type="line"/>
      <point x="604" y="247" type="line"/>
    </contour>
    <contour>
      <point x="344" y="196" type="line"/>
      <point x="105" y="40" type="line"/>
      <point x="82" y="77" type="line"/>
      <point x="261" y="222" type="line"/>
      <point x="84" y="371" type="line"/>
      <point x="105" y="407" type="line"/>
      <point x="344" y="247" type="line"/>
    </contour>
  </outline>
</glyph>
<glyph name="onequarter" format="1">
  <advance width="867"/>
  <unicode hex="00BC"/>
  <outline>
    <contour>
      <point x="536" y="73" type="line"/>
      <point x="717" y="73" type="line"/>
      <point x="717" y="0" type="line"/>
      <point x="775" y="0" type="line"/>
      <point x="775" y="73" type="line"/>
      <point x="842" y="73" type="line"/>
      <point x="842" y="121" type="line"/>
      <point x="775" y="117" type="line"/>
      <point x="775" y="218" type="line"/>
      <point x="723" y="213" type="line"/>
      <point x="717" y="114" type="line"/>
      <point x="574" y="107" type="line"/>
      <point x="601" y="144" type="line"/>
      <point x="746" y="380" type="line"/>
      <point x="734" y="394" type="line"/>
      <point x="678" y="394" type="line"/>
      <point x="670" y="378"/>
      <point x="519" y="110"/>
      <point x="514" y="101" type="curve"/>
    </contour>
    <contour>
      <point x="70" y="199" type="line"/>
      <point x="307" y="199" type="line"/>
      <point x="307" y="232" type="line"/>
      <point x="225" y="240" type="line"/>
      <point x="225" y="565" type="line"/>
      <point x="189" y="572" type="line"/>
      <point x="187" y="572" type="line"/>
      <point x="146" y="541"/>
      <point x="100" y="525"/>
      <point x="61" y="513" type="curve"/>
      <point x="70" y="476" type="line"/>
      <point x="99" y="482"/>
      <point x="134" y="489"/>
      <point x="164" y="502" type="curve"/>
      <point x="164" y="240" type="line"/>
      <point x="70" y="232" type="line"/>
    </contour>
    <contour>
      <point x="315" y="-56" type="line"/>
      <point x="584" y="598" type="line"/>
      <point x="535" y="603" type="line"/>
      <point x="264" y="-52" type="line"/>
    </contour>
  </outline>
</glyph>
<glyph name="threequarters" format="1">
  <advance width="870"/>
  <unicode hex="00BE"/>
  <outline>
    <contour>
      <point x="539" y="73" type="line"/>
      <point x="720" y="73" type="line"/>
      <point x="720" y="0" type="line"/>
      <point x="778" y="0" type="line"/>
      <point x="778" y="73" type="line"/>
      <point x="845" y="73" type="line"/>
      <point x="845" y="121" type="line"/>
      <point x="778" y="117" type="line"/>
      <point x="778" y="218" type="line"/>
      <point x="726" y="213" type="line"/>
      <point x="721" y="114" type="line"/>
      <point x="577" y="107" type="line"/>
      <point x="605" y="144" type="line"/>
      <point x="749" y="380" type="line"/>
      <point x="738" y="394" type="line"/>
      <point x="681" y="394" type="line"/>
      <point x="674" y="378"/>
      <point x="522" y="110"/>
      <point x="518" y="101" type="curve"/>
    </contour>
    <contour>
      <point x="57" y="212" type="line"/>
      <point x="88" y="198"/>
      <point x="129" y="191"/>
      <point x="159" y="191" type="curve" smooth="yes"/>
      <point x="271" y="191"/>
      <point x="329" y="241"/>
      <point x="329" y="306" type="curve" smooth="yes"/>
      <point x="329" y="345"/>
      <point x="296" y="394"/>
      <point x="212" y="388" type="curve"/>
      <point x="275" y="414"/>
      <point x="295" y="451"/>
      <point x="295" y="489" type="curve" smooth="yes"/>
      <point x="295" y="536"/>
      <point x="251" y="572"/>
      <point x="181" y="572" type="curve" smooth="yes"/>
      <point x="124" y="572"/>
      <point x="74" y="556"/>
      <point x="51" y="532" type="curve"/>
      <point x="70" y="500" type="line"/>
      <point x="91" y="517"/>
      <point x="129" y="528"/>
      <point x="164" y="528" type="curve" smooth="yes"/>
      <point x="210" y="528"/>
      <point x="230" y="509"/>
      <point x="230" y="478" type="curve" smooth="yes"/>
      <point x="230" y="444"/>
      <point x="201" y="421"/>
      <point x="170" y="406" type="curve"/>
      <point x="150" y="397"/>
      <point x="130" y="390"/>
      <point x="119" y="388" type="curve"/>
      <point x="130" y="353" type="line"/>
      <point x="174" y="368" type="line"/>
      <point x="230" y="371"/>
      <point x="262" y="340"/>
      <point x="262" y="306" type="curve" smooth="yes"/>
      <point x="262" y="256"/>
      <point x="222" y="232"/>
      <point x="145" y="232" type="curve" smooth="yes"/>
      <point x="114" y="232"/>
      <point x="82" y="241"/>
      <point x="57" y="250" type="curve"/>
    </contour>
    <contour>
      <point x="318" y="-56" type="line"/>
      <point x="587" y="598" type="line"/>
      <point x="538" y="603" type="line"/>
      <point x="267" y="-52" type="line"/>
    </contour>
  </outline>
</glyph>
<glyph name="questiondown" format="1">
  <advance width="358"/>
  <unicode hex="00BF"/>
  <outline>
    <contour>
      <point x="211" y="367" type="curve"/>
      <point x="170" y="356" type="line"/>
      <point x="179" y="326"/>
      <point x="185" y="297"/>
      <point x="185" y="285" type="curve" smooth="yes"/>
      <point x="185" y="224"/>
      <point x="19" y="225"/>
      <point x="19" y="116" type="curve" smooth="yes"/>
      <point x="19" y="52"/>
      <point x="69" y="-37"/>
      <point x="177" y="-37" type="curve" smooth="yes"/>
      <point x="218" y="-37"/>
      <point x="259" y="-24"/>
      <point x="287" y="-8" type="curve"/>
      <point x="261" y="54" type="line"/>
      <point x="228" y="38"/>
      <point x="192" y="26"/>
      <point x="160" y="26" type="curve" smooth="yes"/>
      <point x="105" y="26"/>
      <point x="68" y="60"/>
      <point x="68" y="98" type="curve" smooth="yes"/>
      <point x="68" y="177"/>
      <point x="244" y="168"/>
      <point x="244" y="262" type="curve" smooth="yes"/>
      <point x="244" y="293"/>
      <point x="228" y="336"/>
    </contour>
    <contour>
      <point x="224" y="475" type="curve" smooth="yes"/>
      <point x="224" y="502"/>
      <point x="204" y="522"/>
      <point x="177" y="522" type="curve" smooth="yes"/>
      <point x="149" y="522"/>
      <point x="128" y="502"/>
      <point x="128" y="476" type="curve" smooth="yes"/>
      <point x="128" y="448"/>
      <point x="148" y="427"/>
      <point x="177" y="427" type="curve" smooth="yes"/>
      <point x="204" y="427"/>
      <point x="224" y="448"/>
    </contour>
  </outline>
</glyph>
<glyph name="Agrave" format="1">
  <advance width="511"/>
  <unicode hex="00C0"/>
  <outline>
    <contour>
      <point x="290" y="594" type="curve"/>
      <point x="291" y="594" type="line"/>
      <point x="314" y="615" type="line"/>
      <point x="194" y="726" type="line"/>
      <point x="146" y="685" type="line"/>
      <point x="171" y="652"/>
      <point x="256" y="607"/>
    </contour>
    <contour>
      <point x="-9" y="0" type="line"/>
      <point x="163" y="0" type="line"/>
      <point x="163" y="35" type="line"/>
      <point x="99" y="42" type="line"/>
      <point x="135" y="154" type="line"/>
      <point x="356" y="154" type="line"/>
      <point x="393" y="43" type="line"/>
      <point x="330" y="35" type="line"/>
      <point x="330" y="0" type="line"/>
      <point x="521" y="0" type="line"/>
      <point x="521" y="35" type="line"/>
      <point x="474" y="43" type="line"/>
      <point x="292" y="555" type="line"/>
      <point x="218" y="555" type="line"/>
      <point x="37" y="43" type="line"/>
      <point x="-10" y="35" type="line"/>
    </contour>
    <contour>
      <point x="226" y="437" type="line"/>
      <point x="244" y="505" type="line"/>
      <point x="263" y="438" type="line"/>
      <point x="343" y="197" type="line"/>
      <point x="148" y="197" type="line"/>
    </contour>
  </outline>
</glyph>
<glyph name="Aacute" format="1">
  <advance width="511"/>
  <unicode hex="00C1"/>
  <outline>
    <contour>
      <point x="230" y="594" type="line"/>
      <point x="231" y="594" type="line"/>
      <point x="263" y="606"/>
      <point x="346" y="651"/>
      <point x="375" y="685" type="curve"/>
      <point x="326" y="726" type="line"/>
      <point x="325" y="726" type="line"/>
      <point x="205" y="615" type="line"/>
    </contour>
    <contour>
      <point x="-9" y="0" type="line"/>
      <point x="163" y="0" type="line"/>
      <point x="163" y="35" type="line"/>
      <point x="99" y="42" type="line"/>
      <point x="135" y="154" type="line"/>
      <point x="356" y="154" type="line"/>
      <point x="393" y="43" type="line"/>
      <point x="330" y="35" type="line"/>
      <point x="330" y="0" type="line"/>
      <point x="521" y="0" type="line"/>
      <point x="521" y="35" type="line"/>
      <point x="474" y="43" type="line"/>
      <point x="292" y="555" type="line"/>
      <point x="218" y="555" type="line"/>
      <point x="37" y="43" type="line"/>
      <point x="-10" y="35" type="line"/>
    </contour>
    <contour>
      <point x="226" y="437" type="line"/>
      <point x="244" y="505" type="line"/>
      <point x="263" y="438" type="line"/>
      <point x="343" y="197" type="line"/>
      <point x="148" y="197" type="line"/>
    </contour>
  </outline>
</glyph>
<glyph name="Acircumflex" format="1">
  <advance width="511"/>
  <unicode hex="00C2"/>
  <outline>
    <contour>
      <point x="155" y="601" type="line"/>
      <point x="255" y="678" type="line"/>
      <point x="353" y="601" type="line"/>
      <point x="382" y="621" type="line"/>
      <point x="285" y="728" type="line"/>
      <point x="225" y="728" type="line"/>
      <point x="127" y="621" type="line"/>
    </contour>
    <contour>
      <point x="-9" y="0" type="line"/>
      <point x="163" y="0" type="line"/>
      <point x="163" y="35" type="line"/>
      <point x="99" y="42" type="line"/>
      <point x="135" y="154" type="line"/>
      <point x="356" y="154" type="line"/>
      <point x="393" y="43" type="line"/>
      <point x="330" y="35" type="line"/>
      <point x="330" y="0" type="line"/>
      <point x="521" y="0" type="line"/>
      <point x="521" y="35" type="line"/>
      <point x="474" y="43" type="line"/>
      <point x="292" y="555" type="line"/>
      <point x="218" y="555" type="line"/>
      <point x="37" y="43" type="line"/>
      <point x="-10" y="35" type="line"/>
    </contour>
    <contour>
      <point x="226" y="437" type="line"/>
      <point x="244" y="505" type="line"/>
      <point x="263" y="438" type="line"/>
      <point x="343" y="197" type="line"/>
      <point x="148" y="197" type="line"/>
    </contour>
  </outline>
</glyph>
<glyph name="Atilde" format="1">
  <advance width="511"/>
  <unicode hex="00C3"/>
  <outline>
    <contour>
      <point x="314" y="613" type="curve" smooth="yes"/>
      <point x="363" y="613"/>
      <point x="393" y="650"/>
      <point x="406" y="689" type="curve"/>
      <point x="375" y="709" type="line"/>
      <point x="366" y="694"/>
      <point x="354" y="663"/>
      <point x="320" y="663" type="curve" smooth="yes"/>
      <point x="278" y="663"/>
      <point x="265" y="725"/>
      <point x="205" y="725" type="curve" smooth="yes"/>
      <point x="152" y="725"/>
      <point x="114" y="681"/>
      <point x="105" y="650" type="curve"/>
      <point x="138" y="630" type="line"/>
      <point x="145" y="643"/>
      <point x="160" y="675"/>
      <point x="194" y="675" type="curve" smooth="yes"/>
      <point x="240" y="675"/>
      <point x="254" y="613"/>
    </contour>
    <contour>
      <point x="-9" y="0" type="line"/>
      <point x="163" y="0" type="line"/>
      <point x="163" y="35" type="line"/>
      <point x="99" y="42" type="line"/>
      <point x="135" y="154" type="line"/>
      <point x="356" y="154" type="line"/>
      <point x="393" y="43" type="line"/>
      <point x="330" y="35" type="line"/>
      <point x="330" y="0" type="line"/>
      <point x="521" y="0" type="line"/>
      <point x="521" y="35" type="line"/>
      <point x="474" y="43" type="line"/>
      <point x="292" y="555" type="line"/>
      <point x="218" y="555" type="line"/>
      <point x="37" y="43" type="line"/>
      <point x="-10" y="35" type="line"/>
    </contour>
    <contour>
      <point x="226" y="437" type="line"/>
      <point x="244" y="505" type="line"/>
      <point x="263" y="438" type="line"/>
      <point x="343" y="197" type="line"/>
      <point x="148" y="197" type="line"/>
    </contour>
  </outline>
</glyph>
<glyph name="Adieresis" format="1">
  <advance width="511"/>
  <unicode hex="00C4"/>
  <outline>
    <contour>
      <point x="161" y="614" type="curve"/>
      <point x="196" y="614"/>
      <point x="211" y="637"/>
      <point x="211" y="666" type="curve" smooth="yes"/>
      <point x="211" y="689"/>
      <point x="196" y="712"/>
      <point x="168" y="712" type="curve"/>
      <point x="137" y="712"/>
      <point x="120" y="686"/>
      <point x="120" y="659" type="curve" smooth="yes"/>
      <point x="120" y="634"/>
      <point x="137" y="614"/>
    </contour>
    <contour>
      <point x="341" y="614" type="curve"/>
      <point x="375" y="614"/>
      <point x="390" y="637"/>
      <point x="390" y="666" type="curve" smooth="yes"/>
      <point x="390" y="689"/>
      <point x="376" y="712"/>
      <point x="347" y="712" type="curve"/>
      <point x="315" y="712"/>
      <point x="300" y="686"/>
      <point x="300" y="659" type="curve" smooth="yes"/>
      <point x="300" y="635"/>
      <point x="316" y="614"/>
    </contour>
    <contour>
      <point x="-9" y="0" type="line"/>
      <point x="163" y="0" type="line"/>
      <point x="163" y="35" type="line"/>
      <point x="99" y="42" type="line"/>
      <point x="135" y="154" type="line"/>
      <point x="356" y="154" type="line"/>
      <point x="393" y="43" type="line"/>
      <point x="330" y="35" type="line"/>
      <point x="330" y="0" type="line"/>
      <point x="521" y="0" type="line"/>
      <point x="521" y="35" type="line"/>
      <point x="474" y="43" type="line"/>
      <point x="292" y="555" type="line"/>
      <point x="218" y="555" type="line"/>
      <point x="37" y="43" type="line"/>
      <point x="-10" y="35" type="line"/>
    </contour>
    <contour>
      <point x="226" y="437" type="line"/>
      <point x="244" y="505" type="line"/>
      <point x="263" y="438" type="line"/>
      <point x="343" y="197" type="line"/>
      <point x="148" y="197" type="line"/>
    </contour>
  </outline>
</glyph>
<glyph name="Aring" format="1">
  <advance width="511"/>
  <unicode hex="00C5"/>
  <outline>
    <contour>
      <point x="255" y="546" type="curve"/>
      <point x="255" y="546" type="line"/>
      <point x="319" y="546"/>
      <point x="374" y="578"/>
      <point x="374" y="637" type="curve" smooth="yes"/>
      <point x="374" y="691"/>
      <point x="336" y="728"/>
      <point x="261" y="728" type="curve"/>
      <point x="199" y="728"/>
      <point x="138" y="698"/>
      <point x="137" y="638" type="curve" smooth="yes"/>
      <point x="136" y="586"/>
      <point x="172" y="546"/>
    </contour>
    <contour>
      <point x="257" y="578" type="curve"/>
      <point x="208" y="578"/>
      <point x="189" y="607"/>
      <point x="189" y="639" type="curve" smooth="yes"/>
      <point x="189" y="676"/>
      <point x="212" y="696"/>
      <point x="257" y="696" type="curve"/>
      <point x="305" y="696"/>
      <point x="323" y="669"/>
      <point x="323" y="634" type="curve" smooth="yes"/>
      <point x="323" y="598"/>
      <point x="303" y="578"/>
    </contour>
    <contour>
      <point x="-9" y="0" type="line"/>
      <point x="163" y="0" type="line"/>
      <point x="163" y="35" type="line"/>
      <point x="99" y="42" type="line"/>
      <point x="135" y="154" type="line"/>
      <point x="356" y="154" type="line"/>
      <point x="393" y="43" type="line"/>
      <point x="330" y="35" type="line"/>
      <point x="330" y="0" type="line"/>
      <point x="521" y="0" type="line"/>
      <point x="521" y="35" type="line"/>
      <point x="474" y="43" type="line"/>
      <point x="292" y="555" type="line"/>
      <point x="218" y="555" type="line"/>
      <point x="37" y="43" type="line"/>
      <point x="-10" y="35" type="line"/>
    </contour>
    <contour>
      <point x="226" y="437" type="line"/>
      <point x="244" y="505" type="line"/>
      <point x="263" y="438" type="line"/>
      <point x="343" y="197" type="line"/>
      <point x="148" y="197" type="line"/>
    </contour>
  </outline>
</glyph>
<glyph name="AE" format="1">
  <advance width="680"/>
  <unicode hex="00C6"/>
  <outline>
    <contour>
      <point x="232" y="0" type="line"/>
      <point x="642" y="0" type="line"/>
      <point x="670" y="129" type="line"/>
      <point x="627" y="140" type="line"/>
      <point x="583" y="48" type="line"/>
      <point x="370" y="39" type="line"/>
      <point x="370" y="263" type="line"/>
      <point x="495" y="261" type="line"/>
      <point x="505" y="198" type="line"/>
      <point x="546" y="198" type="line"/>
      <point x="546" y="365" type="line"/>
      <point x="505" y="365" type="line"/>
      <point x="495" y="305" type="line"/>
      <point x="370" y="303" type="line"/>
      <point x="370" y="514" type="line"/>
      <point x="556" y="510" type="line"/>
      <point x="578" y="436" type="line"/>
      <point x="619" y="436" type="line"/>
      <point x="607" y="550" type="line"/>
      <point x="96" y="550" type="line"/>
      <point x="96" y="516" type="line"/>
      <point x="195" y="508" type="line"/>
      <point x="-12" y="43" type="line"/>
      <point x="-66" y="34" type="line"/>
      <point x="-66" y="0" type="line"/>
      <point x="111" y="0" type="line"/>
      <point x="111" y="34" type="line"/>
      <point x="54" y="43" type="line"/>
      <point x="102" y="161" type="line"/>
      <point x="296" y="161" type="line"/>
      <point x="296" y="43" type="line"/>
      <point x="232" y="34" type="line"/>
    </contour>
    <contour>
      <point x="206" y="415" type="line"/>
      <point x="247" y="511" type="line"/>
      <point x="296" y="511" type="line"/>
      <point x="296" y="203" type="line"/>
      <point x="120" y="203" type="line"/>
    </contour>
  </outline>
</glyph>
<glyph name="Ecircumflex" format="1">
  <advance width="482"/>
  <unicode hex="00CA"/>
  <outline>
    <contour>
      <point x="152" y="601" type="line"/>
      <point x="251" y="678" type="line"/>
      <point x="349" y="601" type="line"/>
      <point x="379" y="621" type="line"/>
      <point x="281" y="728" type="line"/>
      <point x="222" y="728" type="line"/>
      <point x="124" y="621" type="line"/>
    </contour>
    <contour>
      <point x="35" y="0" type="line"/>
      <point x="443" y="0" type="line"/>
      <point x="464" y="128" type="line"/>
      <point x="424" y="140" type="line"/>
      <point x="384" y="48" type="line"/>
      <point x="170" y="41" type="line"/>
      <point x="170" y="263" type="line"/>
      <point x="298" y="261" type="line"/>
      <point x="308" y="198" type="line"/>
      <point x="348" y="198" type="line"/>
      <point x="348" y="365" type="line"/>
      <point x="308" y="365" type="line"/>
      <point x="298" y="305" type="line"/>
      <point x="170" y="303" type="line"/>
      <point x="170" y="513" type="line"/>
      <point x="359" y="509" type="line"/>
      <point x="380" y="437" type="line"/>
      <point x="420" y="437" type="line"/>
      <point x="409" y="550" type="line"/>
      <point x="37" y="550" type="line"/>
      <point x="37" y="515" type="line"/>
      <point x="98" y="506" type="line"/>
      <point x="98" y="43" type="line"/>
      <point x="35" y="35" type="line"/>
    </contour>
  </outline>
</glyph>
<glyph name="Edieresis" format="1">
  <advance width="482"/>
  <unicode hex="00CB"/>
  <outline>
    <contour>
      <point x="159" y="614" type="curve"/>
      <point x="192" y="614"/>
      <point x="209" y="637"/>
      <point x="209" y="666" type="curve" smooth="yes"/>
      <point x="209" y="689"/>
      <point x="194" y="712"/>
      <point x="166" y="712" type="curve"/>
      <point x="134" y="712"/>
      <point x="118" y="686"/>
      <point x="118" y="659" type="curve" smooth="yes"/>
      <point x="118" y="634"/>
      <point x="134" y="614"/>
    </contour>
    <contour>
      <point x="337" y="614" type="curve"/>
      <point x="371" y="614"/>
      <point x="387" y="637"/>
      <point x="387" y="666" type="curve" smooth="yes"/>
      <point x="387" y="689"/>
      <point x="373" y="712"/>
      <point x="344" y="712" type="curve"/>
      <point x="312" y="712"/>
      <point x="297" y="686"/>
      <point x="297" y="659" type="curve" smooth="yes"/>
      <point x="297" y="635"/>
      <point x="312" y="614"/>
    </contour>
    <contour>
      <point x="35" y="0" type="line"/>
      <point x="443" y="0" type="line"/>
      <point x="464" y="128" type="line"/>
      <point x="424" y="140" type="line"/>
      <point x="384" y="48" type="line"/>
      <point x="170" y="41" type="line"/>
      <point x="170" y="263" type="line"/>
      <point x="298" y="261" type="line"/>
      <point x="308" y="198" type="line"/>
      <point x="348" y="198" type="line"/>
      <point x="348" y="365" type="line"/>
      <point x="308" y="365" type="line"/>
      <point x="298" y="305" type="line"/>
      <point x="170" y="303" type="line"/>
      <point x="170" y="513" type="line"/>
      <point x="359" y="509" type="line"/>
      <point x="380" y="437" type="line"/>
      <point x="420" y="437" type="line"/>
      <point x="409" y="550" type="line"/>
      <point x="37" y="550" type="line"/>
      <point x="37" y="515" type="line"/>
      <point x="98" y="506" type="line"/>
      <point x="98" y="43" type="line"/>
      <point x="35" y="35" type="line"/>
    </contour>
  </outline>
</glyph>
<glyph name="Igrave" format="1">
  <advance width="297"/>
  <unicode hex="00CC"/>
  <outline>
    <contour>
      <point x="164" y="594" type="curve"/>
      <point x="165" y="594" type="line"/>
      <point x="189" y="615" type="line"/>
      <point x="68" y="726" type="line"/>
      <point x="21" y="685" type="line"/>
      <point x="46" y="652"/>
      <point x="130" y="607"/>
    </contour>
    <contour>
      <point x="42" y="0" type="line"/>
      <point x="255" y="0" type="line"/>
      <point x="255" y="34" type="line"/>
      <point x="186" y="43" type="line"/>
      <point x="186" y="506" type="line"/>
      <point x="255" y="515" type="line"/>
      <point x="255" y="550" type="line"/>
      <point x="42" y="550" type="line"/>
      <point x="42" y="515" type="line"/>
      <point x="111" y="506" type="line"/>
      <point x="111" y="43" type="line"/>
      <point x="42" y="35" type="line"/>
    </contour>
  </outline>
</glyph>
<glyph name="Iacute" format="1">
  <advance width="297"/>
  <unicode hex="00CD"/>
  <outline>
    <contour>
      <point x="135" y="594" type="line"/>
      <point x="135" y="594" type="line"/>
      <point x="169" y="606"/>
      <point x="252" y="651"/>
      <point x="280" y="685" type="curve"/>
      <point x="232" y="726" type="line"/>
      <point x="231" y="726" type="line"/>
      <point x="111" y="615" type="line"/>
    </contour>
    <contour>
      <point x="42" y="0" type="line"/>
      <point x="255" y="0" type="line"/>
      <point x="255" y="34" type="line"/>
      <point x="186" y="43" type="line"/>
      <point x="186" y="506" type="line"/>
      <point x="255" y="515" type="line"/>
      <point x="255" y="550" type="line"/>
      <point x="42" y="550" type="line"/>
      <point x="42" y="515" type="line"/>
      <point x="111" y="506" type="line"/>
      <point x="111" y="43" type="line"/>
      <point x="42" y="35" type="line"/>
    </contour>
  </outline>
</glyph>
<glyph name="Icircumflex" format="1">
  <advance width="297"/>
  <unicode hex="00CE"/>
  <outline>
    <contour>
      <point x="49" y="601" type="line"/>
      <point x="149" y="678" type="line"/>
      <point x="247" y="601" type="line"/>
      <point x="277" y="621" type="line"/>
      <point x="179" y="728" type="line"/>
      <point x="119" y="728" type="line"/>
      <point x="22" y="621" type="line"/>
    </contour>
    <contour>
      <point x="42" y="0" type="line"/>
      <point x="255" y="0" type="line"/>
      <point x="255" y="34" type="line"/>
      <point x="186" y="43" type="line"/>
      <point x="186" y="506" type="line"/>
      <point x="255" y="515" type="line"/>
      <point x="255" y="550" type="line"/>
      <point x="42" y="550" type="line"/>
      <point x="42" y="515" type="line"/>
      <point x="111" y="506" type="line"/>
      <point x="111" y="43" type="line"/>
      <point x="42" y="35" type="line"/>
    </contour>
  </outline>
</glyph>
<glyph name="Idieresis" format="1">
  <advance width="297"/>
  <unicode hex="00CF"/>
  <outline>
    <contour>
      <point x="56" y="614" type="curve"/>
      <point x="89" y="614"/>
      <point x="106" y="637"/>
      <point x="106" y="666" type="curve" smooth="yes"/>
      <point x="106" y="689"/>
      <point x="91" y="712"/>
      <point x="63" y="712" type="curve"/>
      <point x="30" y="712"/>
      <point x="15" y="686"/>
      <point x="15" y="659" type="curve" smooth="yes"/>
      <point x="15" y="634"/>
      <point x="30" y="614"/>
    </contour>
    <contour>
      <point x="235" y="614" type="curve"/>
      <point x="268" y="614"/>
      <point x="284" y="637"/>
      <point x="284" y="666" type="curve" smooth="yes"/>
      <point x="284" y="689"/>
      <point x="270" y="712"/>
      <point x="242" y="712" type="curve"/>
      <point x="210" y="712"/>
      <point x="194" y="686"/>
      <point x="194" y="659" type="curve" smooth="yes"/>
      <point x="194" y="635"/>
      <point x="210" y="614"/>
    </contour>
    <contour>
      <point x="42" y="0" type="line"/>
      <point x="255" y="0" type="line"/>
      <point x="255" y="34" type="line"/>
      <point x="186" y="43" type="line"/>
      <point x="186" y="506" type="line"/>
      <point x="255" y="515" type="line"/>
      <point x="255" y="550" type="line"/>
      <point x="42" y="550" type="line"/>
      <point x="42" y="515" type="line"/>
      <point x="111" y="506" type="line"/>
      <point x="111" y="43" type="line"/>
      <point x="42" y="35" type="line"/>
    </contour>
  </outline>
</glyph>
<glyph name="Ntilde" format="1">
  <advance width="591"/>
  <unicode hex="00D1"/>
  <outline>
    <contour>
      <point x="357" y="613" type="curve" smooth="yes"/>
      <point x="406" y="613"/>
      <point x="436" y="650"/>
      <point x="449" y="689" type="curve"/>
      <point x="417" y="709" type="line"/>
      <point x="409" y="694"/>
      <point x="397" y="663"/>
      <point x="363" y="663" type="curve" smooth="yes"/>
      <point x="321" y="663"/>
      <point x="308" y="725"/>
      <point x="248" y="725" type="curve" smooth="yes"/>
      <point x="195" y="725"/>
      <point x="158" y="681"/>
      <point x="148" y="650" type="curve"/>
      <point x="180" y="630" type="line"/>
      <point x="188" y="643"/>
      <point x="203" y="675"/>
      <point x="237" y="675" type="curve" smooth="yes"/>
      <point x="282" y="675"/>
      <point x="297" y="613"/>
    </contour>
    <contour>
      <point x="38" y="0" type="line"/>
      <point x="215" y="0" type="line"/>
      <point x="215" y="35" type="line"/>
      <point x="146" y="43" type="line"/>
      <point x="146" y="472" type="line"/>
      <point x="204" y="373" type="line"/>
      <point x="461" y="0" type="line"/>
      <point x="512" y="0" type="line"/>
      <point x="512" y="506" type="line"/>
      <point x="572" y="515" type="line"/>
      <point x="572" y="550" type="line"/>
      <point x="399" y="550" type="line"/>
      <point x="399" y="515" type="line"/>
      <point x="463" y="506" type="line"/>
      <point x="463" y="106" type="line"/>
      <point x="422" y="182" type="line"/>
      <point x="170" y="550" type="line"/>
      <point x="38" y="550" type="line"/>
      <point x="38" y="515" type="line"/>
      <point x="98" y="506" type="line"/>
      <point x="98" y="43" type="line"/>
      <point x="38" y="35" type="line"/>
    </contour>
  </outline>
</glyph>
<glyph name="Ograve" format="1">
  <advance width="534"/>
  <unicode hex="00D2"/>
  <outline>
    <contour>
      <point x="303" y="594" type="curve"/>
      <point x="304" y="594" type="line"/>
      <point x="328" y="615" type="line"/>
      <point x="208" y="726" type="line"/>
      <point x="159" y="685" type="line"/>
      <point x="184" y="652"/>
      <point x="269" y="607"/>
    </contour>
    <contour>
      <point x="262" y="-8" type="curve" smooth="yes"/>
      <point x="402" y="-6"/>
      <point x="509" y="107"/>
      <point x="509" y="281" type="curve" smooth="yes"/>
      <point x="509" y="448"/>
      <point x="429" y="556"/>
      <point x="274" y="556" type="curve" smooth="yes"/>
      <point x="133" y="556"/>
      <point x="26" y="446"/>
      <point x="26" y="271" type="curve" smooth="yes"/>
      <point x="26" y="104"/>
      <point x="108" y="-11"/>
    </contour>
    <contour>
      <point x="268" y="518" type="curve" smooth="yes"/>
      <point x="369" y="518"/>
      <point x="427" y="426"/>
      <point x="427" y="281" type="curve" smooth="yes"/>
      <point x="427" y="114"/>
      <point x="362" y="30"/>
      <point x="266" y="30" type="curve" smooth="yes"/>
      <point x="164" y="30"/>
      <point x="107" y="127"/>
      <point x="107" y="272" type="curve" smooth="yes"/>
      <point x="107" y="438"/>
      <point x="172" y="518"/>
    </contour>
  </outline>
</glyph>
<glyph name="Oacute" format="1">
  <advance width="534"/>
  <unicode hex="00D3"/>
  <outline>
    <contour>
      <point x="243" y="594" type="line"/>
      <point x="276" y="606"/>
      <point x="360" y="651"/>
      <point x="387" y="685" type="curve"/>
      <point x="339" y="726" type="line"/>
      <point x="218" y="615" type="line"/>
    </contour>
    <contour>
      <point x="262" y="-8" type="curve" smooth="yes"/>
      <point x="402" y="-6"/>
      <point x="509" y="107"/>
      <point x="509" y="281" type="curve" smooth="yes"/>
      <point x="509" y="448"/>
      <point x="429" y="556"/>
      <point x="274" y="556" type="curve" smooth="yes"/>
      <point x="133" y="556"/>
      <point x="26" y="446"/>
      <point x="26" y="271" type="curve" smooth="yes"/>
      <point x="26" y="104"/>
      <point x="108" y="-11"/>
    </contour>
    <contour>
      <point x="268" y="518" type="curve" smooth="yes"/>
      <point x="369" y="518"/>
      <point x="427" y="426"/>
      <point x="427" y="281" type="curve" smooth="yes"/>
      <point x="427" y="114"/>
      <point x="362" y="30"/>
      <point x="266" y="30" type="curve" smooth="yes"/>
      <point x="164" y="30"/>
      <point x="107" y="127"/>
      <point x="107" y="272" type="curve" smooth="yes"/>
      <point x="107" y="438"/>
      <point x="172" y="518"/>
    </contour>
  </outline>
</glyph>
<glyph name="Otilde" format="1">
  <advance width="534"/>
  <unicode hex="00D5"/>
  <outline>
    <contour>
      <point x="327" y="613" type="curve" smooth="yes"/>
      <point x="377" y="613"/>
      <point x="406" y="650"/>
      <point x="420" y="689" type="curve"/>
      <point x="388" y="709" type="line"/>
      <point x="380" y="694"/>
      <point x="368" y="663"/>
      <point x="334" y="663" type="curve" smooth="yes"/>
      <point x="291" y="663"/>
      <point x="279" y="725"/>
      <point x="219" y="725" type="curve" smooth="yes"/>
      <point x="165" y="725"/>
      <point x="128" y="681"/>
      <point x="119" y="650" type="curve"/>
      <point x="151" y="630" type="line"/>
      <point x="159" y="643"/>
      <point x="174" y="675"/>
      <point x="208" y="675" type="curve" smooth="yes"/>
      <point x="253" y="675"/>
      <point x="268" y="613"/>
    </contour>
    <contour>
      <point x="262" y="-8" type="curve" smooth="yes"/>
      <point x="402" y="-6"/>
      <point x="509" y="107"/>
      <point x="509" y="281" type="curve" smooth="yes"/>
      <point x="509" y="448"/>
      <point x="429" y="556"/>
      <point x="274" y="556" type="curve" smooth="yes"/>
      <point x="133" y="556"/>
      <point x="26" y="446"/>
      <point x="26" y="271" type="curve" smooth="yes"/>
      <point x="26" y="104"/>
      <point x="108" y="-11"/>
    </contour>
    <contour>
      <point x="268" y="518" type="curve" smooth="yes"/>
      <point x="369" y="518"/>
      <point x="427" y="426"/>
      <point x="427" y="281" type="curve" smooth="yes"/>
      <point x="427" y="114"/>
      <point x="362" y="30"/>
      <point x="266" y="30" type="curve" smooth="yes"/>
      <point x="164" y="30"/>
      <point x="107" y="127"/>
      <point x="107" y="272" type="curve" smooth="yes"/>
      <point x="107" y="438"/>
      <point x="172" y="518"/>
    </contour>
  </outline>
</glyph>
<glyph name="Odieresis" format="1">
  <advance width="534"/>
  <unicode hex="00D6"/>
  <outline>
    <contour>
      <point x="175" y="614" type="curve"/>
      <point x="209" y="614"/>
      <point x="225" y="637"/>
      <point x="225" y="666" type="curve" smooth="yes"/>
      <point x="225" y="689"/>
      <point x="210" y="712"/>
      <point x="183" y="712" type="curve"/>
      <point x="150" y="712"/>
      <point x="134" y="686"/>
      <point x="134" y="659" type="curve" smooth="yes"/>
      <point x="134" y="634"/>
      <point x="150" y="614"/>
    </contour>
    <contour>
      <point x="354" y="614" type="curve"/>
      <point x="388" y="614"/>
      <point x="404" y="637"/>
      <point x="404" y="666" type="curve" smooth="yes"/>
      <point x="404" y="689"/>
      <point x="390" y="712"/>
      <point x="361" y="712" type="curve"/>
      <point x="329" y="712"/>
      <point x="313" y="686"/>
      <point x="313" y="659" type="curve" smooth="yes"/>
      <point x="313" y="635"/>
      <point x="329" y="614"/>
    </contour>
    <contour>
      <point x="262" y="-8" type="curve" smooth="yes"/>
      <point x="402" y="-6"/>
      <point x="509" y="107"/>
      <point x="509" y="281" type="curve" smooth="yes"/>
      <point x="509" y="448"/>
      <point x="429" y="556"/>
      <point x="274" y="556" type="curve" smooth="yes"/>
      <point x="133" y="556"/>
      <point x="26" y="446"/>
      <point x="26" y="271" type="curve" smooth="yes"/>
      <point x="26" y="104"/>
      <point x="108" y="-11"/>
    </contour>
    <contour>
      <point x="268" y="518" type="curve" smooth="yes"/>
      <point x="369" y="518"/>
      <point x="427" y="426"/>
      <point x="427" y="281" type="curve" smooth="yes"/>
      <point x="427" y="114"/>
      <point x="362" y="30"/>
      <point x="266" y="30" type="curve" smooth="yes"/>
      <point x="164" y="30"/>
      <point x="107" y="127"/>
      <point x="107" y="272" type="curve" smooth="yes"/>
      <point x="107" y="438"/>
      <point x="172" y="518"/>
    </contour>
  </outline>
</glyph>
<glyph name="multiply" format="1">
  <advance width="450"/>
  <unicode hex="00D7"/>
  <outline>
    <contour>
      <point x="105" y="59" type="line"/>
      <point x="225" y="187" type="line"/>
      <point x="344" y="59" type="line"/>
      <point x="386" y="102" type="line"/>
      <point x="261" y="223" type="line"/>
      <point x="386" y="343" type="line"/>
      <point x="344" y="387" type="line"/>
      <point x="225" y="259" type="line"/>
      <point x="105" y="387" type="line"/>
      <point x="64" y="344" type="line"/>
      <point x="189" y="223" type="line"/>
      <point x="64" y="102" type="line"/>
    </contour>
  </outline>
</glyph>
<glyph name="Oslash" format="1">
  <advance width="534"/>
  <unicode hex="00D8"/>
  <outline>
    <contour>
      <point x="150" y="-76" type="line"/>
      <point x="183" y="3" type="line"/>
      <point x="207" y="-4"/>
      <point x="233" y="-9"/>
      <point x="262" y="-8" type="curve"/>
      <point x="403" y="-6"/>
      <point x="509" y="107"/>
      <point x="509" y="281" type="curve" smooth="yes"/>
      <point x="509" y="402"/>
      <point x="467" y="492"/>
      <point x="384" y="533" type="curve"/>
      <point x="415" y="608" type="line"/>
      <point x="382" y="620" type="line"/>
      <point x="353" y="545" type="line"/>
      <point x="329" y="553"/>
      <point x="303" y="556"/>
      <point x="274" y="556" type="curve" smooth="yes"/>
      <point x="134" y="556"/>
      <point x="26" y="446"/>
      <point x="26" y="271" type="curve" smooth="yes"/>
      <point x="26" y="151"/>
      <point x="69" y="58"/>
      <point x="150" y="16" type="curve"/>
      <point x="116" y="-65" type="line"/>
    </contour>
    <contour>
      <point x="268" y="518" type="curve" smooth="yes"/>
      <point x="293" y="518"/>
      <point x="316" y="513"/>
      <point x="335" y="502" type="curve"/>
      <point x="174" y="67" type="line"/>
      <point x="130" y="107"/>
      <point x="107" y="180"/>
      <point x="107" y="272" type="curve" smooth="yes"/>
      <point x="107" y="438"/>
      <point x="172" y="518"/>
    </contour>
    <contour>
      <point x="428" y="281" type="curve" smooth="yes"/>
      <point x="428" y="114"/>
      <point x="362" y="30"/>
      <point x="267" y="30" type="curve" smooth="yes"/>
      <point x="241" y="30"/>
      <point x="219" y="36"/>
      <point x="200" y="47" type="curve"/>
      <point x="361" y="482" type="line"/>
      <point x="404" y="441"/>
      <point x="428" y="371"/>
    </contour>
  </outline>
</glyph>
<glyph name="Ucircumflex" format="1">
  <advance width="548"/>
  <unicode hex="00DB"/>
  <outline>
    <contour>
      <point x="188" y="601" type="line"/>
      <point x="288" y="678" type="line"/>
      <point x="386" y="601" type="line"/>
      <point x="416" y="621" type="line"/>
      <point x="317" y="728" type="line"/>
      <point x="258" y="728" type="line"/>
      <point x="160" y="621" type="line"/>
    </contour>
    <contour>
      <point x="282" y="-6" type="curve" smooth="yes"/>
      <point x="395" y="-6"/>
      <point x="480" y="64"/>
      <point x="480" y="225" type="curve" smooth="yes"/>
      <point x="480" y="506" type="line"/>
      <point x="535" y="515" type="line"/>
      <point x="535" y="550" type="line"/>
      <point x="366" y="550" type="line"/>
      <point x="366" y="515" type="line"/>
      <point x="427" y="506" type="line"/>
      <point x="427" y="221" type="line" smooth="yes"/>
      <point x="427" y="100"/>
      <point x="381" y="33"/>
      <point x="290" y="33" type="curve" smooth="yes"/>
      <point x="205" y="33"/>
      <point x="147" y="81"/>
      <point x="147" y="226" type="curve" smooth="yes"/>
      <point x="147" y="506" type="line"/>
      <point x="210" y="515" type="line"/>
      <point x="210" y="550" type="line"/>
      <point x="18" y="550" type="line"/>
      <point x="18" y="515" type="line"/>
      <point x="72" y="506" type="line"/>
      <point x="72" y="234" type="line" smooth="yes"/>
      <point x="72" y="70"/>
      <point x="137" y="-6"/>
    </contour>
  </outline>
</glyph>
<glyph name="Udieresis" format="1">
  <advance width="548"/>
  <unicode hex="00DC"/>
  <outline>
    <contour>
      <point x="195" y="614" type="curve"/>
      <point x="228" y="614"/>
      <point x="245" y="637"/>
      <point x="245" y="666" type="curve" smooth="yes"/>
      <point x="245" y="689"/>
      <point x="230" y="712"/>
      <point x="201" y="712" type="curve"/>
      <point x="169" y="712"/>
      <point x="154" y="686"/>
      <point x="154" y="659" type="curve" smooth="yes"/>
      <point x="154" y="634"/>
      <point x="169" y="614"/>
    </contour>
    <contour>
      <point x="374" y="614" type="curve"/>
      <point x="407" y="614"/>
      <point x="424" y="637"/>
      <point x="424" y="666" type="curve" smooth="yes"/>
      <point x="424" y="689"/>
      <point x="409" y="712"/>
      <point x="381" y="712" type="curve"/>
      <point x="349" y="712"/>
      <point x="334" y="686"/>
      <point x="334" y="659" type="curve" smooth="yes"/>
      <point x="334" y="635"/>
      <point x="349" y="614"/>
    </contour>
    <contour>
      <point x="282" y="-6" type="curve" smooth="yes"/>
      <point x="395" y="-6"/>
      <point x="480" y="64"/>
      <point x="480" y="225" type="curve" smooth="yes"/>
      <point x="480" y="506" type="line"/>
      <point x="535" y="515" type="line"/>
      <point x="535" y="550" type="line"/>
      <point x="366" y="550" type="line"/>
      <point x="366" y="515" type="line"/>
      <point x="427" y="506" type="line"/>
      <point x="427" y="221" type="line" smooth="yes"/>
      <point x="427" y="100"/>
      <point x="381" y="33"/>
      <point x="290" y="33" type="curve" smooth="yes"/>
      <point x="205" y="33"/>
      <point x="147" y="81"/>
      <point x="147" y="226" type="curve" smooth="yes"/>
      <point x="147" y="506" type="line"/>
      <point x="210" y="515" type="line"/>
      <point x="210" y="550" type="line"/>
      <point x="18" y="550" type="line"/>
      <point x="18" y="515" type="line"/>
      <point x="72" y="506" type="line"/>
      <point x="72" y="234" type="line" smooth="yes"/>
      <point x="72" y="70"/>
      <point x="137" y="-6"/>
    </contour>
  </outline>
</glyph>
<glyph name="Yacute" format="1">
  <advance width="477"/>
  <unicode hex="00DD"/>
  <outline>
    <contour>
      <point x="220" y="594" type="line"/>
      <point x="253" y="606"/>
      <point x="337" y="651"/>
      <point x="364" y="685" type="curve"/>
      <point x="317" y="726" type="line"/>
      <point x="195" y="615" type="line"/>
    </contour>
    <contour>
      <point x="123" y="0" type="line"/>
      <point x="363" y="0" type="line"/>
      <point x="363" y="35" type="line"/>
      <point x="280" y="43" type="line"/>
      <point x="280" y="214" type="line"/>
      <point x="437" y="506" type="line"/>
      <point x="484" y="515" type="line"/>
      <point x="484" y="550" type="line"/>
      <point x="319" y="550" type="line"/>
      <point x="319" y="515" type="line"/>
      <point x="379" y="506" type="line"/>
      <point x="278" y="304" type="line"/>
      <point x="251" y="246" type="line"/>
      <point x="226" y="304" type="line"/>
      <point x="119" y="506" type="line"/>
      <point x="179" y="515" type="line"/>
      <point x="179" y="550" type="line"/>
      <point x="-9" y="550" type="line"/>
      <point x="-9" y="515" type="line"/>
      <point x="36" y="506" type="line"/>
      <point x="204" y="214" type="line"/>
      <point x="204" y="43" type="line"/>
      <point x="123" y="35" type="line"/>
    </contour>
  </outline>
</glyph>
<glyph name="Thorn" format="1">
  <advance width="475"/>
  <unicode hex="00DE"/>
  <outline>
    <contour>
      <point x="35" y="0" type="line"/>
      <point x="249" y="0" type="line"/>
      <point x="249" y="34" type="line"/>
      <point x="169" y="43" type="line"/>
      <point x="169" y="124" type="line"/>
      <point x="192" y="122"/>
      <point x="220" y="120"/>
      <point x="261" y="120" type="curve" smooth="yes"/>
      <point x="380" y="120"/>
      <point x="453" y="172"/>
      <point x="453" y="284" type="curve" smooth="yes"/>
      <point x="453" y="382"/>
      <point x="391" y="430"/>
      <point x="285" y="430" type="curve" smooth="yes"/>
      <point x="244" y="430"/>
      <point x="206" y="425"/>
      <point x="169" y="422" type="curve"/>
      <point x="169" y="507" type="line"/>
      <point x="235" y="515" type="line"/>
      <point x="235" y="551" type="line"/>
      <point x="37" y="551" type="line"/>
      <point x="37" y="515" type="line"/>
      <point x="97" y="507" type="line"/>
      <point x="97" y="43" type="line"/>
      <point x="35" y="34" type="line"/>
    </contour>
    <contour>
      <point x="255" y="157" type="curve" smooth="yes"/>
      <point x="229" y="157"/>
      <point x="200" y="157"/>
      <point x="169" y="160" type="curve"/>
      <point x="169" y="383" type="line"/>
      <point x="189" y="386"/>
      <point x="218" y="390"/>
      <point x="249" y="390" type="curve"/>
      <point x="338" y="393"/>
      <point x="374" y="349"/>
      <point x="374" y="280" type="curve" smooth="yes"/>
      <point x="374" y="190"/>
      <point x="322" y="157"/>
    </contour>
  </outline>
</glyph>
<glyph name="germandbls" format="1">
  <advance width="466"/>
  <unicode hex="00DF"/>
  <outline>
    <contour>
      <point x="18" y="0" type="line"/>
      <point x="142" y="0" type="line"/>
      <point x="142" y="357" type="line"/>
      <point x="142" y="478"/>
      <point x="186" y="539"/>
      <point x="259" y="539" type="curve" smooth="yes"/>
      <point x="307" y="539"/>
      <point x="331" y="514"/>
      <point x="331" y="465" type="curve" smooth="yes"/>
      <point x="331" y="392"/>
      <point x="254" y="361"/>
      <point x="254" y="307" type="curve" smooth="yes"/>
      <point x="254" y="217"/>
      <point x="374" y="195"/>
      <point x="374" y="106" type="curve" smooth="yes"/>
      <point x="374" y="69"/>
      <point x="351" y="39"/>
      <point x="292" y="39" type="curve" smooth="yes"/>
      <point x="265" y="39"/>
      <point x="240" y="44"/>
      <point x="222" y="52" type="curve"/>
      <point x="222" y="0" type="line"/>
      <point x="236" y="-4"/>
      <point x="265" y="-8"/>
      <point x="284" y="-8" type="curve" smooth="yes"/>
      <point x="380" y="-8"/>
      <point x="450" y="35"/>
      <point x="450" y="121" type="curve" smooth="yes"/>
      <point x="450" y="232"/>
      <point x="320" y="261"/>
      <point x="320" y="325" type="curve" smooth="yes"/>
      <point x="320" y="379"/>
      <point x="403" y="397"/>
      <point x="403" y="482" type="curve" smooth="yes"/>
      <point x="403" y="550"/>
      <point x="347" y="581"/>
      <point x="276" y="581" type="curve" smooth="yes"/>
      <point x="165" y="581"/>
      <point x="69" y="497"/>
      <point x="69" y="344" type="curve" smooth="yes"/>
      <point x="69" y="42" type="line"/>
      <point x="18" y="35" type="line"/>
    </contour>
  </outline>
</glyph>
<glyph name="ae" format="1">
  <advance width="644"/>
  <unicode hex="00E6"/>
  <outline>
    <contour>
      <point x="458" y="-8" type="curve" smooth="yes"/>
      <point x="517" y="-8"/>
      <point x="577" y="18"/>
      <point x="605" y="45" type="curve"/>
      <point x="591" y="77" type="line"/>
      <point x="569" y="58"/>
      <point x="521" y="40"/>
      <point x="479" y="40" type="curve" smooth="yes"/>
      <point x="397" y="40"/>
      <point x="352" y="110"/>
      <point x="350" y="207" type="curve"/>
      <point x="609" y="207" type="line"/>
      <point x="612" y="225"/>
      <point x="613" y="245"/>
      <point x="613" y="275" type="curve"/>
      <point x="609" y="370"/>
      <point x="558" y="422"/>
      <point x="467" y="422" type="curve" smooth="yes"/>
      <point x="412" y="422"/>
      <point x="365" y="401"/>
      <point x="331" y="363" type="curve"/>
      <point x="313" y="403"/>
      <point x="277" y="419"/>
      <point x="210" y="419" type="curve" smooth="yes"/>
      <point x="139" y="419"/>
      <point x="58" y="379"/>
      <point x="39" y="362" type="curve"/>
      <point x="56" y="327" type="line"/>
      <point x="86" y="343"/>
      <point x="137" y="367"/>
      <point x="192" y="367" type="curve" smooth="yes"/>
      <point x="261" y="367"/>
      <point x="275" y="341"/>
      <point x="275" y="272" type="curve" smooth="yes"/>
      <point x="275" y="248" type="line"/>
      <point x="153" y="246"/>
      <point x="32" y="210"/>
      <point x="32" y="109" type="curve" smooth="yes"/>
      <point x="32" y="28"/>
      <point x="90" y="-8"/>
      <point x="157" y="-8" type="curve" smooth="yes"/>
      <point x="232" y="-8"/>
      <point x="284" y="38"/>
      <point x="307" y="72" type="curve"/>
      <point x="337" y="21"/>
      <point x="388" y="-8"/>
    </contour>
    <contour>
      <point x="185" y="41" type="curve" smooth="yes"/>
      <point x="143" y="41"/>
      <point x="110" y="61"/>
      <point x="110" y="118" type="curve" smooth="yes"/>
      <point x="110" y="170"/>
      <point x="163" y="212"/>
      <point x="275" y="213" type="curve"/>
      <point x="275" y="207" type="line" smooth="yes"/>
      <point x="275" y="169"/>
      <point x="281" y="133"/>
      <point x="292" y="103" type="curve"/>
      <point x="276" y="75"/>
      <point x="233" y="41"/>
    </contour>
    <contour>
      <point x="453" y="381" type="curve" smooth="yes"/>
      <point x="514" y="381"/>
      <point x="538" y="337"/>
      <point x="538" y="278" type="curve" smooth="yes"/>
      <point x="538" y="267"/>
      <point x="537" y="255"/>
      <point x="536" y="245" type="curve"/>
      <point x="351" y="245" type="line"/>
      <point x="356" y="348"/>
      <point x="398" y="381"/>
    </contour>
  </outline>
</glyph>
<glyph name="eth" format="1">
  <advance width="428"/>
  <unicode hex="00F0"/>
  <outline>
    <contour>
      <point x="121" y="492" type="line"/>
      <point x="172" y="555" type="line"/>
      <point x="230" y="517"/>
      <point x="271" y="460"/>
      <point x="293" y="407" type="curve"/>
      <point x="276" y="415"/>
      <point x="250" y="422"/>
      <point x="220" y="422" type="curve" smooth="yes"/>
      <point x="122" y="422"/>
      <point x="30" y="346"/>
      <point x="30" y="193" type="curve" smooth="yes"/>
      <point x="30" y="77"/>
      <point x="88" y="-8"/>
      <point x="215" y="-8" type="curve" smooth="yes"/>
      <point x="350" y="-8"/>
      <point x="399" y="119"/>
      <point x="399" y="240" type="curve" smooth="yes"/>
      <point x="399" y="396"/>
      <point x="319" y="512"/>
      <point x="203" y="590" type="curve"/>
      <point x="222" y="611"/>
      <point x="248" y="642"/>
      <point x="248" y="642" type="curve"/>
      <point x="217" y="667" type="line"/>
      <point x="217" y="667"/>
      <point x="189" y="634"/>
      <point x="169" y="610" type="curve"/>
      <point x="137" y="627"/>
      <point x="112" y="639"/>
      <point x="74" y="650" type="curve"/>
      <point x="60" y="616" type="line"/>
      <point x="81" y="610"/>
      <point x="115" y="594"/>
      <point x="141" y="577" type="curve"/>
      <point x="87" y="515" type="line"/>
    </contour>
    <contour>
      <point x="218" y="31" type="curve" smooth="yes"/>
      <point x="136" y="31"/>
      <point x="108" y="111"/>
      <point x="108" y="199" type="curve" smooth="yes"/>
      <point x="108" y="318"/>
      <point x="153" y="387"/>
      <point x="221" y="387" type="curve" smooth="yes"/>
      <point x="268" y="387"/>
      <point x="297" y="364"/>
      <point x="306" y="350" type="curve"/>
      <point x="312" y="332"/>
      <point x="322" y="291"/>
      <point x="322" y="234" type="curve" smooth="yes"/>
      <point x="322" y="104"/>
      <point x="290" y="31"/>
    </contour>
  </outline>
</glyph>
<glyph name="divide" format="1">
  <advance width="493"/>
  <unicode hex="00F7"/>
  <outline>
    <contour>
      <point x="197" y="69" type="curve" smooth="yes"/>
      <point x="197" y="42"/>
      <point x="219" y="25"/>
      <point x="242" y="25" type="curve" smooth="yes"/>
      <point x="270" y="25"/>
      <point x="296" y="45"/>
      <point x="296" y="76" type="curve" smooth="yes"/>
      <point x="296" y="100"/>
      <point x="282" y="120"/>
      <point x="251" y="120" type="curve" smooth="yes"/>
      <point x="224" y="120"/>
      <point x="197" y="98"/>
    </contour>
    <contour>
      <point x="78" y="197" type="line"/>
      <point x="414" y="197" type="line"/>
      <point x="414" y="248" type="line"/>
      <point x="78" y="248" type="line"/>
    </contour>
    <contour>
      <point x="249" y="326" type="curve" smooth="yes"/>
      <point x="278" y="326"/>
      <point x="302" y="345"/>
      <point x="302" y="376" type="curve" smooth="yes"/>
      <point x="302" y="400"/>
      <point x="288" y="421"/>
      <point x="257" y="421" type="curve" smooth="yes"/>
      <point x="231" y="421"/>
      <point x="204" y="399"/>
      <point x="204" y="370" type="curve" smooth="yes"/>
      <point x="204" y="343"/>
      <point x="226" y="326"/>
    </contour>
  </outline>
</glyph>
<glyph name="oslash" format="1">
  <advance width="443"/>
  <unicode hex="00F8"/>
  <outline>
    <contour>
      <point x="31" y="207" type="curve" smooth="yes"/>
      <point x="31" y="118"/>
      <point x="61" y="42"/>
      <point x="132" y="9" type="curve"/>
      <point x="104" y="-67" type="line"/>
      <point x="135" y="-75" type="line"/>
      <point x="163" y="-2" type="line"/>
      <point x="180" y="-5"/>
      <point x="197" y="-8"/>
      <point x="217" y="-8" type="curve" smooth="yes"/>
      <point x="315" y="-8"/>
      <point x="411" y="69"/>
      <point x="411" y="207" type="curve" smooth="yes"/>
      <point x="411" y="295"/>
      <point x="381" y="371"/>
      <point x="311" y="404" type="curve"/>
      <point x="336" y="477" type="line"/>
      <point x="306" y="485" type="line"/>
      <point x="281" y="416" type="line"/>
      <point x="264" y="419"/>
      <point x="246" y="422"/>
      <point x="225" y="422" type="curve" smooth="yes"/>
      <point x="127" y="422"/>
      <point x="31" y="344"/>
    </contour>
    <contour>
      <point x="111" y="213" type="curve" smooth="yes"/>
      <point x="111" y="325"/>
      <point x="151" y="381"/>
      <point x="222" y="381" type="curve" smooth="yes"/>
      <point x="239" y="381"/>
      <point x="253" y="377"/>
      <point x="265" y="370" type="curve"/>
      <point x="155" y="61" type="line"/>
      <point x="124" y="92"/>
      <point x="111" y="148"/>
    </contour>
    <contour>
      <point x="221" y="33" type="curve" smooth="yes"/>
      <point x="204" y="33"/>
      <point x="190" y="37"/>
      <point x="177" y="43" type="curve"/>
      <point x="288" y="352" type="line"/>
      <point x="319" y="319"/>
      <point x="331" y="265"/>
      <point x="331" y="201" type="curve" smooth="yes"/>
      <point x="331" y="90"/>
      <point x="291" y="33"/>
    </contour>
  </outline>
</glyph>
<glyph name="thorn" format="1">
  <advance width="448"/>
  <unicode hex="00FE"/>
  <outline>
    <contour>
      <point x="60" y="556" type="line"/>
      <point x="60" y="-138" type="line"/>
      <point x="5" y="-147" type="line"/>
      <point x="5" y="-179" type="line"/>
      <point x="213" y="-179" type="line"/>
      <point x="213" y="-147" type="line"/>
      <point x="131" y="-138" type="line"/>
      <point x="131" y="-50" type="line"/>
      <point x="129" y="-1" type="line"/>
      <point x="151" y="-5"/>
      <point x="176" y="-8"/>
      <point x="203" y="-8" type="curve" smooth="yes"/>
      <point x="334" y="-8"/>
      <point x="416" y="93"/>
      <point x="416" y="221" type="curve" smooth="yes"/>
      <point x="416" y="363"/>
      <point x="338" y="422"/>
      <point x="254" y="422" type="curve" smooth="yes"/>
      <point x="199" y="422"/>
      <point x="157" y="397"/>
      <point x="131" y="372" type="curve"/>
      <point x="131" y="595" type="line"/>
      <point x="115" y="607" type="line"/>
      <point x="114" y="607" type="line"/>
      <point x="-1" y="593" type="line"/>
      <point x="-1" y="563" type="line"/>
    </contour>
    <contour>
      <point x="226" y="372" type="curve" smooth="yes"/>
      <point x="288" y="372"/>
      <point x="341" y="324"/>
      <point x="339" y="209" type="curve" smooth="yes"/>
      <point x="337" y="88"/>
      <point x="282" y="32"/>
      <point x="208" y="32" type="curve" smooth="yes"/>
      <point x="173" y="32"/>
      <point x="139" y="40"/>
      <point x="131" y="56" type="curve"/>
      <point x="131" y="329" type="line"/>
      <point x="148" y="346"/>
      <point x="183" y="372"/>
    </contour>
  </outline>
</glyph>
<glyph name="Amacron" format="1">
  <advance width="511"/>
  <unicode hex="0100"/>
  <outline>
    <contour>
      <point x="156" y="633" type="line"/>
      <point x="358" y="633" type="line"/>
      <point x="358" y="683" type="line"/>
      <point x="156" y="683" type="line"/>
    </contour>
    <contour>
      <point x="-9" y="0" type="line"/>
      <point x="163" y="0" type="line"/>
      <point x="163" y="35" type="line"/>
      <point x="99" y="42" type="line"/>
      <point x="135" y="154" type="line"/>
      <point x="356" y="154" type="line"/>
      <point x="393" y="43" type="line"/>
      <point x="330" y="35" type="line"/>
      <point x="330" y="0" type="line"/>
      <point x="521" y="0" type="line"/>
      <point x="521" y="35" type="line"/>
      <point x="474" y="43" type="line"/>
      <point x="292" y="555" type="line"/>
      <point x="218" y="555" type="line"/>
      <point x="37" y="43" type="line"/>
      <point x="-10" y="35" type="line"/>
    </contour>
    <contour>
      <point x="226" y="437" type="line"/>
      <point x="244" y="505" type="line"/>
      <point x="263" y="438" type="line"/>
      <point x="343" y="197" type="line"/>
      <point x="148" y="197" type="line"/>
    </contour>
  </outline>
</glyph>
<glyph name="Abreve" format="1">
  <advance width="511"/>
  <unicode hex="0102"/>
  <outline>
    <contour>
      <point x="257" y="597" type="curve" smooth="yes"/>
      <point x="333" y="597"/>
      <point x="377" y="646"/>
      <point x="377" y="707" type="curve" smooth="yes"/>
      <point x="377" y="713"/>
      <point x="377" y="717"/>
      <point x="377" y="722" type="curve"/>
      <point x="339" y="722" type="line"/>
      <point x="339" y="720"/>
      <point x="339" y="717"/>
      <point x="338" y="713" type="curve" smooth="yes"/>
      <point x="336" y="687"/>
      <point x="318" y="650"/>
      <point x="258" y="650" type="curve" smooth="yes"/>
      <point x="196" y="650"/>
      <point x="176" y="687"/>
      <point x="173" y="712" type="curve" smooth="yes"/>
      <point x="173" y="717"/>
      <point x="173" y="720"/>
      <point x="173" y="722" type="curve"/>
      <point x="134" y="722" type="line"/>
      <point x="134" y="717"/>
      <point x="134" y="712"/>
      <point x="134" y="707" type="curve" smooth="yes"/>
      <point x="134" y="646"/>
      <point x="177" y="597"/>
    </contour>
    <contour>
      <point x="-9" y="0" type="line"/>
      <point x="163" y="0" type="line"/>
      <point x="163" y="35" type="line"/>
      <point x="99" y="42" type="line"/>
      <point x="135" y="154" type="line"/>
      <point x="356" y="154" type="line"/>
      <point x="393" y="43" type="line"/>
      <point x="330" y="35" type="line"/>
      <point x="330" y="0" type="line"/>
      <point x="521" y="0" type="line"/>
      <point x="521" y="35" type="line"/>
      <point x="474" y="43" type="line"/>
      <point x="292" y="555" type="line"/>
      <point x="218" y="555" type="line"/>
      <point x="37" y="43" type="line"/>
      <point x="-10" y="35" type="line"/>
    </contour>
    <contour>
      <point x="226" y="437" type="line"/>
      <point x="244" y="505" type="line"/>
      <point x="263" y="438" type="line"/>
      <point x="343" y="197" type="line"/>
      <point x="148" y="197" type="line"/>
    </contour>
  </outline>
</glyph>
